<?xml version="1.0" standalone="no"?>
 <!DOCTYPE svg PUBLIC "-//W3C//DTD SVG 1.1//EN" 
 "http://www.w3.org/Graphics/SVG/1.1/DTD/svg11.dtd"> 
<svg
  xmlns:svg="http://www.w3.org/2000/svg"
  xmlns="http://www.w3.org/2000/svg"
  xmlns:xlink="http://www.w3.org/1999/xlink"
  version="1.1"
  width="29.700220cm" height="21.000720cm" viewBox="0 0 116930 82680">
<title>SVG Picture created as extractor-smd.svg date 2020/09/02 03:35:41 </title>
  <desc>Picture generated by Eeschema-SVG </desc>
<g style="fill:#000000; fill-opacity:1;stroke:#000000; stroke-opacity:1;
stroke-linecap:round; stroke-linejoin:round;"
 transform="translate(0 0) scale(1 1)">
</g>
<g style="fill:#000000; fill-opacity:0.0; 
stroke:#000000; stroke-width:0; stroke-opacity:1; 
stroke-linecap:round; stroke-linejoin:round;">
<g >
</g>
<g style="fill:#840000; fill-opacity:0.0; 
stroke:#840000; stroke-width:0; stroke-opacity:1; 
stroke-linecap:round; stroke-linejoin:round;">
</g>
<g style="fill:#840000; fill-opacity:0.0; 
stroke:#840000; stroke-width:60; stroke-opacity:1; 
stroke-linecap:round; stroke-linejoin:round;">
<path d="M41000.4 26000 A250 250 0.0 0 0 41000.4 25500" />
<path d="M41000.4 25500 A250 250 0.0 0 0 41000.4 25000" />
<path d="M41000.4 25000 A250 250 0.0 0 0 41000.4 24500" />
<path d="M41000.4 24500 A250 250 0.0 0 0 41000.4 24000" />
<path style="fill:#840000; fill-opacity:0.0; 
stroke:#840000; stroke-width:60; stroke-opacity:1; 
stroke-linecap:round; stroke-linejoin:round;fill:none"
d="M 41400,24000
41400,26000
" /> 
<path style="fill:#840000; fill-opacity:0.0; 
stroke:#840000; stroke-width:60; stroke-opacity:1; 
stroke-linecap:round; stroke-linejoin:round;fill:none"
d="M 41600,26000
41600,24000
" /> 
<path d="M41000 24000
L41000 23500
" />
<path d="M41000 26000
L41000 26500
" />
</g>
<g style="fill:#008484; fill-opacity:0.0; 
stroke:#008484; stroke-width:60; stroke-opacity:1; 
stroke-linecap:round; stroke-linejoin:round;">
<text x="42350" y="24810"
textLength="940" font-size="660" lengthAdjust="spacingAndGlyphs"
text-anchor="middle" opacity="0">L2</text>
<path d="M42260 24780
L42020 24780
L42020 24280
" />
<path d="M42400 24330
L42430 24310
L42480 24280
L42600 24280
L42640 24310
L42670 24330
L42690 24380
L42690 24420
L42670 24500
L42380 24780
L42690 24780
" />
<text x="45250" y="25720"
textLength="6750" font-size="660" lengthAdjust="spacingAndGlyphs"
text-anchor="middle" opacity="0">SRU8045A-101Y </text>
<path d="M42000 25670
L42070 25690
L42190 25690
L42230 25670
L42260 25640
L42280 25600
L42280 25550
L42260 25500
L42230 25480
L42190 25450
L42090 25430
L42040 25410
L42020 25380
L42000 25330
L42000 25290
L42020 25240
L42040 25220
L42090 25190
L42210 25190
L42280 25220
" />
<path d="M42780 25690
L42610 25450
" />
<path d="M42500 25690
L42500 25190
L42690 25190
L42730 25220
L42760 25240
L42780 25290
L42780 25360
L42760 25410
L42730 25430
L42690 25450
L42500 25450
" />
<path d="M43000 25190
L43000 25600
L43020 25640
L43040 25670
L43090 25690
L43190 25690
L43230 25670
L43260 25640
L43280 25600
L43280 25190
" />
<path d="M43590 25410
L43540 25380
L43520 25360
L43500 25310
L43500 25290
L43520 25240
L43540 25220
L43590 25190
L43690 25190
L43730 25220
L43760 25240
L43780 25290
L43780 25310
L43760 25360
L43730 25380
L43690 25410
L43590 25410
L43540 25430
L43520 25450
L43500 25500
L43500 25600
L43520 25640
L43540 25670
L43590 25690
L43690 25690
L43730 25670
L43760 25640
L43780 25600
L43780 25500
L43760 25450
L43730 25430
L43690 25410
" />
<path d="M44090 25190
L44140 25190
L44190 25220
L44210 25240
L44230 25290
L44260 25380
L44260 25500
L44230 25600
L44210 25640
L44190 25670
L44140 25690
L44090 25690
L44040 25670
L44020 25640
L44000 25600
L43970 25500
L43970 25380
L44000 25290
L44020 25240
L44040 25220
L44090 25190
" />
<path d="M44690 25360
L44690 25690
" />
<path d="M44570 25170
L44450 25520
L44760 25520
" />
<path d="M45190 25190
L44950 25190
L44920 25430
L44950 25410
L45000 25380
L45110 25380
L45160 25410
L45190 25430
L45210 25480
L45210 25600
L45190 25640
L45160 25670
L45110 25690
L45000 25690
L44950 25670
L44920 25640
" />
<path d="M45400 25550
L45640 25550
" />
<path d="M45350 25690
L45520 25190
L45690 25690
" />
<path d="M45850 25500
L46230 25500
" />
<path d="M46730 25690
L46450 25690
" />
<path d="M46590 25690
L46590 25190
L46540 25260
L46500 25310
L46450 25330
" />
<path d="M47040 25190
L47090 25190
L47140 25220
L47160 25240
L47190 25290
L47210 25380
L47210 25500
L47190 25600
L47160 25640
L47140 25670
L47090 25690
L47040 25690
L47000 25670
L46970 25640
L46950 25600
L46920 25500
L46920 25380
L46950 25290
L46970 25240
L47000 25220
L47040 25190
" />
<path d="M47690 25690
L47400 25690
" />
<path d="M47540 25690
L47540 25190
L47500 25260
L47450 25310
L47400 25330
" />
<path d="M48000 25450
L48000 25690
" />
<path d="M47830 25190
L48000 25450
L48160 25190
" />
</g>
</g>
<g style="fill:#008484; fill-opacity:0.0; 
stroke:#008484; stroke-width:0; stroke-opacity:1; 
stroke-linecap:round; stroke-linejoin:round;">
<g >
</g>
<g style="fill:#840000; fill-opacity:0.0; 
stroke:#840000; stroke-width:0; stroke-opacity:1; 
stroke-linecap:round; stroke-linejoin:round;">
</g>
<g style="fill:#840000; fill-opacity:0.0; 
stroke:#840000; stroke-width:200; stroke-opacity:1; 
stroke-linecap:round; stroke-linejoin:round;">
<path style="fill:#840000; fill-opacity:0.0; 
stroke:#840000; stroke-width:200; stroke-opacity:1; 
stroke-linecap:round; stroke-linejoin:round;fill:none"
d="M 37200,17200
37200,18800
" /> 
<path style="fill:#840000; fill-opacity:0.0; 
stroke:#840000; stroke-width:200; stroke-opacity:1; 
stroke-linecap:round; stroke-linejoin:round;fill:none"
d="M 37800,17200
37800,18800
" /> 
</g>
<g style="fill:#840000; fill-opacity:0.0; 
stroke:#840000; stroke-width:60; stroke-opacity:1; 
stroke-linecap:round; stroke-linejoin:round;">
<path d="M37900 18000
L39000 18000
" />
<path d="M37100 18000
L36000 18000
" />
</g>
<g style="fill:#008484; fill-opacity:0.0; 
stroke:#008484; stroke-width:60; stroke-opacity:1; 
stroke-linecap:round; stroke-linejoin:round;">
<text x="40500" y="18270"
textLength="1040" font-size="660" lengthAdjust="spacingAndGlyphs"
text-anchor="middle" opacity="0">C5</text>
<path d="M40410 18190
L40390 18220
L40320 18240
L40270 18240
L40200 18220
L40150 18170
L40130 18120
L40100 18030
L40100 17960
L40130 17860
L40150 17810
L40200 17770
L40270 17740
L40320 17740
L40390 17770
L40410 17790
" />
<path d="M40860 17740
L40630 17740
L40600 17980
L40630 17960
L40670 17930
L40790 17930
L40840 17960
L40860 17980
L40890 18030
L40890 18150
L40860 18190
L40840 18220
L40790 18240
L40670 18240
L40630 18220
L40600 18190
" />
<text x="40500" y="17770"
textLength="2610" font-size="660" lengthAdjust="spacingAndGlyphs"
text-anchor="middle" opacity="0">0.01uF</text>
<path d="M39440 17240
L39480 17240
L39530 17270
L39550 17290
L39580 17340
L39600 17430
L39600 17550
L39580 17650
L39550 17690
L39530 17720
L39480 17740
L39440 17740
L39390 17720
L39360 17690
L39340 17650
L39320 17550
L39320 17430
L39340 17340
L39360 17290
L39390 17270
L39440 17240
" />
<path d="M39820 17690
L39840 17720
L39820 17740
L39790 17720
L39820 17690
L39820 17740
" />
<path d="M40150 17240
L40200 17240
L40250 17270
L40270 17290
L40290 17340
L40320 17430
L40320 17550
L40290 17650
L40270 17690
L40250 17720
L40200 17740
L40150 17740
L40100 17720
L40080 17690
L40050 17650
L40030 17550
L40030 17430
L40050 17340
L40080 17290
L40100 17270
L40150 17240
" />
<path d="M40790 17740
L40510 17740
" />
<path d="M40650 17740
L40650 17240
L40600 17310
L40550 17360
L40510 17380
" />
<path d="M41220 17410
L41220 17740
" />
<path d="M41010 17410
L41010 17670
L41030 17720
L41080 17740
L41150 17740
L41200 17720
L41220 17690
" />
<path d="M41630 17480
L41460 17480
" />
<path d="M41460 17740
L41460 17240
L41700 17240
" />
</g>
</g>
<g style="fill:#008484; fill-opacity:0.0; 
stroke:#008484; stroke-width:0; stroke-opacity:1; 
stroke-linecap:round; stroke-linejoin:round;">
<g >
</g>
<g style="fill:#840000; fill-opacity:0.0; 
stroke:#840000; stroke-width:0; stroke-opacity:1; 
stroke-linecap:round; stroke-linejoin:round;">
</g>
<g style="fill:#840000; fill-opacity:0.0; 
stroke:#840000; stroke-width:200; stroke-opacity:1; 
stroke-linecap:round; stroke-linejoin:round;">
<path style="fill:#840000; fill-opacity:0.0; 
stroke:#840000; stroke-width:200; stroke-opacity:1; 
stroke-linecap:round; stroke-linejoin:round;fill:none"
d="M 37200,22700
37200,24300
" /> 
<path style="fill:#840000; fill-opacity:0.0; 
stroke:#840000; stroke-width:200; stroke-opacity:1; 
stroke-linecap:round; stroke-linejoin:round;fill:none"
d="M 37800,22700
37800,24300
" /> 
</g>
<g style="fill:#840000; fill-opacity:0.0; 
stroke:#840000; stroke-width:60; stroke-opacity:1; 
stroke-linecap:round; stroke-linejoin:round;">
<path d="M37900 23500
L39000 23500
" />
<path d="M37100 23500
L36000 23500
" />
</g>
<g style="fill:#008484; fill-opacity:0.0; 
stroke:#008484; stroke-width:60; stroke-opacity:1; 
stroke-linecap:round; stroke-linejoin:round;">
<text x="37500" y="21250"
textLength="1040" font-size="660" lengthAdjust="spacingAndGlyphs"
text-anchor="middle" opacity="0">C6</text>
<path d="M37410 21170
L37390 21200
L37320 21220
L37270 21220
L37200 21200
L37150 21150
L37130 21100
L37100 21010
L37100 20940
L37130 20840
L37150 20790
L37200 20750
L37270 20720
L37320 20720
L37390 20750
L37410 20770
" />
<path d="M37840 20720
L37750 20720
L37700 20750
L37670 20770
L37630 20840
L37600 20940
L37600 21130
L37630 21170
L37650 21200
L37700 21220
L37790 21220
L37840 21200
L37860 21170
L37890 21130
L37890 21010
L37860 20960
L37840 20940
L37790 20910
L37700 20910
L37650 20940
L37630 20960
L37600 21010
" />
<text x="37500" y="22160"
textLength="2610" font-size="660" lengthAdjust="spacingAndGlyphs"
text-anchor="middle" opacity="0">0.01uF</text>
<path d="M36440 21630
L36480 21630
L36530 21660
L36550 21680
L36580 21730
L36600 21820
L36600 21940
L36580 22040
L36550 22080
L36530 22110
L36480 22130
L36440 22130
L36390 22110
L36360 22080
L36340 22040
L36320 21940
L36320 21820
L36340 21730
L36360 21680
L36390 21660
L36440 21630
" />
<path d="M36820 22080
L36840 22110
L36820 22130
L36790 22110
L36820 22080
L36820 22130
" />
<path d="M37150 21630
L37200 21630
L37250 21660
L37270 21680
L37290 21730
L37320 21820
L37320 21940
L37290 22040
L37270 22080
L37250 22110
L37200 22130
L37150 22130
L37100 22110
L37080 22080
L37050 22040
L37030 21940
L37030 21820
L37050 21730
L37080 21680
L37100 21660
L37150 21630
" />
<path d="M37790 22130
L37510 22130
" />
<path d="M37650 22130
L37650 21630
L37600 21700
L37550 21750
L37510 21770
" />
<path d="M38220 21800
L38220 22130
" />
<path d="M38010 21800
L38010 22060
L38030 22110
L38080 22130
L38150 22130
L38200 22110
L38220 22080
" />
<path d="M38630 21870
L38460 21870
" />
<path d="M38460 22130
L38460 21630
L38700 21630
" />
</g>
</g>
<g style="fill:#008484; fill-opacity:0.0; 
stroke:#008484; stroke-width:0; stroke-opacity:1; 
stroke-linecap:round; stroke-linejoin:round;">
<g >
</g>
<g style="fill:#840000; fill-opacity:0.0; 
stroke:#840000; stroke-width:0; stroke-opacity:1; 
stroke-linecap:round; stroke-linejoin:round;">
</g>
<g style="fill:#840000; fill-opacity:0.0; 
stroke:#840000; stroke-width:60; stroke-opacity:1; 
stroke-linecap:round; stroke-linejoin:round;">
<circle cx="37000" cy="45500" r="1000" /> 
<path style="fill:#840000; fill-opacity:0.0; 
stroke:#840000; stroke-width:60; stroke-opacity:1; 
stroke-linecap:round; stroke-linejoin:round;fill:none"
d="M 37700,44800
36300,46200
" /> 
<path style="fill:#840000; fill-opacity:0.0; 
stroke:#840000; stroke-width:60; stroke-opacity:1; 
stroke-linecap:round; stroke-linejoin:round;fill:none"
d="M 37700,46200
36300,44800
" /> 
<path d="M36000 45500
L35000 45500
" />
<path d="M38000 45500
L39000 45500
" />
</g>
<g style="fill:#008484; fill-opacity:0.0; 
stroke:#008484; stroke-width:60; stroke-opacity:1; 
stroke-linecap:round; stroke-linejoin:round;">
<text x="37000" y="43120"
textLength="1370" font-size="660" lengthAdjust="spacingAndGlyphs"
text-anchor="middle" opacity="0">LA1</text>
<path d="M36700 43090
L36460 43090
L36460 42590
" />
<path d="M36840 42950
L37080 42950
" />
<path d="M36790 43090
L36960 42590
L37130 43090
" />
<path d="M37550 43090
L37270 43090
" />
<path d="M37410 43090
L37410 42590
L37360 42660
L37320 42710
L37270 42730
" />
<text x="37000" y="44030"
textLength="4010" font-size="660" lengthAdjust="spacingAndGlyphs"
text-anchor="middle" opacity="0">282834-2</text>
<path d="M35110 43550
L35140 43530
L35190 43500
L35300 43500
L35350 43530
L35380 43550
L35400 43600
L35400 43640
L35380 43720
L35090 44000
L35400 44000
" />
<path d="M35690 43720
L35640 43690
L35610 43670
L35590 43620
L35590 43600
L35610 43550
L35640 43530
L35690 43500
L35780 43500
L35830 43530
L35850 43550
L35880 43600
L35880 43620
L35850 43670
L35830 43690
L35780 43720
L35690 43720
L35640 43740
L35610 43760
L35590 43810
L35590 43910
L35610 43950
L35640 43980
L35690 44000
L35780 44000
L35830 43980
L35850 43950
L35880 43910
L35880 43810
L35850 43760
L35830 43740
L35780 43720
" />
<path d="M36070 43550
L36090 43530
L36140 43500
L36260 43500
L36300 43530
L36330 43550
L36350 43600
L36350 43640
L36330 43720
L36040 44000
L36350 44000
" />
<path d="M36640 43720
L36590 43690
L36570 43670
L36540 43620
L36540 43600
L36570 43550
L36590 43530
L36640 43500
L36730 43500
L36780 43530
L36800 43550
L36830 43600
L36830 43620
L36800 43670
L36780 43690
L36730 43720
L36640 43720
L36590 43740
L36570 43760
L36540 43810
L36540 43910
L36570 43950
L36590 43980
L36640 44000
L36730 44000
L36780 43980
L36800 43950
L36830 43910
L36830 43810
L36800 43760
L36780 43740
L36730 43720
" />
<path d="M37000 43500
L37300 43500
L37140 43690
L37210 43690
L37260 43720
L37280 43740
L37300 43790
L37300 43910
L37280 43950
L37260 43980
L37210 44000
L37070 44000
L37020 43980
L37000 43950
" />
<path d="M37730 43670
L37730 44000
" />
<path d="M37610 43480
L37500 43830
L37800 43830
" />
<path d="M38000 43810
L38380 43810
" />
<path d="M38590 43550
L38610 43530
L38660 43500
L38780 43500
L38830 43530
L38850 43550
L38880 43600
L38880 43640
L38850 43720
L38570 44000
L38880 44000
" />
</g>
</g>
<g style="fill:#008484; fill-opacity:0.0; 
stroke:#008484; stroke-width:0; stroke-opacity:1; 
stroke-linecap:round; stroke-linejoin:round;">
<g >
</g>
<g style="fill:#840000; fill-opacity:0.0; 
stroke:#840000; stroke-width:0; stroke-opacity:1; 
stroke-linecap:round; stroke-linejoin:round;">
</g>
<g style="fill:#840000; fill-opacity:0.0; 
stroke:#840000; stroke-width:500; stroke-opacity:1; 
stroke-linecap:round; stroke-linejoin:round;">
<circle cx="17500" cy="54000" r="500" /> 
</g>
<g style="fill:#840000; fill-opacity:0.0; 
stroke:#840000; stroke-width:60; stroke-opacity:1; 
stroke-linecap:round; stroke-linejoin:round;">
<path d="M17500 54500
L17500 55500
" />
</g>
<g style="fill:#008484; fill-opacity:0.0; 
stroke:#008484; stroke-width:60; stroke-opacity:1; 
stroke-linecap:round; stroke-linejoin:round;">
<text x="19030" y="54280"
textLength="1060" font-size="660" lengthAdjust="spacingAndGlyphs"
text-anchor="middle" opacity="0">H1</text>
<path d="M18640 54250
L18640 53750
" />
<path d="M18640 53990
L18930 53990
" />
<path d="M18930 54250
L18930 53750
" />
<path d="M19430 54250
L19140 54250
" />
<path d="M19290 54250
L19290 53750
L19240 53820
L19190 53870
L19140 53890
" />
<text x="21930" y="55190"
textLength="6870" font-size="660" lengthAdjust="spacingAndGlyphs"
text-anchor="middle" opacity="0">MountingHole_Pad</text>
<path d="M18640 55160
L18640 54660
L18810 55020
L18970 54660
L18970 55160
" />
<path d="M19280 55160
L19230 55140
L19210 55110
L19190 55070
L19190 54920
L19210 54880
L19230 54850
L19280 54830
L19350 54830
L19400 54850
L19430 54880
L19450 54920
L19450 55070
L19430 55110
L19400 55140
L19350 55160
L19280 55160
" />
<path d="M19880 54830
L19880 55160
" />
<path d="M19660 54830
L19660 55090
L19690 55140
L19730 55160
L19810 55160
L19850 55140
L19880 55110
" />
<path d="M20120 54830
L20120 55160
" />
<path d="M20120 54880
L20140 54850
L20190 54830
L20260 54830
L20310 54850
L20330 54900
L20330 55160
" />
<path d="M20500 54830
L20690 54830
" />
<path d="M20570 54660
L20570 55090
L20590 55140
L20640 55160
L20690 55160
" />
<path d="M20850 55160
L20850 54830
" />
<path d="M20850 54660
L20830 54690
L20850 54710
L20880 54690
L20850 54660
L20850 54710
" />
<path d="M21090 54830
L21090 55160
" />
<path d="M21090 54880
L21120 54850
L21160 54830
L21230 54830
L21280 54850
L21310 54900
L21310 55160
" />
<path d="M21760 54830
L21760 55230
L21730 55280
L21710 55300
L21660 55330
L21590 55330
L21540 55300
" />
<path d="M21760 55140
L21710 55160
L21620 55160
L21570 55140
L21540 55110
L21520 55070
L21520 54920
L21540 54880
L21570 54850
L21620 54830
L21710 54830
L21760 54850
" />
<path d="M22000 55160
L22000 54660
" />
<path d="M22000 54900
L22280 54900
" />
<path d="M22280 55160
L22280 54660
" />
<path d="M22590 55160
L22540 55140
L22520 55110
L22500 55070
L22500 54920
L22520 54880
L22540 54850
L22590 54830
L22660 54830
L22710 54850
L22730 54880
L22760 54920
L22760 55070
L22730 55110
L22710 55140
L22660 55160
L22590 55160
" />
<path d="M23040 55160
L23000 55140
L22970 55090
L22970 54660
" />
<path d="M23430 55140
L23380 55160
L23280 55160
L23230 55140
L23210 55090
L23210 54900
L23230 54850
L23280 54830
L23380 54830
L23430 54850
L23450 54900
L23450 54950
L23210 54990
" />
<path d="M23540 55210
L23930 55210
" />
<path d="M24040 55160
L24040 54660
L24230 54660
L24280 54690
L24310 54710
L24330 54760
L24330 54830
L24310 54880
L24280 54900
L24230 54920
L24040 54920
" />
<path d="M24760 55160
L24760 54900
L24730 54850
L24690 54830
L24590 54830
L24540 54850
" />
<path d="M24760 55140
L24710 55160
L24590 55160
L24540 55140
L24520 55090
L24520 55040
L24540 54990
L24590 54970
L24710 54970
L24760 54950
" />
<path d="M25210 55160
L25210 54660
" />
<path d="M25210 55140
L25160 55160
L25070 55160
L25020 55140
L25000 55110
L24970 55070
L24970 54920
L25000 54880
L25020 54850
L25070 54830
L25160 54830
L25210 54850
" />
</g>
</g>
<g style="fill:#008484; fill-opacity:0.0; 
stroke:#008484; stroke-width:0; stroke-opacity:1; 
stroke-linecap:round; stroke-linejoin:round;">
<g >
</g>
<g style="fill:#840000; fill-opacity:0.0; 
stroke:#840000; stroke-width:0; stroke-opacity:1; 
stroke-linecap:round; stroke-linejoin:round;">
</g>
<g style="fill:#840000; fill-opacity:0.0; 
stroke:#840000; stroke-width:500; stroke-opacity:1; 
stroke-linecap:round; stroke-linejoin:round;">
<circle cx="25500" cy="54000" r="500" /> 
</g>
<g style="fill:#840000; fill-opacity:0.0; 
stroke:#840000; stroke-width:60; stroke-opacity:1; 
stroke-linecap:round; stroke-linejoin:round;">
<path d="M25500 54500
L25500 55500
" />
</g>
<g style="fill:#008484; fill-opacity:0.0; 
stroke:#008484; stroke-width:60; stroke-opacity:1; 
stroke-linecap:round; stroke-linejoin:round;">
<text x="27030" y="54280"
textLength="1060" font-size="660" lengthAdjust="spacingAndGlyphs"
text-anchor="middle" opacity="0">H3</text>
<path d="M26640 54250
L26640 53750
" />
<path d="M26640 53990
L26930 53990
" />
<path d="M26930 54250
L26930 53750
" />
<path d="M27120 53750
L27430 53750
L27260 53940
L27330 53940
L27380 53970
L27410 53990
L27430 54040
L27430 54160
L27410 54200
L27380 54230
L27330 54250
L27190 54250
L27140 54230
L27120 54200
" />
<text x="29930" y="55190"
textLength="6870" font-size="660" lengthAdjust="spacingAndGlyphs"
text-anchor="middle" opacity="0">MountingHole_Pad</text>
<path d="M26640 55160
L26640 54660
L26810 55020
L26970 54660
L26970 55160
" />
<path d="M27280 55160
L27230 55140
L27210 55110
L27190 55070
L27190 54920
L27210 54880
L27230 54850
L27280 54830
L27350 54830
L27400 54850
L27430 54880
L27450 54920
L27450 55070
L27430 55110
L27400 55140
L27350 55160
L27280 55160
" />
<path d="M27880 54830
L27880 55160
" />
<path d="M27660 54830
L27660 55090
L27690 55140
L27730 55160
L27810 55160
L27850 55140
L27880 55110
" />
<path d="M28120 54830
L28120 55160
" />
<path d="M28120 54880
L28140 54850
L28190 54830
L28260 54830
L28310 54850
L28330 54900
L28330 55160
" />
<path d="M28500 54830
L28690 54830
" />
<path d="M28570 54660
L28570 55090
L28590 55140
L28640 55160
L28690 55160
" />
<path d="M28850 55160
L28850 54830
" />
<path d="M28850 54660
L28830 54690
L28850 54710
L28880 54690
L28850 54660
L28850 54710
" />
<path d="M29090 54830
L29090 55160
" />
<path d="M29090 54880
L29120 54850
L29160 54830
L29230 54830
L29280 54850
L29310 54900
L29310 55160
" />
<path d="M29760 54830
L29760 55230
L29730 55280
L29710 55300
L29660 55330
L29590 55330
L29540 55300
" />
<path d="M29760 55140
L29710 55160
L29620 55160
L29570 55140
L29540 55110
L29520 55070
L29520 54920
L29540 54880
L29570 54850
L29620 54830
L29710 54830
L29760 54850
" />
<path d="M30000 55160
L30000 54660
" />
<path d="M30000 54900
L30280 54900
" />
<path d="M30280 55160
L30280 54660
" />
<path d="M30590 55160
L30540 55140
L30520 55110
L30500 55070
L30500 54920
L30520 54880
L30540 54850
L30590 54830
L30660 54830
L30710 54850
L30730 54880
L30760 54920
L30760 55070
L30730 55110
L30710 55140
L30660 55160
L30590 55160
" />
<path d="M31040 55160
L31000 55140
L30970 55090
L30970 54660
" />
<path d="M31430 55140
L31380 55160
L31280 55160
L31230 55140
L31210 55090
L31210 54900
L31230 54850
L31280 54830
L31380 54830
L31430 54850
L31450 54900
L31450 54950
L31210 54990
" />
<path d="M31540 55210
L31930 55210
" />
<path d="M32040 55160
L32040 54660
L32230 54660
L32280 54690
L32310 54710
L32330 54760
L32330 54830
L32310 54880
L32280 54900
L32230 54920
L32040 54920
" />
<path d="M32760 55160
L32760 54900
L32730 54850
L32690 54830
L32590 54830
L32540 54850
" />
<path d="M32760 55140
L32710 55160
L32590 55160
L32540 55140
L32520 55090
L32520 55040
L32540 54990
L32590 54970
L32710 54970
L32760 54950
" />
<path d="M33210 55160
L33210 54660
" />
<path d="M33210 55140
L33160 55160
L33070 55160
L33020 55140
L33000 55110
L32970 55070
L32970 54920
L33000 54880
L33020 54850
L33070 54830
L33160 54830
L33210 54850
" />
</g>
</g>
<g style="fill:#008484; fill-opacity:0.0; 
stroke:#008484; stroke-width:0; stroke-opacity:1; 
stroke-linecap:round; stroke-linejoin:round;">
<g >
</g>
<g style="fill:#840000; fill-opacity:0.0; 
stroke:#840000; stroke-width:0; stroke-opacity:1; 
stroke-linecap:round; stroke-linejoin:round;">
</g>
<g style="fill:#840000; fill-opacity:0.0; 
stroke:#840000; stroke-width:500; stroke-opacity:1; 
stroke-linecap:round; stroke-linejoin:round;">
<circle cx="25500" cy="61500" r="500" /> 
</g>
<g style="fill:#840000; fill-opacity:0.0; 
stroke:#840000; stroke-width:60; stroke-opacity:1; 
stroke-linecap:round; stroke-linejoin:round;">
<path d="M25500 61000
L25500 60000
" />
</g>
<g style="fill:#008484; fill-opacity:0.0; 
stroke:#008484; stroke-width:60; stroke-opacity:1; 
stroke-linecap:round; stroke-linejoin:round;">
<text x="23970" y="61710"
textLength="1060" font-size="660" lengthAdjust="spacingAndGlyphs"
text-anchor="middle" opacity="0">H4</text>
<path d="M23580 61680
L23580 61180
" />
<path d="M23580 61420
L23870 61420
" />
<path d="M23870 61680
L23870 61180
" />
<path d="M24320 61350
L24320 61680
" />
<path d="M24200 61160
L24080 61510
L24390 61510
" />
<text x="21060" y="60800"
textLength="6870" font-size="660" lengthAdjust="spacingAndGlyphs"
text-anchor="middle" opacity="0">MountingHole_Pad</text>
<path d="M17770 60770
L17770 60270
L17940 60630
L18100 60270
L18100 60770
" />
<path d="M18410 60770
L18360 60750
L18340 60720
L18320 60680
L18320 60530
L18340 60490
L18360 60460
L18410 60440
L18480 60440
L18530 60460
L18560 60490
L18580 60530
L18580 60680
L18560 60720
L18530 60750
L18480 60770
L18410 60770
" />
<path d="M19010 60440
L19010 60770
" />
<path d="M18790 60440
L18790 60700
L18820 60750
L18860 60770
L18940 60770
L18980 60750
L19010 60720
" />
<path d="M19250 60440
L19250 60770
" />
<path d="M19250 60490
L19270 60460
L19320 60440
L19390 60440
L19440 60460
L19460 60510
L19460 60770
" />
<path d="M19630 60440
L19820 60440
" />
<path d="M19700 60270
L19700 60700
L19720 60750
L19770 60770
L19820 60770
" />
<path d="M19980 60770
L19980 60440
" />
<path d="M19980 60270
L19960 60300
L19980 60320
L20010 60300
L19980 60270
L19980 60320
" />
<path d="M20220 60440
L20220 60770
" />
<path d="M20220 60490
L20250 60460
L20290 60440
L20360 60440
L20410 60460
L20440 60510
L20440 60770
" />
<path d="M20890 60440
L20890 60840
L20860 60890
L20840 60910
L20790 60940
L20720 60940
L20670 60910
" />
<path d="M20890 60750
L20840 60770
L20750 60770
L20700 60750
L20670 60720
L20650 60680
L20650 60530
L20670 60490
L20700 60460
L20750 60440
L20840 60440
L20890 60460
" />
<path d="M21130 60770
L21130 60270
" />
<path d="M21130 60510
L21410 60510
" />
<path d="M21410 60770
L21410 60270
" />
<path d="M21720 60770
L21670 60750
L21650 60720
L21630 60680
L21630 60530
L21650 60490
L21670 60460
L21720 60440
L21790 60440
L21840 60460
L21860 60490
L21890 60530
L21890 60680
L21860 60720
L21840 60750
L21790 60770
L21720 60770
" />
<path d="M22170 60770
L22130 60750
L22100 60700
L22100 60270
" />
<path d="M22560 60750
L22510 60770
L22410 60770
L22360 60750
L22340 60700
L22340 60510
L22360 60460
L22410 60440
L22510 60440
L22560 60460
L22580 60510
L22580 60560
L22340 60600
" />
<path d="M22670 60820
L23060 60820
" />
<path d="M23170 60770
L23170 60270
L23360 60270
L23410 60300
L23440 60320
L23460 60370
L23460 60440
L23440 60490
L23410 60510
L23360 60530
L23170 60530
" />
<path d="M23890 60770
L23890 60510
L23860 60460
L23820 60440
L23720 60440
L23670 60460
" />
<path d="M23890 60750
L23840 60770
L23720 60770
L23670 60750
L23650 60700
L23650 60650
L23670 60600
L23720 60580
L23840 60580
L23890 60560
" />
<path d="M24340 60770
L24340 60270
" />
<path d="M24340 60750
L24290 60770
L24200 60770
L24150 60750
L24130 60720
L24100 60680
L24100 60530
L24130 60490
L24150 60460
L24200 60440
L24290 60440
L24340 60460
" />
</g>
</g>
<g style="fill:#008484; fill-opacity:0.0; 
stroke:#008484; stroke-width:0; stroke-opacity:1; 
stroke-linecap:round; stroke-linejoin:round;">
<g >
</g>
<g style="fill:#840000; fill-opacity:0.0; 
stroke:#840000; stroke-width:0; stroke-opacity:1; 
stroke-linecap:round; stroke-linejoin:round;">
</g>
<g style="fill:#840000; fill-opacity:0.0; 
stroke:#840000; stroke-width:500; stroke-opacity:1; 
stroke-linecap:round; stroke-linejoin:round;">
<circle cx="17500" cy="61500" r="500" /> 
</g>
<g style="fill:#840000; fill-opacity:0.0; 
stroke:#840000; stroke-width:60; stroke-opacity:1; 
stroke-linecap:round; stroke-linejoin:round;">
<path d="M17500 61000
L17500 60000
" />
</g>
<g style="fill:#008484; fill-opacity:0.0; 
stroke:#008484; stroke-width:60; stroke-opacity:1; 
stroke-linecap:round; stroke-linejoin:round;">
<text x="15970" y="61710"
textLength="1060" font-size="660" lengthAdjust="spacingAndGlyphs"
text-anchor="middle" opacity="0">H2</text>
<path d="M15580 61680
L15580 61180
" />
<path d="M15580 61420
L15870 61420
" />
<path d="M15870 61680
L15870 61180
" />
<path d="M16080 61230
L16110 61210
L16160 61180
L16270 61180
L16320 61210
L16350 61230
L16370 61280
L16370 61320
L16350 61400
L16060 61680
L16370 61680
" />
<text x="13060" y="60800"
textLength="6870" font-size="660" lengthAdjust="spacingAndGlyphs"
text-anchor="middle" opacity="0">MountingHole_Pad</text>
<path d="M9770 60770
L9770 60270
L9940 60630
L10100 60270
L10100 60770
" />
<path d="M10410 60770
L10360 60750
L10340 60720
L10320 60680
L10320 60530
L10340 60490
L10360 60460
L10410 60440
L10480 60440
L10530 60460
L10560 60490
L10580 60530
L10580 60680
L10560 60720
L10530 60750
L10480 60770
L10410 60770
" />
<path d="M11010 60440
L11010 60770
" />
<path d="M10790 60440
L10790 60700
L10820 60750
L10860 60770
L10940 60770
L10980 60750
L11010 60720
" />
<path d="M11250 60440
L11250 60770
" />
<path d="M11250 60490
L11270 60460
L11320 60440
L11390 60440
L11440 60460
L11460 60510
L11460 60770
" />
<path d="M11630 60440
L11820 60440
" />
<path d="M11700 60270
L11700 60700
L11720 60750
L11770 60770
L11820 60770
" />
<path d="M11980 60770
L11980 60440
" />
<path d="M11980 60270
L11960 60300
L11980 60320
L12010 60300
L11980 60270
L11980 60320
" />
<path d="M12220 60440
L12220 60770
" />
<path d="M12220 60490
L12250 60460
L12290 60440
L12360 60440
L12410 60460
L12440 60510
L12440 60770
" />
<path d="M12890 60440
L12890 60840
L12860 60890
L12840 60910
L12790 60940
L12720 60940
L12670 60910
" />
<path d="M12890 60750
L12840 60770
L12750 60770
L12700 60750
L12670 60720
L12650 60680
L12650 60530
L12670 60490
L12700 60460
L12750 60440
L12840 60440
L12890 60460
" />
<path d="M13130 60770
L13130 60270
" />
<path d="M13130 60510
L13410 60510
" />
<path d="M13410 60770
L13410 60270
" />
<path d="M13720 60770
L13670 60750
L13650 60720
L13630 60680
L13630 60530
L13650 60490
L13670 60460
L13720 60440
L13790 60440
L13840 60460
L13860 60490
L13890 60530
L13890 60680
L13860 60720
L13840 60750
L13790 60770
L13720 60770
" />
<path d="M14170 60770
L14130 60750
L14100 60700
L14100 60270
" />
<path d="M14560 60750
L14510 60770
L14410 60770
L14360 60750
L14340 60700
L14340 60510
L14360 60460
L14410 60440
L14510 60440
L14560 60460
L14580 60510
L14580 60560
L14340 60600
" />
<path d="M14670 60820
L15060 60820
" />
<path d="M15170 60770
L15170 60270
L15360 60270
L15410 60300
L15440 60320
L15460 60370
L15460 60440
L15440 60490
L15410 60510
L15360 60530
L15170 60530
" />
<path d="M15890 60770
L15890 60510
L15860 60460
L15820 60440
L15720 60440
L15670 60460
" />
<path d="M15890 60750
L15840 60770
L15720 60770
L15670 60750
L15650 60700
L15650 60650
L15670 60600
L15720 60580
L15840 60580
L15890 60560
" />
<path d="M16340 60770
L16340 60270
" />
<path d="M16340 60750
L16290 60770
L16200 60770
L16150 60750
L16130 60720
L16100 60680
L16100 60530
L16130 60490
L16150 60460
L16200 60440
L16290 60440
L16340 60460
" />
</g>
</g>
<g style="fill:#008484; fill-opacity:0.0; 
stroke:#008484; stroke-width:0; stroke-opacity:1; 
stroke-linecap:round; stroke-linejoin:round;">
<g >
</g>
<g style="fill:#840000; fill-opacity:0.0; 
stroke:#840000; stroke-width:0; stroke-opacity:1; 
stroke-linecap:round; stroke-linejoin:round;">
</g>
<g style="fill:#840000; fill-opacity:0.0; 
stroke:#840000; stroke-width:200; stroke-opacity:1; 
stroke-linecap:round; stroke-linejoin:round;">
<path style="fill:#840000; fill-opacity:0.0; 
stroke:#840000; stroke-width:200; stroke-opacity:1; 
stroke-linecap:round; stroke-linejoin:round;fill:none"
d="M 36700,40700
36700,42300
" /> 
<path style="fill:#840000; fill-opacity:0.0; 
stroke:#840000; stroke-width:200; stroke-opacity:1; 
stroke-linecap:round; stroke-linejoin:round;fill:none"
d="M 37300,40700
37300,42300
" /> 
</g>
<g style="fill:#840000; fill-opacity:0.0; 
stroke:#840000; stroke-width:60; stroke-opacity:1; 
stroke-linecap:round; stroke-linejoin:round;">
<path d="M37400 41500
L38500 41500
" />
<path d="M36600 41500
L35500 41500
" />
</g>
<g style="fill:#008484; fill-opacity:0.0; 
stroke:#008484; stroke-width:60; stroke-opacity:1; 
stroke-linecap:round; stroke-linejoin:round;">
<text x="37000" y="39250"
textLength="1040" font-size="660" lengthAdjust="spacingAndGlyphs"
text-anchor="middle" opacity="0">C4</text>
<path d="M36910 39170
L36890 39200
L36820 39220
L36770 39220
L36700 39200
L36650 39150
L36630 39100
L36600 39010
L36600 38940
L36630 38840
L36650 38790
L36700 38750
L36770 38720
L36820 38720
L36890 38750
L36910 38770
" />
<path d="M37340 38890
L37340 39220
" />
<path d="M37220 38700
L37100 39050
L37410 39050
" />
<text x="37000" y="40160"
textLength="11010" font-size="660" lengthAdjust="spacingAndGlyphs"
text-anchor="middle" opacity="0">CER 1000PF 1KV X7R 1808 </text>
<path d="M31920 40080
L31900 40110
L31830 40130
L31780 40130
L31710 40110
L31660 40060
L31640 40010
L31610 39920
L31610 39850
L31640 39750
L31660 39700
L31710 39660
L31780 39630
L31830 39630
L31900 39660
L31920 39680
" />
<path d="M32140 39870
L32300 39870
" />
<path d="M32380 40130
L32140 40130
L32140 39630
L32380 39630
" />
<path d="M32880 40130
L32710 39890
" />
<path d="M32590 40130
L32590 39630
L32780 39630
L32830 39660
L32850 39680
L32880 39730
L32880 39800
L32850 39850
L32830 39870
L32780 39890
L32590 39890
" />
<path d="M33730 40130
L33450 40130
" />
<path d="M33590 40130
L33590 39630
L33540 39700
L33500 39750
L33450 39770
" />
<path d="M34040 39630
L34090 39630
L34140 39660
L34160 39680
L34190 39730
L34210 39820
L34210 39940
L34190 40040
L34160 40080
L34140 40110
L34090 40130
L34040 40130
L34000 40110
L33970 40080
L33950 40040
L33920 39940
L33920 39820
L33950 39730
L33970 39680
L34000 39660
L34040 39630
" />
<path d="M34520 39630
L34570 39630
L34610 39660
L34640 39680
L34660 39730
L34690 39820
L34690 39940
L34660 40040
L34640 40080
L34610 40110
L34570 40130
L34520 40130
L34470 40110
L34450 40080
L34420 40040
L34400 39940
L34400 39820
L34420 39730
L34450 39680
L34470 39660
L34520 39630
" />
<path d="M35000 39630
L35040 39630
L35090 39660
L35110 39680
L35140 39730
L35160 39820
L35160 39940
L35140 40040
L35110 40080
L35090 40110
L35040 40130
L35000 40130
L34950 40110
L34920 40080
L34900 40040
L34880 39940
L34880 39820
L34900 39730
L34920 39680
L34950 39660
L35000 39630
" />
<path d="M35380 40130
L35380 39630
L35570 39630
L35610 39660
L35640 39680
L35660 39730
L35660 39800
L35640 39850
L35610 39870
L35570 39890
L35380 39890
" />
<path d="M36040 39870
L35880 39870
" />
<path d="M35880 40130
L35880 39630
L36110 39630
" />
<path d="M36950 40130
L36660 40130
" />
<path d="M36800 40130
L36800 39630
L36760 39700
L36710 39750
L36660 39770
" />
<path d="M37160 40130
L37160 39630
" />
<path d="M37450 40130
L37230 39850
" />
<path d="M37450 39630
L37160 39920
" />
<path d="M37590 39630
L37760 40130
L37920 39630
" />
<path d="M38420 39630
L38760 40130
" />
<path d="M38760 39630
L38420 40130
" />
<path d="M38900 39630
L39230 39630
L39020 40130
" />
<path d="M39710 40130
L39540 39890
" />
<path d="M39420 40130
L39420 39630
L39610 39630
L39660 39660
L39690 39680
L39710 39730
L39710 39800
L39690 39850
L39660 39870
L39610 39890
L39420 39890
" />
<path d="M40570 40130
L40280 40130
" />
<path d="M40420 40130
L40420 39630
L40380 39700
L40330 39750
L40280 39770
" />
<path d="M40850 39850
L40800 39820
L40780 39800
L40760 39750
L40760 39730
L40780 39680
L40800 39660
L40850 39630
L40950 39630
L41000 39660
L41020 39680
L41040 39730
L41040 39750
L41020 39800
L41000 39820
L40950 39850
L40850 39850
L40800 39870
L40780 39890
L40760 39940
L40760 40040
L40780 40080
L40800 40110
L40850 40130
L40950 40130
L41000 40110
L41020 40080
L41040 40040
L41040 39940
L41020 39890
L41000 39870
L40950 39850
" />
<path d="M41350 39630
L41400 39630
L41450 39660
L41470 39680
L41500 39730
L41520 39820
L41520 39940
L41500 40040
L41470 40080
L41450 40110
L41400 40130
L41350 40130
L41300 40110
L41280 40080
L41260 40040
L41230 39940
L41230 39820
L41260 39730
L41280 39680
L41300 39660
L41350 39630
" />
<path d="M41800 39850
L41760 39820
L41730 39800
L41710 39750
L41710 39730
L41730 39680
L41760 39660
L41800 39630
L41900 39630
L41950 39660
L41970 39680
L42000 39730
L42000 39750
L41970 39800
L41950 39820
L41900 39850
L41800 39850
L41760 39870
L41730 39890
L41710 39940
L41710 40040
L41730 40080
L41760 40110
L41800 40130
L41900 40130
L41950 40110
L41970 40080
L42000 40040
L42000 39940
L41970 39890
L41950 39870
L41900 39850
" />
</g>
</g>
<g style="fill:#008484; fill-opacity:0.0; 
stroke:#008484; stroke-width:0; stroke-opacity:1; 
stroke-linecap:round; stroke-linejoin:round;">
<g >
</g>
<g style="fill:#840000; fill-opacity:0.0; 
stroke:#840000; stroke-width:0; stroke-opacity:1; 
stroke-linecap:round; stroke-linejoin:round;">
</g>
<g style="fill:#840000; fill-opacity:0.0; 
stroke:#840000; stroke-width:200; stroke-opacity:1; 
stroke-linecap:round; stroke-linejoin:round;">
<path style="fill:#840000; fill-opacity:0.0; 
stroke:#840000; stroke-width:200; stroke-opacity:1; 
stroke-linecap:round; stroke-linejoin:round;fill:none"
d="M 36700,36200
36700,37800
" /> 
<path style="fill:#840000; fill-opacity:0.0; 
stroke:#840000; stroke-width:200; stroke-opacity:1; 
stroke-linecap:round; stroke-linejoin:round;fill:none"
d="M 37300,36200
37300,37800
" /> 
</g>
<g style="fill:#840000; fill-opacity:0.0; 
stroke:#840000; stroke-width:60; stroke-opacity:1; 
stroke-linecap:round; stroke-linejoin:round;">
<path d="M37400 37000
L38500 37000
" />
<path d="M36600 37000
L35500 37000
" />
</g>
<g style="fill:#008484; fill-opacity:0.0; 
stroke:#008484; stroke-width:60; stroke-opacity:1; 
stroke-linecap:round; stroke-linejoin:round;">
<text x="37000" y="34750"
textLength="1040" font-size="660" lengthAdjust="spacingAndGlyphs"
text-anchor="middle" opacity="0">C3</text>
<path d="M36910 34670
L36890 34700
L36820 34720
L36770 34720
L36700 34700
L36650 34650
L36630 34600
L36600 34510
L36600 34440
L36630 34340
L36650 34290
L36700 34250
L36770 34220
L36820 34220
L36890 34250
L36910 34270
" />
<path d="M37080 34220
L37390 34220
L37220 34410
L37290 34410
L37340 34440
L37360 34460
L37390 34510
L37390 34630
L37360 34670
L37340 34700
L37290 34720
L37150 34720
L37100 34700
L37080 34670
" />
<text x="37000" y="35660"
textLength="12580" font-size="660" lengthAdjust="spacingAndGlyphs"
text-anchor="middle" opacity="0">CER 100PF 1KV C0G/NP0 1206 </text>
<path d="M31140 35580
L31110 35610
L31040 35630
L31000 35630
L30920 35610
L30880 35560
L30850 35510
L30830 35420
L30830 35350
L30850 35250
L30880 35200
L30920 35160
L31000 35130
L31040 35130
L31110 35160
L31140 35180
" />
<path d="M31350 35370
L31520 35370
" />
<path d="M31590 35630
L31350 35630
L31350 35130
L31590 35130
" />
<path d="M32090 35630
L31920 35390
" />
<path d="M31800 35630
L31800 35130
L32000 35130
L32040 35160
L32070 35180
L32090 35230
L32090 35300
L32070 35350
L32040 35370
L32000 35390
L31800 35390
" />
<path d="M32950 35630
L32660 35630
" />
<path d="M32800 35630
L32800 35130
L32760 35200
L32710 35250
L32660 35270
" />
<path d="M33260 35130
L33300 35130
L33350 35160
L33380 35180
L33400 35230
L33420 35320
L33420 35440
L33400 35540
L33380 35580
L33350 35610
L33300 35630
L33260 35630
L33210 35610
L33190 35580
L33160 35540
L33140 35440
L33140 35320
L33160 35230
L33190 35180
L33210 35160
L33260 35130
" />
<path d="M33730 35130
L33780 35130
L33830 35160
L33850 35180
L33880 35230
L33900 35320
L33900 35440
L33880 35540
L33850 35580
L33830 35610
L33780 35630
L33730 35630
L33690 35610
L33660 35580
L33640 35540
L33610 35440
L33610 35320
L33640 35230
L33660 35180
L33690 35160
L33730 35130
" />
<path d="M34110 35630
L34110 35130
L34300 35130
L34350 35160
L34380 35180
L34400 35230
L34400 35300
L34380 35350
L34350 35370
L34300 35390
L34110 35390
" />
<path d="M34780 35370
L34610 35370
" />
<path d="M34610 35630
L34610 35130
L34850 35130
" />
<path d="M35690 35630
L35400 35630
" />
<path d="M35540 35630
L35540 35130
L35500 35200
L35450 35250
L35400 35270
" />
<path d="M35900 35630
L35900 35130
" />
<path d="M36190 35630
L35970 35350
" />
<path d="M36190 35130
L35900 35420
" />
<path d="M36330 35130
L36500 35630
L36660 35130
" />
<path d="M37500 35580
L37470 35610
L37400 35630
L37350 35630
L37280 35610
L37230 35560
L37210 35510
L37190 35420
L37190 35350
L37210 35250
L37230 35200
L37280 35160
L37350 35130
L37400 35130
L37470 35160
L37500 35180
" />
<path d="M37800 35130
L37850 35130
L37900 35160
L37920 35180
L37950 35230
L37970 35320
L37970 35440
L37950 35540
L37920 35580
L37900 35610
L37850 35630
L37800 35630
L37760 35610
L37730 35580
L37710 35540
L37690 35440
L37690 35320
L37710 35230
L37730 35180
L37760 35160
L37800 35130
" />
<path d="M38450 35160
L38400 35130
L38330 35130
L38260 35160
L38210 35200
L38190 35250
L38160 35350
L38160 35420
L38190 35510
L38210 35560
L38260 35610
L38330 35630
L38380 35630
L38450 35610
L38470 35580
L38470 35420
L38380 35420
" />
<path d="M39040 35110
L38610 35750
" />
<path d="M39210 35630
L39210 35130
L39500 35630
L39500 35130
" />
<path d="M39730 35630
L39730 35130
L39920 35130
L39970 35160
L40000 35180
L40020 35230
L40020 35300
L40000 35350
L39970 35370
L39920 35390
L39730 35390
" />
<path d="M40330 35130
L40380 35130
L40420 35160
L40450 35180
L40470 35230
L40500 35320
L40500 35440
L40470 35540
L40450 35580
L40420 35610
L40380 35630
L40330 35630
L40280 35610
L40260 35580
L40230 35540
L40210 35440
L40210 35320
L40230 35230
L40260 35180
L40280 35160
L40330 35130
" />
<path d="M41350 35630
L41070 35630
" />
<path d="M41210 35630
L41210 35130
L41160 35200
L41110 35250
L41070 35270
" />
<path d="M41540 35180
L41570 35160
L41610 35130
L41730 35130
L41780 35160
L41800 35180
L41830 35230
L41830 35270
L41800 35350
L41520 35630
L41830 35630
" />
<path d="M42140 35130
L42190 35130
L42230 35160
L42260 35180
L42280 35230
L42300 35320
L42300 35440
L42280 35540
L42260 35580
L42230 35610
L42190 35630
L42140 35630
L42090 35610
L42070 35580
L42040 35540
L42020 35440
L42020 35320
L42040 35230
L42070 35180
L42090 35160
L42140 35130
" />
<path d="M42730 35130
L42640 35130
L42590 35160
L42570 35180
L42520 35250
L42500 35350
L42500 35540
L42520 35580
L42540 35610
L42590 35630
L42690 35630
L42730 35610
L42760 35580
L42780 35540
L42780 35420
L42760 35370
L42730 35350
L42690 35320
L42590 35320
L42540 35350
L42520 35370
L42500 35420
" />
</g>
<g style="fill:#840084; fill-opacity:0.0; 
stroke:#840084; stroke-width:60; stroke-opacity:1; 
stroke-linecap:round; stroke-linejoin:round;">
<text x="31500" y="37270"
textLength="7990" font-size="660" lengthAdjust="spacingAndGlyphs"
text-anchor="middle" opacity="0">C1206C101JDGACTU </text>
<path d="M27940 37190
L27910 37220
L27840 37240
L27790 37240
L27720 37220
L27670 37170
L27650 37120
L27630 37030
L27630 36960
L27650 36860
L27670 36810
L27720 36770
L27790 36740
L27840 36740
L27910 36770
L27940 36790
" />
<path d="M28410 37240
L28130 37240
" />
<path d="M28270 37240
L28270 36740
L28220 36810
L28170 36860
L28130 36880
" />
<path d="M28600 36790
L28630 36770
L28670 36740
L28790 36740
L28840 36770
L28860 36790
L28890 36840
L28890 36880
L28860 36960
L28580 37240
L28890 37240
" />
<path d="M29200 36740
L29250 36740
L29290 36770
L29320 36790
L29340 36840
L29360 36930
L29360 37050
L29340 37150
L29320 37190
L29290 37220
L29250 37240
L29200 37240
L29150 37220
L29130 37190
L29100 37150
L29080 37050
L29080 36930
L29100 36840
L29130 36790
L29150 36770
L29200 36740
" />
<path d="M29790 36740
L29700 36740
L29650 36770
L29630 36790
L29580 36860
L29550 36960
L29550 37150
L29580 37190
L29600 37220
L29650 37240
L29750 37240
L29790 37220
L29820 37190
L29840 37150
L29840 37030
L29820 36980
L29790 36960
L29750 36930
L29650 36930
L29600 36960
L29580 36980
L29550 37030
" />
<path d="M30340 37190
L30320 37220
L30250 37240
L30200 37240
L30130 37220
L30080 37170
L30050 37120
L30030 37030
L30030 36960
L30050 36860
L30080 36810
L30130 36770
L30200 36740
L30250 36740
L30320 36770
L30340 36790
" />
<path d="M30820 37240
L30530 37240
" />
<path d="M30670 37240
L30670 36740
L30630 36810
L30580 36860
L30530 36880
" />
<path d="M31130 36740
L31170 36740
L31220 36770
L31250 36790
L31270 36840
L31290 36930
L31290 37050
L31270 37150
L31250 37190
L31220 37220
L31170 37240
L31130 37240
L31080 37220
L31050 37190
L31030 37150
L31010 37050
L31010 36930
L31030 36840
L31050 36790
L31080 36770
L31130 36740
" />
<path d="M31770 37240
L31480 37240
" />
<path d="M31630 37240
L31630 36740
L31580 36810
L31530 36860
L31480 36880
" />
<path d="M32130 36740
L32130 37100
L32100 37170
L32050 37220
L31980 37240
L31940 37240
" />
<path d="M32360 37240
L32360 36740
L32480 36740
L32550 36770
L32600 36810
L32630 36860
L32650 36960
L32650 37030
L32630 37120
L32600 37170
L32550 37220
L32480 37240
L32360 37240
" />
<path d="M33130 36770
L33080 36740
L33010 36740
L32940 36770
L32890 36810
L32860 36860
L32840 36960
L32840 37030
L32860 37120
L32890 37170
L32940 37220
L33010 37240
L33050 37240
L33130 37220
L33150 37190
L33150 37030
L33050 37030
" />
<path d="M33340 37100
L33580 37100
" />
<path d="M33290 37240
L33460 36740
L33630 37240
" />
<path d="M34080 37190
L34050 37220
L33980 37240
L33940 37240
L33860 37220
L33820 37170
L33790 37120
L33770 37030
L33770 36960
L33790 36860
L33820 36810
L33860 36770
L33940 36740
L33980 36740
L34050 36770
L34080 36790
" />
<path d="M34220 36740
L34510 36740
" />
<path d="M34360 37240
L34360 36740
" />
<path d="M34670 36740
L34670 37150
L34700 37190
L34720 37220
L34770 37240
L34860 37240
L34910 37220
L34940 37190
L34960 37150
L34960 36740
" />
</g>
</g>
<g style="fill:#840084; fill-opacity:0.0; 
stroke:#840084; stroke-width:0; stroke-opacity:1; 
stroke-linecap:round; stroke-linejoin:round;">
<g >
</g>
<g style="fill:#840000; fill-opacity:0.0; 
stroke:#840000; stroke-width:0; stroke-opacity:1; 
stroke-linecap:round; stroke-linejoin:round;">
</g>
<g style="fill:#840000; fill-opacity:0.0; 
stroke:#840000; stroke-width:200; stroke-opacity:1; 
stroke-linecap:round; stroke-linejoin:round;">
<path style="fill:#840000; fill-opacity:0.0; 
stroke:#840000; stroke-width:200; stroke-opacity:1; 
stroke-linecap:round; stroke-linejoin:round;fill:none"
d="M 36700,32200
36700,33800
" /> 
<path style="fill:#840000; fill-opacity:0.0; 
stroke:#840000; stroke-width:200; stroke-opacity:1; 
stroke-linecap:round; stroke-linejoin:round;fill:none"
d="M 37300,32200
37300,33800
" /> 
</g>
<g style="fill:#840000; fill-opacity:0.0; 
stroke:#840000; stroke-width:60; stroke-opacity:1; 
stroke-linecap:round; stroke-linejoin:round;">
<path d="M37400 33000
L38500 33000
" />
<path d="M36600 33000
L35500 33000
" />
</g>
<g style="fill:#008484; fill-opacity:0.0; 
stroke:#008484; stroke-width:60; stroke-opacity:1; 
stroke-linecap:round; stroke-linejoin:round;">
<text x="37000" y="30750"
textLength="1040" font-size="660" lengthAdjust="spacingAndGlyphs"
text-anchor="middle" opacity="0">C2</text>
<path d="M36910 30670
L36890 30700
L36820 30720
L36770 30720
L36700 30700
L36650 30650
L36630 30600
L36600 30510
L36600 30440
L36630 30340
L36650 30290
L36700 30250
L36770 30220
L36820 30220
L36890 30250
L36910 30270
" />
<path d="M37100 30270
L37130 30250
L37170 30220
L37290 30220
L37340 30250
L37360 30270
L37390 30320
L37390 30360
L37360 30440
L37080 30720
L37390 30720
" />
<text x="37000" y="31660"
textLength="12420" font-size="660" lengthAdjust="spacingAndGlyphs"
text-anchor="middle" opacity="0">CER 10000PF 1000V X7R 1206 </text>
<path d="M31220 31580
L31200 31610
L31130 31630
L31080 31630
L31010 31610
L30960 31560
L30940 31510
L30910 31420
L30910 31350
L30940 31250
L30960 31200
L31010 31160
L31080 31130
L31130 31130
L31200 31160
L31220 31180
" />
<path d="M31440 31370
L31600 31370
" />
<path d="M31670 31630
L31440 31630
L31440 31130
L31670 31130
" />
<path d="M32170 31630
L32010 31390
" />
<path d="M31890 31630
L31890 31130
L32080 31130
L32130 31160
L32150 31180
L32170 31230
L32170 31300
L32150 31350
L32130 31370
L32080 31390
L31890 31390
" />
<path d="M33030 31630
L32740 31630
" />
<path d="M32890 31630
L32890 31130
L32840 31200
L32790 31250
L32740 31270
" />
<path d="M33340 31130
L33390 31130
L33440 31160
L33460 31180
L33480 31230
L33510 31320
L33510 31440
L33480 31540
L33460 31580
L33440 31610
L33390 31630
L33340 31630
L33290 31610
L33270 31580
L33240 31540
L33220 31440
L33220 31320
L33240 31230
L33270 31180
L33290 31160
L33340 31130
" />
<path d="M33820 31130
L33860 31130
L33910 31160
L33940 31180
L33960 31230
L33980 31320
L33980 31440
L33960 31540
L33940 31580
L33910 31610
L33860 31630
L33820 31630
L33770 31610
L33740 31580
L33720 31540
L33700 31440
L33700 31320
L33720 31230
L33740 31180
L33770 31160
L33820 31130
" />
<path d="M34290 31130
L34340 31130
L34390 31160
L34410 31180
L34440 31230
L34460 31320
L34460 31440
L34440 31540
L34410 31580
L34390 31610
L34340 31630
L34290 31630
L34240 31610
L34220 31580
L34200 31540
L34170 31440
L34170 31320
L34200 31230
L34220 31180
L34240 31160
L34290 31130
" />
<path d="M34770 31130
L34820 31130
L34860 31160
L34890 31180
L34910 31230
L34940 31320
L34940 31440
L34910 31540
L34890 31580
L34860 31610
L34820 31630
L34770 31630
L34720 31610
L34700 31580
L34670 31540
L34650 31440
L34650 31320
L34670 31230
L34700 31180
L34720 31160
L34770 31130
" />
<path d="M35150 31630
L35150 31130
L35340 31130
L35390 31160
L35410 31180
L35440 31230
L35440 31300
L35410 31350
L35390 31370
L35340 31390
L35150 31390
" />
<path d="M35820 31370
L35650 31370
" />
<path d="M35650 31630
L35650 31130
L35890 31130
" />
<path d="M36720 31630
L36440 31630
" />
<path d="M36580 31630
L36580 31130
L36530 31200
L36480 31250
L36440 31270
" />
<path d="M37030 31130
L37080 31130
L37130 31160
L37150 31180
L37170 31230
L37200 31320
L37200 31440
L37170 31540
L37150 31580
L37130 31610
L37080 31630
L37030 31630
L36980 31610
L36960 31580
L36940 31540
L36910 31440
L36910 31320
L36940 31230
L36960 31180
L36980 31160
L37030 31130
" />
<path d="M37510 31130
L37550 31130
L37600 31160
L37630 31180
L37650 31230
L37670 31320
L37670 31440
L37650 31540
L37630 31580
L37600 31610
L37550 31630
L37510 31630
L37460 31610
L37440 31580
L37410 31540
L37390 31440
L37390 31320
L37410 31230
L37440 31180
L37460 31160
L37510 31130
" />
<path d="M37980 31130
L38030 31130
L38080 31160
L38100 31180
L38130 31230
L38150 31320
L38150 31440
L38130 31540
L38100 31580
L38080 31610
L38030 31630
L37980 31630
L37940 31610
L37910 31580
L37890 31540
L37860 31440
L37860 31320
L37890 31230
L37910 31180
L37940 31160
L37980 31130
" />
<path d="M38290 31130
L38460 31630
L38630 31130
" />
<path d="M39130 31130
L39460 31630
" />
<path d="M39460 31130
L39130 31630
" />
<path d="M39600 31130
L39940 31130
L39720 31630
" />
<path d="M40410 31630
L40240 31390
" />
<path d="M40130 31630
L40130 31130
L40320 31130
L40360 31160
L40390 31180
L40410 31230
L40410 31300
L40390 31350
L40360 31370
L40320 31390
L40130 31390
" />
<path d="M41270 31630
L40980 31630
" />
<path d="M41130 31630
L41130 31130
L41080 31200
L41030 31250
L40980 31270
" />
<path d="M41460 31180
L41480 31160
L41530 31130
L41650 31130
L41700 31160
L41720 31180
L41750 31230
L41750 31270
L41720 31350
L41440 31630
L41750 31630
" />
<path d="M42050 31130
L42100 31130
L42150 31160
L42170 31180
L42200 31230
L42220 31320
L42220 31440
L42200 31540
L42170 31580
L42150 31610
L42100 31630
L42050 31630
L42010 31610
L41980 31580
L41960 31540
L41940 31440
L41940 31320
L41960 31230
L41980 31180
L42010 31160
L42050 31130
" />
<path d="M42650 31130
L42550 31130
L42510 31160
L42480 31180
L42440 31250
L42410 31350
L42410 31540
L42440 31580
L42460 31610
L42510 31630
L42600 31630
L42650 31610
L42670 31580
L42700 31540
L42700 31420
L42670 31370
L42650 31350
L42600 31320
L42510 31320
L42460 31350
L42440 31370
L42410 31420
" />
</g>
<g style="fill:#840084; fill-opacity:0.0; 
stroke:#840084; stroke-width:60; stroke-opacity:1; 
stroke-linecap:round; stroke-linejoin:round;">
<text x="33500" y="32770"
textLength="6540" font-size="660" lengthAdjust="spacingAndGlyphs"
text-anchor="middle" opacity="0"> 885342208021 </text>
<path d="M30830 32460
L30780 32430
L30760 32410
L30730 32360
L30730 32340
L30760 32290
L30780 32270
L30830 32240
L30920 32240
L30970 32270
L31000 32290
L31020 32340
L31020 32360
L31000 32410
L30970 32430
L30920 32460
L30830 32460
L30780 32480
L30760 32500
L30730 32550
L30730 32650
L30760 32690
L30780 32720
L30830 32740
L30920 32740
L30970 32720
L31000 32690
L31020 32650
L31020 32550
L31000 32500
L30970 32480
L30920 32460
" />
<path d="M31300 32460
L31260 32430
L31230 32410
L31210 32360
L31210 32340
L31230 32290
L31260 32270
L31300 32240
L31400 32240
L31450 32270
L31470 32290
L31500 32340
L31500 32360
L31470 32410
L31450 32430
L31400 32460
L31300 32460
L31260 32480
L31230 32500
L31210 32550
L31210 32650
L31230 32690
L31260 32720
L31300 32740
L31400 32740
L31450 32720
L31470 32690
L31500 32650
L31500 32550
L31470 32500
L31450 32480
L31400 32460
" />
<path d="M31950 32240
L31710 32240
L31690 32480
L31710 32460
L31760 32430
L31880 32430
L31920 32460
L31950 32480
L31970 32530
L31970 32650
L31950 32690
L31920 32720
L31880 32740
L31760 32740
L31710 32720
L31690 32690
" />
<path d="M32140 32240
L32450 32240
L32280 32430
L32350 32430
L32400 32460
L32420 32480
L32450 32530
L32450 32650
L32420 32690
L32400 32720
L32350 32740
L32210 32740
L32160 32720
L32140 32690
" />
<path d="M32880 32410
L32880 32740
" />
<path d="M32760 32220
L32640 32570
L32950 32570
" />
<path d="M33110 32290
L33140 32270
L33190 32240
L33300 32240
L33350 32270
L33380 32290
L33400 32340
L33400 32380
L33380 32460
L33090 32740
L33400 32740
" />
<path d="M33590 32290
L33610 32270
L33660 32240
L33780 32240
L33830 32270
L33850 32290
L33880 32340
L33880 32380
L33850 32460
L33570 32740
L33880 32740
" />
<path d="M34190 32240
L34230 32240
L34280 32270
L34300 32290
L34330 32340
L34350 32430
L34350 32550
L34330 32650
L34300 32690
L34280 32720
L34230 32740
L34190 32740
L34140 32720
L34110 32690
L34090 32650
L34070 32550
L34070 32430
L34090 32340
L34110 32290
L34140 32270
L34190 32240
" />
<path d="M34640 32460
L34590 32430
L34570 32410
L34540 32360
L34540 32340
L34570 32290
L34590 32270
L34640 32240
L34730 32240
L34780 32270
L34800 32290
L34830 32340
L34830 32360
L34800 32410
L34780 32430
L34730 32460
L34640 32460
L34590 32480
L34570 32500
L34540 32550
L34540 32650
L34570 32690
L34590 32720
L34640 32740
L34730 32740
L34780 32720
L34800 32690
L34830 32650
L34830 32550
L34800 32500
L34780 32480
L34730 32460
" />
<path d="M35140 32240
L35190 32240
L35230 32270
L35260 32290
L35280 32340
L35300 32430
L35300 32550
L35280 32650
L35260 32690
L35230 32720
L35190 32740
L35140 32740
L35090 32720
L35070 32690
L35040 32650
L35020 32550
L35020 32430
L35040 32340
L35070 32290
L35090 32270
L35140 32240
" />
<path d="M35500 32290
L35520 32270
L35570 32240
L35690 32240
L35730 32270
L35760 32290
L35780 32340
L35780 32380
L35760 32460
L35470 32740
L35780 32740
" />
<path d="M36260 32740
L35970 32740
" />
<path d="M36110 32740
L36110 32240
L36070 32310
L36020 32360
L35970 32380
" />
</g>
</g>
<g style="fill:#840084; fill-opacity:0.0; 
stroke:#840084; stroke-width:0; stroke-opacity:1; 
stroke-linecap:round; stroke-linejoin:round;">
<g >
</g>
<g style="fill:#840000; fill-opacity:0.0; 
stroke:#840000; stroke-width:0; stroke-opacity:1; 
stroke-linecap:round; stroke-linejoin:round;">
</g>
<g style="fill:#840000; fill-opacity:0.0; 
stroke:#840000; stroke-width:100; stroke-opacity:1; 
stroke-linecap:round; stroke-linejoin:round;">
<path style="fill:#840000; fill-opacity:0.0; 
stroke:#840000; stroke-width:100; stroke-opacity:1; 
stroke-linecap:round; stroke-linejoin:round;fill:none"
d="M 36000,50500
36000,49500
" /> 
</g>
<g style="fill:#840000; fill-opacity:0.0; 
stroke:#840000; stroke-width:60; stroke-opacity:1; 
stroke-linecap:round; stroke-linejoin:round;">
<path style="fill:#840000; fill-opacity:0.0; 
stroke:#840000; stroke-width:60; stroke-opacity:1; 
stroke-linecap:round; stroke-linejoin:round;fill:none"
d="M 35000,50000
36000,50000
" /> 
</g>
<g style="fill:#840000; fill-opacity:0.0; 
stroke:#840000; stroke-width:100; stroke-opacity:1; 
stroke-linecap:round; stroke-linejoin:round;">
<path style="fill:#840000; fill-opacity:0.0; 
stroke:#840000; stroke-width:100; stroke-opacity:1; 
stroke-linecap:round; stroke-linejoin:round;fill:none"
d="M 35000,50500
35000,49500
36000,50000
Z" /> 
</g>
<g style="fill:#840000; fill-opacity:0.0; 
stroke:#840000; stroke-width:60; stroke-opacity:1; 
stroke-linecap:round; stroke-linejoin:round;">
<path d="M36000 50000
L37000 50000
" />
<path d="M35000 50000
L34000 50000
" />
</g>
<g style="fill:#008484; fill-opacity:0.0; 
stroke:#008484; stroke-width:60; stroke-opacity:1; 
stroke-linecap:round; stroke-linejoin:round;">
<text x="35500" y="48050"
textLength="1040" font-size="660" lengthAdjust="spacingAndGlyphs"
text-anchor="middle" opacity="0">D1</text>
<path d="M35130 48020
L35130 47520
L35250 47520
L35320 47550
L35360 47590
L35390 47640
L35410 47740
L35410 47810
L35390 47900
L35360 47950
L35320 48000
L35250 48020
L35130 48020
" />
<path d="M35890 48020
L35600 48020
" />
<path d="M35750 48020
L35750 47520
L35700 47590
L35650 47640
L35600 47660
" />
<text x="35500" y="48960"
textLength="5580" font-size="660" lengthAdjust="spacingAndGlyphs"
text-anchor="middle" opacity="0">RS1MB-13-F </text>
<path d="M33140 48930
L32970 48690
" />
<path d="M32850 48930
L32850 48430
L33040 48430
L33090 48460
L33110 48480
L33140 48530
L33140 48600
L33110 48650
L33090 48670
L33040 48690
L32850 48690
" />
<path d="M33330 48910
L33400 48930
L33520 48930
L33570 48910
L33590 48880
L33610 48840
L33610 48790
L33590 48740
L33570 48720
L33520 48690
L33420 48670
L33380 48650
L33350 48620
L33330 48570
L33330 48530
L33350 48480
L33380 48460
L33420 48430
L33540 48430
L33610 48460
" />
<path d="M34090 48930
L33800 48930
" />
<path d="M33950 48930
L33950 48430
L33900 48500
L33850 48550
L33800 48570
" />
<path d="M34300 48930
L34300 48430
L34470 48790
L34640 48430
L34640 48930
" />
<path d="M35040 48670
L35110 48690
L35140 48720
L35160 48760
L35160 48840
L35140 48880
L35110 48910
L35070 48930
L34880 48930
L34880 48430
L35040 48430
L35090 48460
L35110 48480
L35140 48530
L35140 48570
L35110 48620
L35090 48650
L35040 48670
L34880 48670
" />
<path d="M35380 48740
L35760 48740
" />
<path d="M36260 48930
L35970 48930
" />
<path d="M36110 48930
L36110 48430
L36070 48500
L36020 48550
L35970 48570
" />
<path d="M36420 48430
L36730 48430
L36570 48620
L36640 48620
L36690 48650
L36710 48670
L36730 48720
L36730 48840
L36710 48880
L36690 48910
L36640 48930
L36500 48930
L36450 48910
L36420 48880
" />
<path d="M36950 48740
L37330 48740
" />
<path d="M37730 48670
L37570 48670
" />
<path d="M37570 48930
L37570 48430
L37800 48430
" />
</g>
</g>
<g style="fill:#008484; fill-opacity:0.0; 
stroke:#008484; stroke-width:0; stroke-opacity:1; 
stroke-linecap:round; stroke-linejoin:round;">
<g >
</g>
<g style="fill:#840000; fill-opacity:0.0; 
stroke:#840000; stroke-width:0; stroke-opacity:1; 
stroke-linecap:round; stroke-linejoin:round;">
</g>
<g style="fill:#FFFFC2; fill-opacity:0.0; 
stroke:#FFFFC2; stroke-width:0; stroke-opacity:1; 
stroke-linecap:round; stroke-linejoin:round;">
</g>
<g style="fill:#FFFFC2; fill-opacity:0.6; 
stroke:#FFFFC2; stroke-width:0; stroke-opacity:1; 
stroke-linecap:round; stroke-linejoin:round;">
<rect x="32500" y="59500" width="2000" height="1000" rx="0" />
</g>
<g style="fill:#840000; fill-opacity:0.6; 
stroke:#840000; stroke-width:0; stroke-opacity:1; 
stroke-linecap:round; stroke-linejoin:round;">
</g>
<g style="fill:#840000; fill-opacity:0.0; 
stroke:#840000; stroke-width:100; stroke-opacity:1; 
stroke-linecap:round; stroke-linejoin:round;">
<rect x="32500" y="59500" width="2000" height="1000" rx="0" />
</g>
<g style="fill:#840000; fill-opacity:0.0; 
stroke:#840000; stroke-width:60; stroke-opacity:1; 
stroke-linecap:round; stroke-linejoin:round;">
<circle cx="33000" cy="60000" r="250" /> 
<circle cx="34000" cy="60000" r="250" /> 
</g>
<g style="fill:#840000; fill-opacity:0.0; 
stroke:#840000; stroke-width:100; stroke-opacity:1; 
stroke-linecap:round; stroke-linejoin:round;">
<rect x="32500" y="59500" width="2000" height="1000" rx="0" />
</g>
<g style="fill:#840000; fill-opacity:0.0; 
stroke:#840000; stroke-width:60; stroke-opacity:1; 
stroke-linecap:round; stroke-linejoin:round;">
<path style="fill:#840000; fill-opacity:0.0; 
stroke:#840000; stroke-width:60; stroke-opacity:1; 
stroke-linecap:round; stroke-linejoin:round;fill:none"
d="M 33130,59790
32800,60130
" /> 
<path style="fill:#840000; fill-opacity:0.0; 
stroke:#840000; stroke-width:60; stroke-opacity:1; 
stroke-linecap:round; stroke-linejoin:round;fill:none"
d="M 34130,59790
33800,60130
" /> 
<path style="fill:#840000; fill-opacity:0.0; 
stroke:#840000; stroke-width:60; stroke-opacity:1; 
stroke-linecap:round; stroke-linejoin:round;fill:none"
d="M 33200,59860
32870,60200
" /> 
<path style="fill:#840000; fill-opacity:0.0; 
stroke:#840000; stroke-width:60; stroke-opacity:1; 
stroke-linecap:round; stroke-linejoin:round;fill:none"
d="M 34200,59860
33870,60200
" /> 
<path d="M34000 59500
L34000 58000
" />
<g transform="rotate(-90 33900 58750)">
<text x="33900" y="58750"
textLength="540" font-size="660" lengthAdjust="spacingAndGlyphs"
text-anchor="middle" opacity="0">1</text>
</g>
<path d="M33870 58600
L33870 58890
" />
<path d="M33870 58750
L33370 58750
L33440 58790
L33490 58840
L33510 58890
" />
<path d="M33000 59500
L33000 58000
" />
<g transform="rotate(-90 32900 58750)">
<text x="32900" y="58750"
textLength="540" font-size="660" lengthAdjust="spacingAndGlyphs"
text-anchor="middle" opacity="0">2</text>
</g>
<path d="M32420 58890
L32400 58860
L32370 58820
L32370 58700
L32400 58650
L32420 58630
L32470 58600
L32510 58600
L32590 58630
L32870 58910
L32870 58600
" />
</g>
<g style="fill:#008484; fill-opacity:0.0; 
stroke:#008484; stroke-width:60; stroke-opacity:1; 
stroke-linecap:round; stroke-linejoin:round;">
<text x="35260" y="58990"
textLength="920" font-size="660" lengthAdjust="spacingAndGlyphs"
text-anchor="middle" opacity="0">J2</text>
<path d="M35090 58460
L35090 58820
L35060 58890
L35020 58940
L34950 58960
L34900 58960
" />
<path d="M35300 58510
L35330 58490
L35370 58460
L35490 58460
L35540 58490
L35560 58510
L35590 58560
L35590 58600
L35560 58680
L35280 58960
L35590 58960
" />
<text x="39040" y="59900"
textLength="8490" font-size="660" lengthAdjust="spacingAndGlyphs"
text-anchor="middle" opacity="0">Screw_Terminal_01x02</text>
<path d="M34920 59850
L34990 59870
L35110 59870
L35150 59850
L35180 59820
L35200 59780
L35200 59730
L35180 59680
L35150 59660
L35110 59630
L35010 59610
L34960 59590
L34940 59560
L34920 59510
L34920 59470
L34940 59420
L34960 59400
L35010 59370
L35130 59370
L35200 59400
" />
<path d="M35630 59850
L35580 59870
L35490 59870
L35440 59850
L35420 59820
L35390 59780
L35390 59630
L35420 59590
L35440 59560
L35490 59540
L35580 59540
L35630 59560
" />
<path d="M35840 59870
L35840 59540
" />
<path d="M35840 59630
L35870 59590
L35890 59560
L35940 59540
L35990 59540
" />
<path d="M36340 59850
L36300 59870
L36200 59870
L36150 59850
L36130 59800
L36130 59610
L36150 59560
L36200 59540
L36300 59540
L36340 59560
L36370 59610
L36370 59660
L36130 59700
" />
<path d="M36540 59540
L36630 59870
L36730 59630
L36820 59870
L36920 59540
" />
<path d="M36990 59920
L37370 59920
" />
<path d="M37420 59370
L37700 59370
" />
<path d="M37560 59870
L37560 59370
" />
<path d="M38060 59850
L38010 59870
L37920 59870
L37870 59850
L37840 59800
L37840 59610
L37870 59560
L37920 59540
L38010 59540
L38060 59560
L38080 59610
L38080 59660
L37840 59700
" />
<path d="M38300 59870
L38300 59540
" />
<path d="M38300 59630
L38320 59590
L38340 59560
L38390 59540
L38440 59540
" />
<path d="M38610 59870
L38610 59540
" />
<path d="M38610 59590
L38630 59560
L38680 59540
L38750 59540
L38800 59560
L38820 59610
L38820 59870
" />
<path d="M38820 59610
L38840 59560
L38890 59540
L38960 59540
L39010 59560
L39040 59610
L39040 59870
" />
<path d="M39270 59870
L39270 59540
" />
<path d="M39270 59370
L39250 59400
L39270 59420
L39300 59400
L39270 59370
L39270 59420
" />
<path d="M39510 59540
L39510 59870
" />
<path d="M39510 59590
L39540 59560
L39580 59540
L39650 59540
L39700 59560
L39730 59610
L39730 59870
" />
<path d="M40180 59870
L40180 59610
L40150 59560
L40110 59540
L40010 59540
L39960 59560
" />
<path d="M40180 59850
L40130 59870
L40010 59870
L39960 59850
L39940 59800
L39940 59750
L39960 59700
L40010 59680
L40130 59680
L40180 59660
" />
<path d="M40490 59870
L40440 59850
L40420 59800
L40420 59370
" />
<path d="M40560 59920
L40940 59920
" />
<path d="M41150 59370
L41200 59370
L41250 59400
L41270 59420
L41300 59470
L41320 59560
L41320 59680
L41300 59780
L41270 59820
L41250 59850
L41200 59870
L41150 59870
L41110 59850
L41080 59820
L41060 59780
L41040 59680
L41040 59560
L41060 59470
L41080 59420
L41110 59400
L41150 59370
" />
<path d="M41800 59870
L41510 59870
" />
<path d="M41650 59870
L41650 59370
L41610 59440
L41560 59490
L41510 59510
" />
<path d="M41960 59870
L42230 59540
" />
<path d="M41960 59540
L42230 59870
" />
<path d="M42510 59370
L42560 59370
L42610 59400
L42630 59420
L42650 59470
L42680 59560
L42680 59680
L42650 59780
L42630 59820
L42610 59850
L42560 59870
L42510 59870
L42460 59850
L42440 59820
L42420 59780
L42390 59680
L42390 59560
L42420 59470
L42440 59420
L42460 59400
L42510 59370
" />
<path d="M42870 59420
L42890 59400
L42940 59370
L43060 59370
L43110 59400
L43130 59420
L43150 59470
L43150 59510
L43130 59590
L42840 59870
L43150 59870
" />
</g>
</g>
<g style="fill:#008484; fill-opacity:0.0; 
stroke:#008484; stroke-width:0; stroke-opacity:1; 
stroke-linecap:round; stroke-linejoin:round;">
<g >
</g>
<g style="fill:#840000; fill-opacity:0.0; 
stroke:#840000; stroke-width:0; stroke-opacity:1; 
stroke-linecap:round; stroke-linejoin:round;">
</g>
<g style="fill:#840000; fill-opacity:0.0; 
stroke:#840000; stroke-width:100; stroke-opacity:1; 
stroke-linecap:round; stroke-linejoin:round;">
<path d="M52190 23500 A710 710 0.0 0 0 50798.9 23299.5" />
<path d="M50808.9 23700.5 A710 710 0.0 0 0 52200 23502.5" />
</g>
<g style="fill:#840000; fill-opacity:0.0; 
stroke:#840000; stroke-width:80; stroke-opacity:1; 
stroke-linecap:round; stroke-linejoin:round;">
<circle cx="51500" cy="23500" r="200" /> 
</g>
<g style="fill:#840000; fill-opacity:0.0; 
stroke:#840000; stroke-width:60; stroke-opacity:1; 
stroke-linecap:round; stroke-linejoin:round;">
<path style="fill:#840000; fill-opacity:0.0; 
stroke:#840000; stroke-width:60; stroke-opacity:1; 
stroke-linecap:round; stroke-linejoin:round;fill:none"
d="M 50500,23500
51300,23500
" /> 
<path style="fill:#840000; fill-opacity:0.0; 
stroke:#840000; stroke-width:60; stroke-opacity:1; 
stroke-linecap:round; stroke-linejoin:round;fill:none"
d="M 51500,24500
51500,24200
" /> 
<path d="M50500 23500
L49500 23500
" />
<text x="50000" y="23400"
textLength="540" font-size="660" lengthAdjust="spacingAndGlyphs"
text-anchor="middle" opacity="0">1</text>
<path d="M50140 23370
L49850 23370
" />
<path d="M50000 23370
L50000 22870
L49950 22940
L49900 22990
L49850 23010
" />
<path d="M51500 24500
L51500 25500
" />
<g transform="rotate(-90 51400 25000)">
<text x="51400" y="25000"
textLength="540" font-size="660" lengthAdjust="spacingAndGlyphs"
text-anchor="middle" opacity="0">2</text>
</g>
<path d="M50920 25140
L50900 25110
L50870 25070
L50870 24950
L50900 24900
L50920 24880
L50970 24850
L51010 24850
L51090 24880
L51370 25160
L51370 24850
" />
</g>
<g style="fill:#008484; fill-opacity:0.0; 
stroke:#008484; stroke-width:60; stroke-opacity:1; 
stroke-linecap:round; stroke-linejoin:round;">
<g transform="rotate(-90 51260 22040)">
<text x="51260" y="22290"
textLength="920" font-size="660" lengthAdjust="spacingAndGlyphs"
text-anchor="middle" opacity="0">J3</text>
</g>
<path d="M50980 22200
L51340 22200
L51410 22230
L51460 22270
L51480 22340
L51480 22390
" />
<path d="M50980 22010
L50980 21700
L51170 21870
L51170 21800
L51200 21750
L51220 21730
L51270 21700
L51390 21700
L51430 21730
L51460 21750
L51480 21800
L51480 21940
L51460 21990
L51430 22010
" />
<g transform="rotate(-90 50350 19970)">
<text x="50350" y="20220"
textLength="5060" font-size="660" lengthAdjust="spacingAndGlyphs"
text-anchor="middle" opacity="0">Conn_Coaxial</text>
</g>
<path d="M50520 22060
L50550 22080
L50570 22160
L50570 22200
L50550 22270
L50500 22320
L50450 22350
L50360 22370
L50290 22370
L50190 22350
L50140 22320
L50100 22270
L50070 22200
L50070 22160
L50100 22080
L50120 22060
" />
<path d="M50570 21770
L50550 21820
L50520 21850
L50480 21870
L50330 21870
L50290 21850
L50260 21820
L50240 21770
L50240 21700
L50260 21660
L50290 21630
L50330 21610
L50480 21610
L50520 21630
L50550 21660
L50570 21700
L50570 21770
" />
<path d="M50240 21390
L50570 21390
" />
<path d="M50290 21390
L50260 21370
L50240 21320
L50240 21250
L50260 21200
L50310 21180
L50570 21180
" />
<path d="M50240 20940
L50570 20940
" />
<path d="M50290 20940
L50260 20920
L50240 20870
L50240 20800
L50260 20750
L50310 20730
L50570 20730
" />
<path d="M50620 20610
L50620 20230
" />
<path d="M50520 19820
L50550 19850
L50570 19920
L50570 19970
L50550 20040
L50500 20080
L50450 20110
L50360 20130
L50290 20130
L50190 20110
L50140 20080
L50100 20040
L50070 19970
L50070 19920
L50100 19850
L50120 19820
" />
<path d="M50570 19540
L50550 19580
L50520 19610
L50480 19630
L50330 19630
L50290 19610
L50260 19580
L50240 19540
L50240 19470
L50260 19420
L50290 19390
L50330 19370
L50480 19370
L50520 19390
L50550 19420
L50570 19470
L50570 19540
" />
<path d="M50570 18940
L50310 18940
L50260 18970
L50240 19010
L50240 19110
L50260 19160
" />
<path d="M50550 18940
L50570 18990
L50570 19110
L50550 19160
L50500 19180
L50450 19180
L50400 19160
L50380 19110
L50380 18990
L50360 18940
" />
<path d="M50570 18750
L50240 18490
" />
<path d="M50240 18750
L50570 18490
" />
<path d="M50570 18300
L50240 18300
" />
<path d="M50070 18300
L50100 18320
L50120 18300
L50100 18270
L50070 18300
L50120 18300
" />
<path d="M50570 17850
L50310 17850
L50260 17870
L50240 17920
L50240 18010
L50260 18060
" />
<path d="M50550 17850
L50570 17890
L50570 18010
L50550 18060
L50500 18080
L50450 18080
L50400 18060
L50380 18010
L50380 17890
L50360 17850
" />
<path d="M50570 17540
L50550 17580
L50500 17610
L50070 17610
" />
</g>
</g>
<g style="fill:#008484; fill-opacity:0.0; 
stroke:#008484; stroke-width:0; stroke-opacity:1; 
stroke-linecap:round; stroke-linejoin:round;">
<g >
</g>
<g style="fill:#840000; fill-opacity:0.0; 
stroke:#840000; stroke-width:0; stroke-opacity:1; 
stroke-linecap:round; stroke-linejoin:round;">
</g>
<g style="fill:#840000; fill-opacity:0.0; 
stroke:#840000; stroke-width:200; stroke-opacity:1; 
stroke-linecap:round; stroke-linejoin:round;">
<path style="fill:#840000; fill-opacity:0.0; 
stroke:#840000; stroke-width:200; stroke-opacity:1; 
stroke-linecap:round; stroke-linejoin:round;fill:none"
d="M 37200,14200
37200,15800
" /> 
<path style="fill:#840000; fill-opacity:0.0; 
stroke:#840000; stroke-width:200; stroke-opacity:1; 
stroke-linecap:round; stroke-linejoin:round;fill:none"
d="M 37800,14200
37800,15800
" /> 
</g>
<g style="fill:#840000; fill-opacity:0.0; 
stroke:#840000; stroke-width:60; stroke-opacity:1; 
stroke-linecap:round; stroke-linejoin:round;">
<path d="M37900 15000
L39000 15000
" />
<path d="M37100 15000
L36000 15000
" />
</g>
<g style="fill:#008484; fill-opacity:0.0; 
stroke:#008484; stroke-width:60; stroke-opacity:1; 
stroke-linecap:round; stroke-linejoin:round;">
<text x="37500" y="12750"
textLength="1040" font-size="660" lengthAdjust="spacingAndGlyphs"
text-anchor="middle" opacity="0">C1</text>
<path d="M37410 12670
L37390 12700
L37320 12720
L37270 12720
L37200 12700
L37150 12650
L37130 12600
L37100 12510
L37100 12440
L37130 12340
L37150 12290
L37200 12250
L37270 12220
L37320 12220
L37390 12250
L37410 12270
" />
<path d="M37890 12720
L37600 12720
" />
<path d="M37750 12720
L37750 12220
L37700 12290
L37650 12340
L37600 12360
" />
<text x="37500" y="13660"
textLength="2610" font-size="660" lengthAdjust="spacingAndGlyphs"
text-anchor="middle" opacity="0">0.01uF</text>
<path d="M36440 13130
L36480 13130
L36530 13160
L36550 13180
L36580 13230
L36600 13320
L36600 13440
L36580 13540
L36550 13580
L36530 13610
L36480 13630
L36440 13630
L36390 13610
L36360 13580
L36340 13540
L36320 13440
L36320 13320
L36340 13230
L36360 13180
L36390 13160
L36440 13130
" />
<path d="M36820 13580
L36840 13610
L36820 13630
L36790 13610
L36820 13580
L36820 13630
" />
<path d="M37150 13130
L37200 13130
L37250 13160
L37270 13180
L37290 13230
L37320 13320
L37320 13440
L37290 13540
L37270 13580
L37250 13610
L37200 13630
L37150 13630
L37100 13610
L37080 13580
L37050 13540
L37030 13440
L37030 13320
L37050 13230
L37080 13180
L37100 13160
L37150 13130
" />
<path d="M37790 13630
L37510 13630
" />
<path d="M37650 13630
L37650 13130
L37600 13200
L37550 13250
L37510 13270
" />
<path d="M38220 13300
L38220 13630
" />
<path d="M38010 13300
L38010 13560
L38030 13610
L38080 13630
L38150 13630
L38200 13610
L38220 13580
" />
<path d="M38630 13370
L38460 13370
" />
<path d="M38460 13630
L38460 13130
L38700 13130
" />
</g>
<g style="fill:#840084; fill-opacity:0.0; 
stroke:#840084; stroke-width:60; stroke-opacity:1; 
stroke-linecap:round; stroke-linejoin:round;">
<text x="37500" y="11770"
textLength="8110" font-size="660" lengthAdjust="spacingAndGlyphs"
text-anchor="middle" opacity="0">C1812C103KGRACTU </text>
<path d="M33880 11690
L33850 11720
L33780 11740
L33730 11740
L33660 11720
L33610 11670
L33590 11620
L33570 11530
L33570 11460
L33590 11360
L33610 11310
L33660 11270
L33730 11240
L33780 11240
L33850 11270
L33880 11290
" />
<path d="M34350 11740
L34070 11740
" />
<path d="M34210 11740
L34210 11240
L34160 11310
L34110 11360
L34070 11380
" />
<path d="M34640 11460
L34590 11430
L34570 11410
L34540 11360
L34540 11340
L34570 11290
L34590 11270
L34640 11240
L34730 11240
L34780 11270
L34800 11290
L34830 11340
L34830 11360
L34800 11410
L34780 11430
L34730 11460
L34640 11460
L34590 11480
L34570 11500
L34540 11550
L34540 11650
L34570 11690
L34590 11720
L34640 11740
L34730 11740
L34780 11720
L34800 11690
L34830 11650
L34830 11550
L34800 11500
L34780 11480
L34730 11460
" />
<path d="M35300 11740
L35020 11740
" />
<path d="M35160 11740
L35160 11240
L35110 11310
L35070 11360
L35020 11380
" />
<path d="M35500 11290
L35520 11270
L35570 11240
L35690 11240
L35730 11270
L35760 11290
L35780 11340
L35780 11380
L35760 11460
L35470 11740
L35780 11740
" />
<path d="M36280 11690
L36260 11720
L36190 11740
L36140 11740
L36070 11720
L36020 11670
L36000 11620
L35970 11530
L35970 11460
L36000 11360
L36020 11310
L36070 11270
L36140 11240
L36190 11240
L36260 11270
L36280 11290
" />
<path d="M36760 11740
L36470 11740
" />
<path d="M36610 11740
L36610 11240
L36570 11310
L36520 11360
L36470 11380
" />
<path d="M37070 11240
L37110 11240
L37160 11270
L37190 11290
L37210 11340
L37230 11430
L37230 11550
L37210 11650
L37190 11690
L37160 11720
L37110 11740
L37070 11740
L37020 11720
L37000 11690
L36970 11650
L36950 11550
L36950 11430
L36970 11340
L37000 11290
L37020 11270
L37070 11240
" />
<path d="M37400 11240
L37710 11240
L37540 11430
L37610 11430
L37660 11460
L37690 11480
L37710 11530
L37710 11650
L37690 11690
L37660 11720
L37610 11740
L37470 11740
L37420 11720
L37400 11690
" />
<path d="M37920 11740
L37920 11240
" />
<path d="M38210 11740
L38000 11460
" />
<path d="M38210 11240
L37920 11530
" />
<path d="M38690 11270
L38640 11240
L38570 11240
L38500 11270
L38450 11310
L38420 11360
L38400 11460
L38400 11530
L38420 11620
L38450 11670
L38500 11720
L38570 11740
L38610 11740
L38690 11720
L38710 11690
L38710 11530
L38610 11530
" />
<path d="M39210 11740
L39040 11500
" />
<path d="M38920 11740
L38920 11240
L39110 11240
L39160 11270
L39190 11290
L39210 11340
L39210 11410
L39190 11460
L39160 11480
L39110 11500
L38920 11500
" />
<path d="M39400 11600
L39640 11600
" />
<path d="M39350 11740
L39520 11240
L39690 11740
" />
<path d="M40140 11690
L40110 11720
L40040 11740
L40000 11740
L39920 11720
L39880 11670
L39850 11620
L39830 11530
L39830 11460
L39850 11360
L39880 11310
L39920 11270
L40000 11240
L40040 11240
L40110 11270
L40140 11290
" />
<path d="M40280 11240
L40570 11240
" />
<path d="M40420 11740
L40420 11240
" />
<path d="M40730 11240
L40730 11650
L40760 11690
L40780 11720
L40830 11740
L40920 11740
L40970 11720
L41000 11690
L41020 11650
L41020 11240
" />
</g>
</g>
<g style="fill:#840084; fill-opacity:0.0; 
stroke:#840084; stroke-width:0; stroke-opacity:1; 
stroke-linecap:round; stroke-linejoin:round;">
<g >
</g>
<g style="fill:#840000; fill-opacity:0.0; 
stroke:#840000; stroke-width:0; stroke-opacity:1; 
stroke-linecap:round; stroke-linejoin:round;">
</g>
<g style="fill:#840000; fill-opacity:0.0; 
stroke:#840000; stroke-width:60; stroke-opacity:1; 
stroke-linecap:round; stroke-linejoin:round;">
<path d="M30500.4 28500 A250 250 0.0 0 0 30500.4 28000" />
<path d="M30500.4 28000 A250 250 0.0 0 0 30500.4 27500" />
<path d="M30500.4 27500 A250 250 0.0 0 0 30500.4 27000" />
<path d="M30500.4 27000 A250 250 0.0 0 0 30500.4 26500" />
<path style="fill:#840000; fill-opacity:0.0; 
stroke:#840000; stroke-width:60; stroke-opacity:1; 
stroke-linecap:round; stroke-linejoin:round;fill:none"
d="M 30900,26500
30900,28500
" /> 
<path style="fill:#840000; fill-opacity:0.0; 
stroke:#840000; stroke-width:60; stroke-opacity:1; 
stroke-linecap:round; stroke-linejoin:round;fill:none"
d="M 31100,28500
31100,26500
" /> 
<path d="M30500 26500
L30500 26000
" />
<path d="M30500 28500
L30500 29000
" />
</g>
<g style="fill:#008484; fill-opacity:0.0; 
stroke:#008484; stroke-width:60; stroke-opacity:1; 
stroke-linecap:round; stroke-linejoin:round;">
<text x="31850" y="27310"
textLength="940" font-size="660" lengthAdjust="spacingAndGlyphs"
text-anchor="middle" opacity="0">L1</text>
<path d="M31760 27280
L31520 27280
L31520 26780
" />
<path d="M32190 27280
L31900 27280
" />
<path d="M32050 27280
L32050 26780
L32000 26850
L31950 26900
L31900 26920
" />
<text x="34750" y="28220"
textLength="6750" font-size="660" lengthAdjust="spacingAndGlyphs"
text-anchor="middle" opacity="0">SRU8045A-101Y </text>
<path d="M31500 28170
L31570 28190
L31690 28190
L31730 28170
L31760 28140
L31780 28100
L31780 28050
L31760 28000
L31730 27980
L31690 27950
L31590 27930
L31540 27910
L31520 27880
L31500 27830
L31500 27790
L31520 27740
L31540 27720
L31590 27690
L31710 27690
L31780 27720
" />
<path d="M32280 28190
L32110 27950
" />
<path d="M32000 28190
L32000 27690
L32190 27690
L32230 27720
L32260 27740
L32280 27790
L32280 27860
L32260 27910
L32230 27930
L32190 27950
L32000 27950
" />
<path d="M32500 27690
L32500 28100
L32520 28140
L32540 28170
L32590 28190
L32690 28190
L32730 28170
L32760 28140
L32780 28100
L32780 27690
" />
<path d="M33090 27910
L33040 27880
L33020 27860
L33000 27810
L33000 27790
L33020 27740
L33040 27720
L33090 27690
L33190 27690
L33230 27720
L33260 27740
L33280 27790
L33280 27810
L33260 27860
L33230 27880
L33190 27910
L33090 27910
L33040 27930
L33020 27950
L33000 28000
L33000 28100
L33020 28140
L33040 28170
L33090 28190
L33190 28190
L33230 28170
L33260 28140
L33280 28100
L33280 28000
L33260 27950
L33230 27930
L33190 27910
" />
<path d="M33590 27690
L33640 27690
L33690 27720
L33710 27740
L33730 27790
L33760 27880
L33760 28000
L33730 28100
L33710 28140
L33690 28170
L33640 28190
L33590 28190
L33540 28170
L33520 28140
L33500 28100
L33470 28000
L33470 27880
L33500 27790
L33520 27740
L33540 27720
L33590 27690
" />
<path d="M34190 27860
L34190 28190
" />
<path d="M34070 27670
L33950 28020
L34260 28020
" />
<path d="M34690 27690
L34450 27690
L34420 27930
L34450 27910
L34500 27880
L34610 27880
L34660 27910
L34690 27930
L34710 27980
L34710 28100
L34690 28140
L34660 28170
L34610 28190
L34500 28190
L34450 28170
L34420 28140
" />
<path d="M34900 28050
L35140 28050
" />
<path d="M34850 28190
L35020 27690
L35190 28190
" />
<path d="M35350 28000
L35730 28000
" />
<path d="M36230 28190
L35950 28190
" />
<path d="M36090 28190
L36090 27690
L36040 27760
L36000 27810
L35950 27830
" />
<path d="M36540 27690
L36590 27690
L36640 27720
L36660 27740
L36690 27790
L36710 27880
L36710 28000
L36690 28100
L36660 28140
L36640 28170
L36590 28190
L36540 28190
L36500 28170
L36470 28140
L36450 28100
L36420 28000
L36420 27880
L36450 27790
L36470 27740
L36500 27720
L36540 27690
" />
<path d="M37190 28190
L36900 28190
" />
<path d="M37040 28190
L37040 27690
L37000 27760
L36950 27810
L36900 27830
" />
<path d="M37500 27950
L37500 28190
" />
<path d="M37330 27690
L37500 27950
L37660 27690
" />
</g>
</g>
<g style="fill:#008484; fill-opacity:0.0; 
stroke:#008484; stroke-width:0; stroke-opacity:1; 
stroke-linecap:round; stroke-linejoin:round;">
<g >
</g>
<g style="fill:#840000; fill-opacity:0.0; 
stroke:#840000; stroke-width:0; stroke-opacity:1; 
stroke-linecap:round; stroke-linejoin:round;">
</g>
<g style="fill:#840000; fill-opacity:0.0; 
stroke:#840000; stroke-width:100; stroke-opacity:1; 
stroke-linecap:round; stroke-linejoin:round;">
<path d="M31201.1 23299.5 A710 710 0.0 0 0 29810 23500" />
<path d="M29800 23502.5 A710 710 0.0 0 0 31191.1 23700.5" />
</g>
<g style="fill:#840000; fill-opacity:0.0; 
stroke:#840000; stroke-width:80; stroke-opacity:1; 
stroke-linecap:round; stroke-linejoin:round;">
<circle cx="30500" cy="23500" r="200" /> 
</g>
<g style="fill:#840000; fill-opacity:0.0; 
stroke:#840000; stroke-width:60; stroke-opacity:1; 
stroke-linecap:round; stroke-linejoin:round;">
<path style="fill:#840000; fill-opacity:0.0; 
stroke:#840000; stroke-width:60; stroke-opacity:1; 
stroke-linecap:round; stroke-linejoin:round;fill:none"
d="M 31500,23500
30700,23500
" /> 
<path style="fill:#840000; fill-opacity:0.0; 
stroke:#840000; stroke-width:60; stroke-opacity:1; 
stroke-linecap:round; stroke-linejoin:round;fill:none"
d="M 30500,24500
30500,24200
" /> 
<path d="M31500 23500
L32500 23500
" />
<text x="32000" y="23400"
textLength="540" font-size="660" lengthAdjust="spacingAndGlyphs"
text-anchor="middle" opacity="0">1</text>
<path d="M32140 23370
L31850 23370
" />
<path d="M32000 23370
L32000 22870
L31950 22940
L31900 22990
L31850 23010
" />
<path d="M30500 24500
L30500 25500
" />
<g transform="rotate(-90 30400 25000)">
<text x="30400" y="25000"
textLength="540" font-size="660" lengthAdjust="spacingAndGlyphs"
text-anchor="middle" opacity="0">2</text>
</g>
<path d="M29920 25140
L29900 25110
L29870 25070
L29870 24950
L29900 24900
L29920 24880
L29970 24850
L30010 24850
L30090 24880
L30370 25160
L30370 24850
" />
</g>
<g style="fill:#008484; fill-opacity:0.0; 
stroke:#008484; stroke-width:60; stroke-opacity:1; 
stroke-linecap:round; stroke-linejoin:round;">
<g transform="rotate(-90 28100 24210)">
<text x="28100" y="24460"
textLength="920" font-size="660" lengthAdjust="spacingAndGlyphs"
text-anchor="middle" opacity="0">J1</text>
</g>
<path d="M27820 24370
L28180 24370
L28250 24400
L28300 24440
L28320 24510
L28320 24560
" />
<path d="M28320 23870
L28320 24160
" />
<path d="M28320 24010
L27820 24010
L27890 24060
L27940 24110
L27960 24160
" />
<g transform="rotate(-90 29010 24210)">
<text x="29010" y="24460"
textLength="5060" font-size="660" lengthAdjust="spacingAndGlyphs"
text-anchor="middle" opacity="0">Conn_Coaxial</text>
</g>
<path d="M29180 26300
L29210 26320
L29230 26400
L29230 26440
L29210 26510
L29160 26560
L29110 26590
L29020 26610
L28950 26610
L28850 26590
L28800 26560
L28760 26510
L28730 26440
L28730 26400
L28760 26320
L28780 26300
" />
<path d="M29230 26010
L29210 26060
L29180 26090
L29140 26110
L28990 26110
L28950 26090
L28920 26060
L28900 26010
L28900 25940
L28920 25900
L28950 25870
L28990 25850
L29140 25850
L29180 25870
L29210 25900
L29230 25940
L29230 26010
" />
<path d="M28900 25630
L29230 25630
" />
<path d="M28950 25630
L28920 25610
L28900 25560
L28900 25490
L28920 25440
L28970 25420
L29230 25420
" />
<path d="M28900 25180
L29230 25180
" />
<path d="M28950 25180
L28920 25160
L28900 25110
L28900 25040
L28920 24990
L28970 24970
L29230 24970
" />
<path d="M29280 24850
L29280 24470
" />
<path d="M29180 24060
L29210 24090
L29230 24160
L29230 24210
L29210 24280
L29160 24320
L29110 24350
L29020 24370
L28950 24370
L28850 24350
L28800 24320
L28760 24280
L28730 24210
L28730 24160
L28760 24090
L28780 24060
" />
<path d="M29230 23780
L29210 23820
L29180 23850
L29140 23870
L28990 23870
L28950 23850
L28920 23820
L28900 23780
L28900 23710
L28920 23660
L28950 23630
L28990 23610
L29140 23610
L29180 23630
L29210 23660
L29230 23710
L29230 23780
" />
<path d="M29230 23180
L28970 23180
L28920 23210
L28900 23250
L28900 23350
L28920 23400
" />
<path d="M29210 23180
L29230 23230
L29230 23350
L29210 23400
L29160 23420
L29110 23420
L29060 23400
L29040 23350
L29040 23230
L29020 23180
" />
<path d="M29230 22990
L28900 22730
" />
<path d="M28900 22990
L29230 22730
" />
<path d="M29230 22540
L28900 22540
" />
<path d="M28730 22540
L28760 22560
L28780 22540
L28760 22510
L28730 22540
L28780 22540
" />
<path d="M29230 22090
L28970 22090
L28920 22110
L28900 22160
L28900 22250
L28920 22300
" />
<path d="M29210 22090
L29230 22130
L29230 22250
L29210 22300
L29160 22320
L29110 22320
L29060 22300
L29040 22250
L29040 22130
L29020 22090
" />
<path d="M29230 21780
L29210 21820
L29160 21850
L28730 21850
" />
</g>
</g>
<g style="fill:#008484; fill-opacity:0.0; 
stroke:#008484; stroke-width:60; stroke-opacity:1; 
stroke-linecap:round; stroke-linejoin:round;">
</g>
<g style="fill:#008400; fill-opacity:0.0; 
stroke:#008400; stroke-width:60; stroke-opacity:1; 
stroke-linecap:round; stroke-linejoin:round;">
<path d="M34000 50000
L32500 50000
" />
<path d="M40500 29500
L40500 33000
" />
<path d="M37000 50000
L39500 50000
" />
<path d="M39500 23500
L39500 19500
" />
<path d="M39000 23500
L39500 23500
" />
<path d="M32000 50000
L32000 57500
" />
<path d="M33500 29500
L33500 33000
" />
<path d="M36000 15000
L36000 18000
" />
<path d="M39500 23500
L41000 23500
" />
<path d="M39000 18000
L39000 15000
" />
<path d="M36000 18000
L36000 23500
" />
<path d="M34000 45500
L34000 41500
" />
<path d="M39500 45500
L39500 50000
" />
<path d="M32000 50000
L32500 50000
" />
<path d="M39500 54500
L39500 50000
" />
<path d="M35000 54500
L39500 54500
" />
<path d="M39500 45500
L39000 45500
" />
<path d="M32500 45500
L32500 50000
" />
<path d="M32500 45500
L34000 45500
" />
<path d="M34000 41500
L35500 41500
" />
<path d="M25500 57500
L32000 57500
" />
<path d="M35000 45500
L34000 45500
" />
<path d="M39000 41500
L39000 45500
" />
<path d="M38500 41500
L39000 41500
" />
<path d="M30500 29500
L30500 29000
" />
<path d="M33500 29500
L30500 29500
" />
<path d="M41000 29500
L41000 26500
" />
<path d="M40500 29500
L41000 29500
" />
<path d="M32000 57500
L32000 58000
" />
<path d="M33500 33000
L35500 33000
" />
<path d="M38500 33000
L40500 33000
" />
<path d="M38500 37000
L38500 33000
" />
<path d="M39500 19500
L39000 19500
" />
<path d="M35000 58000
L35000 54500
" />
<path d="M34000 58000
L35000 58000
" />
<path d="M32000 58000
L33000 58000
" />
<path d="M35500 37000
L35500 41500
" />
<path d="M35500 33000
L35500 37000
" />
<path d="M38500 41500
L38500 37000
" />
<path d="M51500 27500
L51500 25500
" />
<path d="M39000 27500
L51500 27500
" />
<path d="M39000 26000
L39000 27500
" />
<path d="M30500 26000
L39000 26000
" />
<path d="M41000 23500
L49500 23500
" />
<path d="M30500 26000
L30500 25500
" />
<path d="M32500 23500
L36000 23500
" />
<path d="M25500 60000
L25500 57500
" />
<path d="M39000 19500
L39000 18000
" />
<path d="M25500 57500
L25500 55500
" />
<path d="M17500 57500
L17500 60000
" />
<path d="M17500 57500
L25500 57500
" />
<path d="M17500 55500
L17500 57500
" />
</g>
<g style="fill:#000000; fill-opacity:0.0; 
stroke:#000000; stroke-width:60; stroke-opacity:1; 
stroke-linecap:round; stroke-linejoin:round;">
<text x="33500" y="23400"
textLength="990" font-size="660" lengthAdjust="spacingAndGlyphs"
text-anchor="start" opacity="0">RF</text>
<path d="M33930 23370
L33760 23130
" />
<path d="M33640 23370
L33640 22870
L33830 22870
L33880 22900
L33910 22920
L33930 22970
L33930 23040
L33910 23090
L33880 23110
L33830 23130
L33640 23130
" />
<path d="M34310 23110
L34140 23110
" />
<path d="M34140 23370
L34140 22870
L34380 22870
" />
<text x="34000" y="25900"
textLength="3130" font-size="660" lengthAdjust="spacingAndGlyphs"
text-anchor="start" opacity="0">RF-GND</text>
<path d="M34430 25870
L34260 25630
" />
<path d="M34140 25870
L34140 25370
L34330 25370
L34380 25400
L34410 25420
L34430 25470
L34430 25540
L34410 25590
L34380 25610
L34330 25630
L34140 25630
" />
<path d="M34810 25610
L34640 25610
" />
<path d="M34640 25870
L34640 25370
L34880 25370
" />
<path d="M35070 25680
L35450 25680
" />
<path d="M35950 25400
L35910 25370
L35830 25370
L35760 25400
L35720 25440
L35690 25490
L35670 25590
L35670 25660
L35690 25750
L35720 25800
L35760 25850
L35830 25870
L35880 25870
L35950 25850
L35980 25820
L35980 25660
L35880 25660
" />
<path d="M36190 25870
L36190 25370
L36480 25870
L36480 25370
" />
<path d="M36720 25870
L36720 25370
L36830 25370
L36910 25400
L36950 25440
L36980 25490
L37000 25590
L37000 25660
L36980 25750
L36950 25800
L36910 25850
L36830 25870
L36720 25870
" />
<text x="32000" y="52400"
textLength="1580" font-size="660" lengthAdjust="spacingAndGlyphs"
text-anchor="start" opacity="0">GND</text>
<path d="M32410 51900
L32360 51870
L32290 51870
L32220 51900
L32170 51940
L32140 51990
L32120 52090
L32120 52160
L32140 52250
L32170 52300
L32220 52350
L32290 52370
L32330 52370
L32410 52350
L32430 52320
L32430 52160
L32330 52160
" />
<path d="M32640 52370
L32640 51870
L32930 52370
L32930 51870
" />
<path d="M33170 52370
L33170 51870
L33290 51870
L33360 51900
L33410 51940
L33430 51990
L33450 52090
L33450 52160
L33430 52250
L33410 52300
L33360 52350
L33290 52370
L33170 52370
" />
<text x="44500" y="23400"
textLength="2610" font-size="660" lengthAdjust="spacingAndGlyphs"
text-anchor="start" opacity="0">RF+DC</text>
<path d="M44930 23370
L44760 23130
" />
<path d="M44640 23370
L44640 22870
L44830 22870
L44880 22900
L44910 22920
L44930 22970
L44930 23040
L44910 23090
L44880 23110
L44830 23130
L44640 23130
" />
<path d="M45310 23110
L45140 23110
" />
<path d="M45140 23370
L45140 22870
L45380 22870
" />
<path d="M45570 23180
L45950 23180
" />
<path d="M45760 23370
L45760 22990
" />
<path d="M46190 23370
L46190 22870
L46310 22870
L46380 22900
L46430 22940
L46450 22990
L46480 23090
L46480 23160
L46450 23250
L46430 23300
L46380 23350
L46310 23370
L46190 23370
" />
<path d="M46980 23320
L46950 23350
L46880 23370
L46830 23370
L46760 23350
L46720 23300
L46690 23250
L46670 23160
L46670 23090
L46690 22990
L46720 22940
L46760 22900
L46830 22870
L46880 22870
L46950 22900
L46980 22920
" />
</g>
<g style="fill:#000000; fill-opacity:0.0; 
stroke:#000000; stroke-width:0; stroke-opacity:1; 
stroke-linecap:round; stroke-linejoin:round;">
</g>
<g style="fill:#008400; fill-opacity:0.0; 
stroke:#008400; stroke-width:0; stroke-opacity:1; 
stroke-linecap:round; stroke-linejoin:round;">
</g>
<g style="fill:#008400; fill-opacity:1.0; 
stroke:#008400; stroke-width:100; stroke-opacity:1; 
stroke-linecap:round; stroke-linejoin:round;">
<circle cx="36000" cy="18000" r="200" /> 
</g>
<g style="fill:#008400; fill-opacity:1.0; 
stroke:#008400; stroke-width:0; stroke-opacity:1; 
stroke-linecap:round; stroke-linejoin:round;">
</g>
<g style="fill:#008400; fill-opacity:1.0; 
stroke:#008400; stroke-width:100; stroke-opacity:1; 
stroke-linecap:round; stroke-linejoin:round;">
<circle cx="36000" cy="23500" r="200" /> 
</g>
<g style="fill:#008400; fill-opacity:1.0; 
stroke:#008400; stroke-width:0; stroke-opacity:1; 
stroke-linecap:round; stroke-linejoin:round;">
</g>
<g style="fill:#008400; fill-opacity:1.0; 
stroke:#008400; stroke-width:100; stroke-opacity:1; 
stroke-linecap:round; stroke-linejoin:round;">
<circle cx="39000" cy="18000" r="200" /> 
</g>
<g style="fill:#008400; fill-opacity:1.0; 
stroke:#008400; stroke-width:0; stroke-opacity:1; 
stroke-linecap:round; stroke-linejoin:round;">
</g>
<g style="fill:#008400; fill-opacity:1.0; 
stroke:#008400; stroke-width:100; stroke-opacity:1; 
stroke-linecap:round; stroke-linejoin:round;">
<circle cx="32500" cy="50000" r="200" /> 
</g>
<g style="fill:#008400; fill-opacity:1.0; 
stroke:#008400; stroke-width:0; stroke-opacity:1; 
stroke-linecap:round; stroke-linejoin:round;">
</g>
<g style="fill:#008400; fill-opacity:1.0; 
stroke:#008400; stroke-width:100; stroke-opacity:1; 
stroke-linecap:round; stroke-linejoin:round;">
<circle cx="39500" cy="23500" r="200" /> 
</g>
<g style="fill:#008400; fill-opacity:1.0; 
stroke:#008400; stroke-width:0; stroke-opacity:1; 
stroke-linecap:round; stroke-linejoin:round;">
</g>
<g style="fill:#008400; fill-opacity:1.0; 
stroke:#008400; stroke-width:100; stroke-opacity:1; 
stroke-linecap:round; stroke-linejoin:round;">
<circle cx="41000" cy="23500" r="200" /> 
</g>
<g style="fill:#008400; fill-opacity:1.0; 
stroke:#008400; stroke-width:0; stroke-opacity:1; 
stroke-linecap:round; stroke-linejoin:round;">
</g>
<g style="fill:#008400; fill-opacity:1.0; 
stroke:#008400; stroke-width:100; stroke-opacity:1; 
stroke-linecap:round; stroke-linejoin:round;">
<circle cx="25500" cy="57500" r="200" /> 
</g>
<g style="fill:#008400; fill-opacity:1.0; 
stroke:#008400; stroke-width:0; stroke-opacity:1; 
stroke-linecap:round; stroke-linejoin:round;">
</g>
<g style="fill:#008400; fill-opacity:1.0; 
stroke:#008400; stroke-width:100; stroke-opacity:1; 
stroke-linecap:round; stroke-linejoin:round;">
<circle cx="39000" cy="45500" r="200" /> 
</g>
<g style="fill:#008400; fill-opacity:1.0; 
stroke:#008400; stroke-width:0; stroke-opacity:1; 
stroke-linecap:round; stroke-linejoin:round;">
</g>
<g style="fill:#008400; fill-opacity:1.0; 
stroke:#008400; stroke-width:100; stroke-opacity:1; 
stroke-linecap:round; stroke-linejoin:round;">
<circle cx="38500" cy="37000" r="200" /> 
</g>
<g style="fill:#008400; fill-opacity:1.0; 
stroke:#008400; stroke-width:0; stroke-opacity:1; 
stroke-linecap:round; stroke-linejoin:round;">
</g>
<g style="fill:#008400; fill-opacity:1.0; 
stroke:#008400; stroke-width:100; stroke-opacity:1; 
stroke-linecap:round; stroke-linejoin:round;">
<circle cx="34000" cy="45500" r="200" /> 
</g>
<g style="fill:#008400; fill-opacity:1.0; 
stroke:#008400; stroke-width:0; stroke-opacity:1; 
stroke-linecap:round; stroke-linejoin:round;">
</g>
<g style="fill:#008400; fill-opacity:1.0; 
stroke:#008400; stroke-width:100; stroke-opacity:1; 
stroke-linecap:round; stroke-linejoin:round;">
<circle cx="17500" cy="57500" r="200" /> 
</g>
<g style="fill:#008400; fill-opacity:1.0; 
stroke:#008400; stroke-width:0; stroke-opacity:1; 
stroke-linecap:round; stroke-linejoin:round;">
</g>
<g style="fill:#008400; fill-opacity:1.0; 
stroke:#008400; stroke-width:100; stroke-opacity:1; 
stroke-linecap:round; stroke-linejoin:round;">
<circle cx="32000" cy="57500" r="200" /> 
</g>
<g style="fill:#008400; fill-opacity:1.0; 
stroke:#008400; stroke-width:0; stroke-opacity:1; 
stroke-linecap:round; stroke-linejoin:round;">
</g>
<g style="fill:#008400; fill-opacity:1.0; 
stroke:#008400; stroke-width:100; stroke-opacity:1; 
stroke-linecap:round; stroke-linejoin:round;">
<circle cx="35500" cy="41500" r="200" /> 
</g>
<g style="fill:#008400; fill-opacity:1.0; 
stroke:#008400; stroke-width:0; stroke-opacity:1; 
stroke-linecap:round; stroke-linejoin:round;">
</g>
<g style="fill:#008400; fill-opacity:1.0; 
stroke:#008400; stroke-width:100; stroke-opacity:1; 
stroke-linecap:round; stroke-linejoin:round;">
<circle cx="30500" cy="26000" r="200" /> 
</g>
<g style="fill:#008400; fill-opacity:1.0; 
stroke:#008400; stroke-width:0; stroke-opacity:1; 
stroke-linecap:round; stroke-linejoin:round;">
</g>
<g style="fill:#008400; fill-opacity:1.0; 
stroke:#008400; stroke-width:100; stroke-opacity:1; 
stroke-linecap:round; stroke-linejoin:round;">
<circle cx="38500" cy="33000" r="200" /> 
</g>
<g style="fill:#008400; fill-opacity:1.0; 
stroke:#008400; stroke-width:0; stroke-opacity:1; 
stroke-linecap:round; stroke-linejoin:round;">
</g>
<g style="fill:#008400; fill-opacity:1.0; 
stroke:#008400; stroke-width:100; stroke-opacity:1; 
stroke-linecap:round; stroke-linejoin:round;">
<circle cx="38500" cy="41500" r="200" /> 
</g>
<g style="fill:#008400; fill-opacity:1.0; 
stroke:#008400; stroke-width:0; stroke-opacity:1; 
stroke-linecap:round; stroke-linejoin:round;">
</g>
<g style="fill:#008400; fill-opacity:1.0; 
stroke:#008400; stroke-width:100; stroke-opacity:1; 
stroke-linecap:round; stroke-linejoin:round;">
<circle cx="35500" cy="33000" r="200" /> 
</g>
<g style="fill:#008400; fill-opacity:1.0; 
stroke:#008400; stroke-width:0; stroke-opacity:1; 
stroke-linecap:round; stroke-linejoin:round;">
</g>
<g style="fill:#008400; fill-opacity:1.0; 
stroke:#008400; stroke-width:100; stroke-opacity:1; 
stroke-linecap:round; stroke-linejoin:round;">
<circle cx="35500" cy="37000" r="200" /> 
</g>
<g style="fill:#008400; fill-opacity:1.0; 
stroke:#008400; stroke-width:0; stroke-opacity:1; 
stroke-linecap:round; stroke-linejoin:round;">
</g>
<g style="fill:#008400; fill-opacity:1.0; 
stroke:#008400; stroke-width:100; stroke-opacity:1; 
stroke-linecap:round; stroke-linejoin:round;">
<circle cx="39500" cy="50000" r="200" /> 
</g> 
</svg>
