%TF.GenerationSoftware,KiCad,Pcbnew,5.1.6-c6e7f7d~87~ubuntu20.04.1*%
%TF.CreationDate,2020-09-01T11:45:50+02:00*%
%TF.ProjectId,bias-t-injector-smd,62696173-2d74-42d6-996e-6a6563746f72,rev?*%
%TF.SameCoordinates,Original*%
%TF.FileFunction,Paste,Top*%
%TF.FilePolarity,Positive*%
%FSLAX46Y46*%
G04 Gerber Fmt 4.6, Leading zero omitted, Abs format (unit mm)*
G04 Created by KiCad (PCBNEW 5.1.6-c6e7f7d~87~ubuntu20.04.1) date 2020-09-01 11:45:50*
%MOMM*%
%LPD*%
G01*
G04 APERTURE LIST*
%ADD10R,2.000000X2.500000*%
%ADD11R,2.500000X2.300000*%
G04 APERTURE END LIST*
%TO.C,C1*%
G36*
G01*
X57812500Y-34549999D02*
X57812500Y-37450001D01*
G75*
G02*
X57562501Y-37700000I-249999J0D01*
G01*
X56937499Y-37700000D01*
G75*
G02*
X56687500Y-37450001I0J249999D01*
G01*
X56687500Y-34549999D01*
G75*
G02*
X56937499Y-34300000I249999J0D01*
G01*
X57562501Y-34300000D01*
G75*
G02*
X57812500Y-34549999I0J-249999D01*
G01*
G37*
G36*
G01*
X53537500Y-34549999D02*
X53537500Y-37450001D01*
G75*
G02*
X53287501Y-37700000I-249999J0D01*
G01*
X52662499Y-37700000D01*
G75*
G02*
X52412500Y-37450001I0J249999D01*
G01*
X52412500Y-34549999D01*
G75*
G02*
X52662499Y-34300000I249999J0D01*
G01*
X53287501Y-34300000D01*
G75*
G02*
X53537500Y-34549999I0J-249999D01*
G01*
G37*
%TD*%
%TO.C,C2*%
G36*
G01*
X49325000Y-46375000D02*
X49325000Y-47625000D01*
G75*
G02*
X49075000Y-47875000I-250000J0D01*
G01*
X48325000Y-47875000D01*
G75*
G02*
X48075000Y-47625000I0J250000D01*
G01*
X48075000Y-46375000D01*
G75*
G02*
X48325000Y-46125000I250000J0D01*
G01*
X49075000Y-46125000D01*
G75*
G02*
X49325000Y-46375000I0J-250000D01*
G01*
G37*
G36*
G01*
X52125000Y-46375000D02*
X52125000Y-47625000D01*
G75*
G02*
X51875000Y-47875000I-250000J0D01*
G01*
X51125000Y-47875000D01*
G75*
G02*
X50875000Y-47625000I0J250000D01*
G01*
X50875000Y-46375000D01*
G75*
G02*
X51125000Y-46125000I250000J0D01*
G01*
X51875000Y-46125000D01*
G75*
G02*
X52125000Y-46375000I0J-250000D01*
G01*
G37*
%TD*%
%TO.C,C3*%
G36*
G01*
X63575000Y-47125000D02*
X63575000Y-45875000D01*
G75*
G02*
X63825000Y-45625000I250000J0D01*
G01*
X64575000Y-45625000D01*
G75*
G02*
X64825000Y-45875000I0J-250000D01*
G01*
X64825000Y-47125000D01*
G75*
G02*
X64575000Y-47375000I-250000J0D01*
G01*
X63825000Y-47375000D01*
G75*
G02*
X63575000Y-47125000I0J250000D01*
G01*
G37*
G36*
G01*
X66375000Y-47125000D02*
X66375000Y-45875000D01*
G75*
G02*
X66625000Y-45625000I250000J0D01*
G01*
X67375000Y-45625000D01*
G75*
G02*
X67625000Y-45875000I0J-250000D01*
G01*
X67625000Y-47125000D01*
G75*
G02*
X67375000Y-47375000I-250000J0D01*
G01*
X66625000Y-47375000D01*
G75*
G02*
X66375000Y-47125000I0J250000D01*
G01*
G37*
%TD*%
D10*
%TO.C,C4*%
X60500000Y-46500000D03*
X55000000Y-46500000D03*
%TD*%
%TO.C,C5*%
G36*
G01*
X57812500Y-30549999D02*
X57812500Y-33450001D01*
G75*
G02*
X57562501Y-33700000I-249999J0D01*
G01*
X56937499Y-33700000D01*
G75*
G02*
X56687500Y-33450001I0J249999D01*
G01*
X56687500Y-30549999D01*
G75*
G02*
X56937499Y-30300000I249999J0D01*
G01*
X57562501Y-30300000D01*
G75*
G02*
X57812500Y-30549999I0J-249999D01*
G01*
G37*
G36*
G01*
X53537500Y-30549999D02*
X53537500Y-33450001D01*
G75*
G02*
X53287501Y-33700000I-249999J0D01*
G01*
X52662499Y-33700000D01*
G75*
G02*
X52412500Y-33450001I0J249999D01*
G01*
X52412500Y-30549999D01*
G75*
G02*
X52662499Y-30300000I249999J0D01*
G01*
X53287501Y-30300000D01*
G75*
G02*
X53537500Y-30549999I0J-249999D01*
G01*
G37*
%TD*%
%TO.C,C6*%
G36*
G01*
X53562500Y-26549999D02*
X53562500Y-29450001D01*
G75*
G02*
X53312501Y-29700000I-249999J0D01*
G01*
X52687499Y-29700000D01*
G75*
G02*
X52437500Y-29450001I0J249999D01*
G01*
X52437500Y-26549999D01*
G75*
G02*
X52687499Y-26300000I249999J0D01*
G01*
X53312501Y-26300000D01*
G75*
G02*
X53562500Y-26549999I0J-249999D01*
G01*
G37*
G36*
G01*
X57837500Y-26549999D02*
X57837500Y-29450001D01*
G75*
G02*
X57587501Y-29700000I-249999J0D01*
G01*
X56962499Y-29700000D01*
G75*
G02*
X56712500Y-29450001I0J249999D01*
G01*
X56712500Y-26549999D01*
G75*
G02*
X56962499Y-26300000I249999J0D01*
G01*
X57587501Y-26300000D01*
G75*
G02*
X57837500Y-26549999I0J-249999D01*
G01*
G37*
%TD*%
D11*
%TO.C,D1*%
X54700000Y-52000000D03*
X59000000Y-52000000D03*
%TD*%
%TO.C,L2*%
G36*
G01*
X61900000Y-33725000D02*
X63600000Y-33725000D01*
G75*
G02*
X63850000Y-33975000I0J-250000D01*
G01*
X63850000Y-34725000D01*
G75*
G02*
X63600000Y-34975000I-250000J0D01*
G01*
X61900000Y-34975000D01*
G75*
G02*
X61650000Y-34725000I0J250000D01*
G01*
X61650000Y-33975000D01*
G75*
G02*
X61900000Y-33725000I250000J0D01*
G01*
G37*
G36*
G01*
X61900000Y-35875000D02*
X63600000Y-35875000D01*
G75*
G02*
X63850000Y-36125000I0J-250000D01*
G01*
X63850000Y-36875000D01*
G75*
G02*
X63600000Y-37125000I-250000J0D01*
G01*
X61900000Y-37125000D01*
G75*
G02*
X61650000Y-36875000I0J250000D01*
G01*
X61650000Y-36125000D01*
G75*
G02*
X61900000Y-35875000I250000J0D01*
G01*
G37*
%TD*%
M02*
