%TF.GenerationSoftware,KiCad,Pcbnew,5.1.6-c6e7f7d~87~ubuntu20.04.1*%
%TF.CreationDate,2020-09-02T03:18:24+02:00*%
%TF.ProjectId,bias-t-injector-smd,62696173-2d74-42d6-996e-6a6563746f72,rev?*%
%TF.SameCoordinates,Original*%
%TF.FileFunction,Legend,Bot*%
%TF.FilePolarity,Positive*%
%FSLAX46Y46*%
G04 Gerber Fmt 4.6, Leading zero omitted, Abs format (unit mm)*
G04 Created by KiCad (PCBNEW 5.1.6-c6e7f7d~87~ubuntu20.04.1) date 2020-09-02 03:18:24*
%MOMM*%
%LPD*%
G01*
G04 APERTURE LIST*
%ADD10C,0.120000*%
%ADD11C,0.150000*%
G04 APERTURE END LIST*
D10*
%TO.C,L1*%
X50000000Y-46950000D02*
X50000000Y-46450000D01*
X50000000Y-41100000D02*
X50000000Y-41900000D01*
X47900000Y-39900000D02*
X48400000Y-39900000D01*
X45850000Y-41950000D02*
X47900000Y-39900000D01*
X45850000Y-46050000D02*
X47950000Y-48150000D01*
X54150000Y-46050000D02*
X52050000Y-48150000D01*
X54150000Y-46050000D02*
X54150000Y-41950000D01*
X54150000Y-41950000D02*
X52050000Y-39850000D01*
X45850000Y-41950000D02*
X45850000Y-46050000D01*
X50000000Y-41900000D02*
G75*
G03*
X50000000Y-42500000I0J-300000D01*
G01*
X50000000Y-43800000D02*
G75*
G03*
X50000000Y-44400000I0J-300000D01*
G01*
X50000000Y-44500000D02*
G75*
G03*
X50000000Y-45100000I0J-300000D01*
G01*
X50000000Y-45200000D02*
G75*
G03*
X50000000Y-45800000I0J-300000D01*
G01*
X50000000Y-45850000D02*
G75*
G03*
X50000000Y-46450000I0J-300000D01*
G01*
X50000000Y-43200000D02*
G75*
G03*
X50000000Y-43800000I0J-300000D01*
G01*
X50000000Y-42500000D02*
G75*
G03*
X50000000Y-43100000I0J-300000D01*
G01*
D11*
X55952380Y-44333333D02*
X55952380Y-43857142D01*
X54952380Y-43857142D01*
X55952380Y-45190476D02*
X55952380Y-44619047D01*
X55952380Y-44904761D02*
X54952380Y-44904761D01*
X55095238Y-44809523D01*
X55190476Y-44714285D01*
X55238095Y-44619047D01*
%TD*%
M02*
