%TF.GenerationSoftware,KiCad,Pcbnew,5.1.6-c6e7f7d~87~ubuntu20.04.1*%
%TF.CreationDate,2020-09-01T11:45:50+02:00*%
%TF.ProjectId,bias-t-injector-smd,62696173-2d74-42d6-996e-6a6563746f72,rev?*%
%TF.SameCoordinates,Original*%
%TF.FileFunction,Copper,L1,Top*%
%TF.FilePolarity,Positive*%
%FSLAX46Y46*%
G04 Gerber Fmt 4.6, Leading zero omitted, Abs format (unit mm)*
G04 Created by KiCad (PCBNEW 5.1.6-c6e7f7d~87~ubuntu20.04.1) date 2020-09-01 11:45:50*
%MOMM*%
%LPD*%
G01*
G04 APERTURE LIST*
%TA.AperFunction,ComponentPad*%
%ADD10R,4.000000X2.700000*%
%TD*%
%TA.AperFunction,ComponentPad*%
%ADD11C,2.100000*%
%TD*%
%TA.AperFunction,ComponentPad*%
%ADD12R,2.100000X2.100000*%
%TD*%
%TA.AperFunction,ComponentPad*%
%ADD13C,7.500000*%
%TD*%
%TA.AperFunction,SMDPad,CuDef*%
%ADD14R,2.000000X2.500000*%
%TD*%
%TA.AperFunction,SMDPad,CuDef*%
%ADD15R,2.500000X2.300000*%
%TD*%
%TA.AperFunction,ComponentPad*%
%ADD16C,3.500000*%
%TD*%
%TA.AperFunction,Conductor*%
%ADD17C,0.700000*%
%TD*%
%TA.AperFunction,Conductor*%
%ADD18C,0.254000*%
%TD*%
G04 APERTURE END LIST*
D10*
%TO.P,J1,2*%
%TO.N,/RF-GND*%
X42000000Y-40000000D03*
%TO.P,J1,1*%
%TO.N,/RF*%
X42000000Y-32000000D03*
%TD*%
D11*
%TO.P,J2,2*%
%TO.N,/DC-GND*%
X46000000Y-51210000D03*
D12*
%TO.P,J2,1*%
%TO.N,Net-(D1-Pad1)*%
X46000000Y-53750000D03*
%TD*%
D10*
%TO.P,J3,2*%
%TO.N,/RF-GND*%
X73500000Y-40000000D03*
%TO.P,J3,1*%
%TO.N,/RF+DC*%
X73500000Y-32000000D03*
%TD*%
D11*
%TO.P,LA1,2*%
%TO.N,/DC+*%
X68000000Y-53250000D03*
D12*
%TO.P,LA1,1*%
%TO.N,/DC-GND*%
X68000000Y-50710000D03*
%TD*%
D13*
%TO.P,H1,1*%
%TO.N,/DC-GND*%
X44500000Y-23500000D03*
%TD*%
%TO.P,H2,1*%
%TO.N,/DC-GND*%
X71000000Y-70500000D03*
%TD*%
%TO.P,H3,1*%
%TO.N,/DC-GND*%
X44500000Y-70500000D03*
%TD*%
%TO.P,H4,1*%
%TO.N,/DC-GND*%
X71000000Y-23500000D03*
%TD*%
%TO.P,C1,1*%
%TO.N,/RF+DC*%
%TA.AperFunction,SMDPad,CuDef*%
G36*
G01*
X57812500Y-34549999D02*
X57812500Y-37450001D01*
G75*
G02*
X57562501Y-37700000I-249999J0D01*
G01*
X56937499Y-37700000D01*
G75*
G02*
X56687500Y-37450001I0J249999D01*
G01*
X56687500Y-34549999D01*
G75*
G02*
X56937499Y-34300000I249999J0D01*
G01*
X57562501Y-34300000D01*
G75*
G02*
X57812500Y-34549999I0J-249999D01*
G01*
G37*
%TD.AperFunction*%
%TO.P,C1,2*%
%TO.N,/RF*%
%TA.AperFunction,SMDPad,CuDef*%
G36*
G01*
X53537500Y-34549999D02*
X53537500Y-37450001D01*
G75*
G02*
X53287501Y-37700000I-249999J0D01*
G01*
X52662499Y-37700000D01*
G75*
G02*
X52412500Y-37450001I0J249999D01*
G01*
X52412500Y-34549999D01*
G75*
G02*
X52662499Y-34300000I249999J0D01*
G01*
X53287501Y-34300000D01*
G75*
G02*
X53537500Y-34549999I0J-249999D01*
G01*
G37*
%TD.AperFunction*%
%TD*%
%TO.P,C2,2*%
%TO.N,/DC-GND*%
%TA.AperFunction,SMDPad,CuDef*%
G36*
G01*
X49325000Y-46375000D02*
X49325000Y-47625000D01*
G75*
G02*
X49075000Y-47875000I-250000J0D01*
G01*
X48325000Y-47875000D01*
G75*
G02*
X48075000Y-47625000I0J250000D01*
G01*
X48075000Y-46375000D01*
G75*
G02*
X48325000Y-46125000I250000J0D01*
G01*
X49075000Y-46125000D01*
G75*
G02*
X49325000Y-46375000I0J-250000D01*
G01*
G37*
%TD.AperFunction*%
%TO.P,C2,1*%
%TO.N,/DC+*%
%TA.AperFunction,SMDPad,CuDef*%
G36*
G01*
X52125000Y-46375000D02*
X52125000Y-47625000D01*
G75*
G02*
X51875000Y-47875000I-250000J0D01*
G01*
X51125000Y-47875000D01*
G75*
G02*
X50875000Y-47625000I0J250000D01*
G01*
X50875000Y-46375000D01*
G75*
G02*
X51125000Y-46125000I250000J0D01*
G01*
X51875000Y-46125000D01*
G75*
G02*
X52125000Y-46375000I0J-250000D01*
G01*
G37*
%TD.AperFunction*%
%TD*%
%TO.P,C3,1*%
%TO.N,/DC+*%
%TA.AperFunction,SMDPad,CuDef*%
G36*
G01*
X63575000Y-47125000D02*
X63575000Y-45875000D01*
G75*
G02*
X63825000Y-45625000I250000J0D01*
G01*
X64575000Y-45625000D01*
G75*
G02*
X64825000Y-45875000I0J-250000D01*
G01*
X64825000Y-47125000D01*
G75*
G02*
X64575000Y-47375000I-250000J0D01*
G01*
X63825000Y-47375000D01*
G75*
G02*
X63575000Y-47125000I0J250000D01*
G01*
G37*
%TD.AperFunction*%
%TO.P,C3,2*%
%TO.N,/DC-GND*%
%TA.AperFunction,SMDPad,CuDef*%
G36*
G01*
X66375000Y-47125000D02*
X66375000Y-45875000D01*
G75*
G02*
X66625000Y-45625000I250000J0D01*
G01*
X67375000Y-45625000D01*
G75*
G02*
X67625000Y-45875000I0J-250000D01*
G01*
X67625000Y-47125000D01*
G75*
G02*
X67375000Y-47375000I-250000J0D01*
G01*
X66625000Y-47375000D01*
G75*
G02*
X66375000Y-47125000I0J250000D01*
G01*
G37*
%TD.AperFunction*%
%TD*%
D14*
%TO.P,C4,1*%
%TO.N,/DC+*%
X60500000Y-46500000D03*
%TO.P,C4,2*%
%TO.N,/DC-GND*%
X55000000Y-46500000D03*
%TD*%
%TO.P,C5,1*%
%TO.N,/RF+DC*%
%TA.AperFunction,SMDPad,CuDef*%
G36*
G01*
X57812500Y-30549999D02*
X57812500Y-33450001D01*
G75*
G02*
X57562501Y-33700000I-249999J0D01*
G01*
X56937499Y-33700000D01*
G75*
G02*
X56687500Y-33450001I0J249999D01*
G01*
X56687500Y-30549999D01*
G75*
G02*
X56937499Y-30300000I249999J0D01*
G01*
X57562501Y-30300000D01*
G75*
G02*
X57812500Y-30549999I0J-249999D01*
G01*
G37*
%TD.AperFunction*%
%TO.P,C5,2*%
%TO.N,/RF*%
%TA.AperFunction,SMDPad,CuDef*%
G36*
G01*
X53537500Y-30549999D02*
X53537500Y-33450001D01*
G75*
G02*
X53287501Y-33700000I-249999J0D01*
G01*
X52662499Y-33700000D01*
G75*
G02*
X52412500Y-33450001I0J249999D01*
G01*
X52412500Y-30549999D01*
G75*
G02*
X52662499Y-30300000I249999J0D01*
G01*
X53287501Y-30300000D01*
G75*
G02*
X53537500Y-30549999I0J-249999D01*
G01*
G37*
%TD.AperFunction*%
%TD*%
%TO.P,C6,2*%
%TO.N,/RF*%
%TA.AperFunction,SMDPad,CuDef*%
G36*
G01*
X53562500Y-26549999D02*
X53562500Y-29450001D01*
G75*
G02*
X53312501Y-29700000I-249999J0D01*
G01*
X52687499Y-29700000D01*
G75*
G02*
X52437500Y-29450001I0J249999D01*
G01*
X52437500Y-26549999D01*
G75*
G02*
X52687499Y-26300000I249999J0D01*
G01*
X53312501Y-26300000D01*
G75*
G02*
X53562500Y-26549999I0J-249999D01*
G01*
G37*
%TD.AperFunction*%
%TO.P,C6,1*%
%TO.N,/RF+DC*%
%TA.AperFunction,SMDPad,CuDef*%
G36*
G01*
X57837500Y-26549999D02*
X57837500Y-29450001D01*
G75*
G02*
X57587501Y-29700000I-249999J0D01*
G01*
X56962499Y-29700000D01*
G75*
G02*
X56712500Y-29450001I0J249999D01*
G01*
X56712500Y-26549999D01*
G75*
G02*
X56962499Y-26300000I249999J0D01*
G01*
X57587501Y-26300000D01*
G75*
G02*
X57837500Y-26549999I0J-249999D01*
G01*
G37*
%TD.AperFunction*%
%TD*%
D15*
%TO.P,D1,1*%
%TO.N,Net-(D1-Pad1)*%
X54700000Y-52000000D03*
%TO.P,D1,2*%
%TO.N,/DC-GND*%
X59000000Y-52000000D03*
%TD*%
D16*
%TO.P,F1,1*%
%TO.N,/DC+*%
X62000000Y-61500000D03*
%TO.P,F1,2*%
%TO.N,Net-(D1-Pad1)*%
X52800000Y-61500000D03*
%TD*%
%TO.P,L2,1*%
%TO.N,/RF+DC*%
%TA.AperFunction,SMDPad,CuDef*%
G36*
G01*
X61900000Y-33725000D02*
X63600000Y-33725000D01*
G75*
G02*
X63850000Y-33975000I0J-250000D01*
G01*
X63850000Y-34725000D01*
G75*
G02*
X63600000Y-34975000I-250000J0D01*
G01*
X61900000Y-34975000D01*
G75*
G02*
X61650000Y-34725000I0J250000D01*
G01*
X61650000Y-33975000D01*
G75*
G02*
X61900000Y-33725000I250000J0D01*
G01*
G37*
%TD.AperFunction*%
%TO.P,L2,2*%
%TO.N,/DC+*%
%TA.AperFunction,SMDPad,CuDef*%
G36*
G01*
X61900000Y-35875000D02*
X63600000Y-35875000D01*
G75*
G02*
X63850000Y-36125000I0J-250000D01*
G01*
X63850000Y-36875000D01*
G75*
G02*
X63600000Y-37125000I-250000J0D01*
G01*
X61900000Y-37125000D01*
G75*
G02*
X61650000Y-36875000I0J250000D01*
G01*
X61650000Y-36125000D01*
G75*
G02*
X61900000Y-35875000I250000J0D01*
G01*
G37*
%TD.AperFunction*%
%TD*%
D17*
%TO.N,/RF+DC*%
X57250000Y-32000000D02*
X57250000Y-36000000D01*
X57275000Y-28000000D02*
X57250000Y-28025000D01*
X57250000Y-28025000D02*
X57250000Y-32000000D01*
X62500000Y-32000000D02*
X62500000Y-34024990D01*
X62500000Y-34024990D02*
X62750000Y-34024990D01*
X73500000Y-32000000D02*
X62500000Y-32000000D01*
X62500000Y-32000000D02*
X57250000Y-32000000D01*
%TO.N,/RF*%
X52975000Y-32000000D02*
X42000000Y-32000000D01*
X53000000Y-28000000D02*
X52975000Y-28025000D01*
X52975000Y-28025000D02*
X52975000Y-32000000D01*
X52975000Y-32000000D02*
X52975000Y-36000000D01*
%TO.N,/DC-GND*%
X45589300Y-51210000D02*
X46000000Y-51210000D01*
X48700000Y-48510000D02*
X46000000Y-51210000D01*
X68000000Y-50710000D02*
X68000000Y-48960000D01*
X67000000Y-47960000D02*
X68000000Y-48960000D01*
X67000000Y-47960000D02*
X67000000Y-46500000D01*
X48700000Y-48510000D02*
X48700000Y-47000000D01*
X48700000Y-47000000D02*
X48700000Y-45700000D01*
X48700000Y-45700000D02*
X48000000Y-45000000D01*
X53074990Y-48425010D02*
X55000000Y-46500000D01*
X50125010Y-48425010D02*
X53074990Y-48425010D01*
X48700000Y-47000000D02*
X50125010Y-48425010D01*
X44500000Y-23500000D02*
X71000000Y-23500000D01*
X59000000Y-50500000D02*
X55000000Y-46500000D01*
X59000000Y-52000000D02*
X59000000Y-50500000D01*
%TO.N,/DC+*%
X62000000Y-61500000D02*
X68000000Y-55500000D01*
X68000000Y-55500000D02*
X68000000Y-53250000D01*
X60500000Y-46500000D02*
X64200000Y-46500000D01*
X58699999Y-44699999D02*
X60500000Y-46500000D01*
X52925001Y-44699999D02*
X58699999Y-44699999D01*
X51500000Y-46125000D02*
X52925001Y-44699999D01*
X51500000Y-47000000D02*
X51500000Y-46125000D01*
X62424990Y-36825010D02*
X62750000Y-36825010D01*
X58699999Y-40550001D02*
X62424990Y-36825010D01*
X58699999Y-44699999D02*
X58699999Y-40550001D01*
X64200000Y-50934924D02*
X64200000Y-46500000D01*
X66515076Y-53250000D02*
X64200000Y-50934924D01*
X68000000Y-53250000D02*
X66515076Y-53250000D01*
%TO.N,Net-(D1-Pad1)*%
X46000000Y-53750000D02*
X46000000Y-55500000D01*
X52800000Y-61500000D02*
X46800000Y-55500000D01*
X46800000Y-55500000D02*
X46000000Y-55500000D01*
X54700000Y-53700400D02*
X54700000Y-53850000D01*
X54700000Y-52925000D02*
X54700000Y-53700400D01*
X54700000Y-52925000D02*
X54700000Y-52000000D01*
X52800000Y-61500000D02*
X52800000Y-55750000D01*
X52800000Y-55750000D02*
X54700000Y-53850000D01*
%TD*%
D18*
%TO.N,/DC-GND*%
G36*
X78340001Y-74340000D02*
G01*
X37660000Y-74340000D01*
X37660000Y-52700000D01*
X44311928Y-52700000D01*
X44311928Y-54800000D01*
X44324188Y-54924482D01*
X44360498Y-55044180D01*
X44419463Y-55154494D01*
X44498815Y-55251185D01*
X44595506Y-55330537D01*
X44705820Y-55389502D01*
X44825518Y-55425812D01*
X44950000Y-55438072D01*
X45015001Y-55438072D01*
X45015001Y-55451610D01*
X45010235Y-55500000D01*
X45029253Y-55693094D01*
X45085576Y-55878767D01*
X45177040Y-56049884D01*
X45300130Y-56199870D01*
X45450116Y-56322960D01*
X45621233Y-56414424D01*
X45806906Y-56470747D01*
X45951620Y-56485000D01*
X46000000Y-56489765D01*
X46048380Y-56485000D01*
X46392000Y-56485000D01*
X50566600Y-60659600D01*
X50506654Y-60804321D01*
X50415000Y-61265098D01*
X50415000Y-61734902D01*
X50506654Y-62195679D01*
X50686440Y-62629721D01*
X50947450Y-63020349D01*
X51279651Y-63352550D01*
X51670279Y-63613560D01*
X52104321Y-63793346D01*
X52565098Y-63885000D01*
X53034902Y-63885000D01*
X53495679Y-63793346D01*
X53929721Y-63613560D01*
X54320349Y-63352550D01*
X54652550Y-63020349D01*
X54913560Y-62629721D01*
X55093346Y-62195679D01*
X55185000Y-61734902D01*
X55185000Y-61265098D01*
X55093346Y-60804321D01*
X54913560Y-60370279D01*
X54745840Y-60119268D01*
X55565000Y-60119268D01*
X55565000Y-60480732D01*
X55635518Y-60835250D01*
X55773844Y-61169199D01*
X55974662Y-61469744D01*
X56230256Y-61725338D01*
X56530801Y-61926156D01*
X56864750Y-62064482D01*
X57219268Y-62135000D01*
X57580732Y-62135000D01*
X57935250Y-62064482D01*
X58269199Y-61926156D01*
X58569744Y-61725338D01*
X58825338Y-61469744D01*
X59026156Y-61169199D01*
X59164482Y-60835250D01*
X59235000Y-60480732D01*
X59235000Y-60119268D01*
X59164482Y-59764750D01*
X59026156Y-59430801D01*
X58825338Y-59130256D01*
X58569744Y-58874662D01*
X58269199Y-58673844D01*
X57935250Y-58535518D01*
X57580732Y-58465000D01*
X57219268Y-58465000D01*
X56864750Y-58535518D01*
X56530801Y-58673844D01*
X56230256Y-58874662D01*
X55974662Y-59130256D01*
X55773844Y-59430801D01*
X55635518Y-59764750D01*
X55565000Y-60119268D01*
X54745840Y-60119268D01*
X54652550Y-59979651D01*
X54320349Y-59647450D01*
X53929721Y-59386440D01*
X53785000Y-59326495D01*
X53785000Y-56158000D01*
X55362290Y-54580711D01*
X55399870Y-54549870D01*
X55522960Y-54399884D01*
X55614424Y-54228767D01*
X55661687Y-54072960D01*
X55670747Y-54043094D01*
X55689765Y-53850000D01*
X55685000Y-53801620D01*
X55685000Y-53788072D01*
X55950000Y-53788072D01*
X56074482Y-53775812D01*
X56194180Y-53739502D01*
X56304494Y-53680537D01*
X56401185Y-53601185D01*
X56480537Y-53504494D01*
X56539502Y-53394180D01*
X56575812Y-53274482D01*
X56588072Y-53150000D01*
X56588072Y-50850000D01*
X56575812Y-50725518D01*
X56539502Y-50605820D01*
X56480537Y-50495506D01*
X56401185Y-50398815D01*
X56304494Y-50319463D01*
X56194180Y-50260498D01*
X56074482Y-50224188D01*
X55950000Y-50211928D01*
X53450000Y-50211928D01*
X53325518Y-50224188D01*
X53205820Y-50260498D01*
X53095506Y-50319463D01*
X52998815Y-50398815D01*
X52919463Y-50495506D01*
X52860498Y-50605820D01*
X52824188Y-50725518D01*
X52811928Y-50850000D01*
X52811928Y-53150000D01*
X52824188Y-53274482D01*
X52860498Y-53394180D01*
X52919463Y-53504494D01*
X52998815Y-53601185D01*
X53095506Y-53680537D01*
X53205820Y-53739502D01*
X53325518Y-53775812D01*
X53376196Y-53780803D01*
X52137711Y-55019289D01*
X52100131Y-55050130D01*
X51977041Y-55200116D01*
X51949744Y-55251185D01*
X51885576Y-55371234D01*
X51829253Y-55556907D01*
X51810235Y-55750000D01*
X51815001Y-55798390D01*
X51815000Y-59122000D01*
X47662236Y-54969236D01*
X47675812Y-54924482D01*
X47688072Y-54800000D01*
X47688072Y-52700000D01*
X47675812Y-52575518D01*
X47639502Y-52455820D01*
X47580537Y-52345506D01*
X47501185Y-52248815D01*
X47404494Y-52169463D01*
X47294180Y-52110498D01*
X47174482Y-52074188D01*
X47050000Y-52061928D01*
X44950000Y-52061928D01*
X44825518Y-52074188D01*
X44705820Y-52110498D01*
X44595506Y-52169463D01*
X44498815Y-52248815D01*
X44419463Y-52345506D01*
X44360498Y-52455820D01*
X44324188Y-52575518D01*
X44311928Y-52700000D01*
X37660000Y-52700000D01*
X37660000Y-38650000D01*
X38365128Y-38650000D01*
X38365128Y-41350000D01*
X38396542Y-41668948D01*
X38489575Y-41975638D01*
X38640654Y-42258286D01*
X38843971Y-42506029D01*
X39091714Y-42709346D01*
X39374362Y-42860425D01*
X39681052Y-42953458D01*
X40000000Y-42984872D01*
X44000000Y-42984872D01*
X44318948Y-42953458D01*
X44625638Y-42860425D01*
X44908286Y-42709346D01*
X45156029Y-42506029D01*
X45359346Y-42258286D01*
X45510425Y-41975638D01*
X45603458Y-41668948D01*
X45634872Y-41350000D01*
X45634872Y-38650000D01*
X45603458Y-38331052D01*
X45510425Y-38024362D01*
X45359346Y-37741714D01*
X45156029Y-37493971D01*
X44908286Y-37290654D01*
X44625638Y-37139575D01*
X44318948Y-37046542D01*
X44000000Y-37015128D01*
X40000000Y-37015128D01*
X39681052Y-37046542D01*
X39374362Y-37139575D01*
X39091714Y-37290654D01*
X38843971Y-37493971D01*
X38640654Y-37741714D01*
X38489575Y-38024362D01*
X38396542Y-38331052D01*
X38365128Y-38650000D01*
X37660000Y-38650000D01*
X37660000Y-30650000D01*
X38365128Y-30650000D01*
X38365128Y-33350000D01*
X38396542Y-33668948D01*
X38489575Y-33975638D01*
X38640654Y-34258286D01*
X38843971Y-34506029D01*
X39091714Y-34709346D01*
X39374362Y-34860425D01*
X39681052Y-34953458D01*
X40000000Y-34984872D01*
X44000000Y-34984872D01*
X44318948Y-34953458D01*
X44625638Y-34860425D01*
X44908286Y-34709346D01*
X45156029Y-34506029D01*
X45359346Y-34258286D01*
X45509697Y-33977000D01*
X50862162Y-33977000D01*
X50869139Y-34000000D01*
X50813845Y-34182279D01*
X50777628Y-34549999D01*
X50777628Y-37450001D01*
X50813845Y-37817721D01*
X50921105Y-38171310D01*
X51095286Y-38497179D01*
X51329694Y-38782806D01*
X51615321Y-39017214D01*
X51941190Y-39191395D01*
X52294779Y-39298655D01*
X52662499Y-39334872D01*
X53287501Y-39334872D01*
X53655221Y-39298655D01*
X54008810Y-39191395D01*
X54334679Y-39017214D01*
X54620306Y-38782806D01*
X54854714Y-38497179D01*
X55028895Y-38171310D01*
X55112500Y-37895701D01*
X55196105Y-38171310D01*
X55370286Y-38497179D01*
X55604694Y-38782806D01*
X55890321Y-39017214D01*
X56216190Y-39191395D01*
X56569779Y-39298655D01*
X56937499Y-39334872D01*
X57562501Y-39334872D01*
X57930221Y-39298655D01*
X58283810Y-39191395D01*
X58609679Y-39017214D01*
X58895306Y-38782806D01*
X59129714Y-38497179D01*
X59303895Y-38171310D01*
X59411155Y-37817721D01*
X59447372Y-37450001D01*
X59447372Y-34549999D01*
X59411155Y-34182279D01*
X59355861Y-34000000D01*
X59362838Y-33977000D01*
X60015128Y-33977000D01*
X60015128Y-34725000D01*
X60051345Y-35092720D01*
X60158605Y-35446309D01*
X60332786Y-35772179D01*
X60567194Y-36057806D01*
X60852821Y-36292214D01*
X61011928Y-36377258D01*
X61011928Y-36845071D01*
X58037710Y-39819290D01*
X58000130Y-39850131D01*
X57877040Y-40000117D01*
X57828151Y-40091582D01*
X57785575Y-40171235D01*
X57729252Y-40356908D01*
X57710234Y-40550001D01*
X57715000Y-40598391D01*
X57714999Y-43714999D01*
X52973381Y-43714999D01*
X52925001Y-43710234D01*
X52876621Y-43714999D01*
X52731907Y-43729252D01*
X52546234Y-43785575D01*
X52375117Y-43877039D01*
X52225131Y-44000129D01*
X52194290Y-44037709D01*
X50837711Y-45394289D01*
X50800131Y-45425130D01*
X50677041Y-45575116D01*
X50671450Y-45585576D01*
X50649206Y-45627192D01*
X50631614Y-45636595D01*
X50497038Y-45747038D01*
X50386595Y-45881614D01*
X50304528Y-46035150D01*
X50253992Y-46201746D01*
X50236928Y-46375000D01*
X50236928Y-47625000D01*
X50253992Y-47798254D01*
X50304528Y-47964850D01*
X50386595Y-48118386D01*
X50497038Y-48252962D01*
X50631614Y-48363405D01*
X50785150Y-48445472D01*
X50951746Y-48496008D01*
X51125000Y-48513072D01*
X51875000Y-48513072D01*
X52048254Y-48496008D01*
X52214850Y-48445472D01*
X52368386Y-48363405D01*
X52502962Y-48252962D01*
X52613405Y-48118386D01*
X52695472Y-47964850D01*
X52746008Y-47798254D01*
X52763072Y-47625000D01*
X52763072Y-46375000D01*
X52752306Y-46265694D01*
X53333002Y-45684999D01*
X58291999Y-45684999D01*
X58861928Y-46254928D01*
X58861928Y-47750000D01*
X58874188Y-47874482D01*
X58910498Y-47994180D01*
X58969463Y-48104494D01*
X59048815Y-48201185D01*
X59145506Y-48280537D01*
X59255820Y-48339502D01*
X59375518Y-48375812D01*
X59500000Y-48388072D01*
X61500000Y-48388072D01*
X61624482Y-48375812D01*
X61744180Y-48339502D01*
X61854494Y-48280537D01*
X61951185Y-48201185D01*
X62030537Y-48104494D01*
X62089502Y-47994180D01*
X62125812Y-47874482D01*
X62138072Y-47750000D01*
X62138072Y-47485000D01*
X63015298Y-47485000D01*
X63086595Y-47618386D01*
X63197038Y-47752962D01*
X63215001Y-47767704D01*
X63215000Y-50886544D01*
X63210235Y-50934924D01*
X63219526Y-51029253D01*
X63229253Y-51128017D01*
X63285576Y-51313690D01*
X63377040Y-51484808D01*
X63500130Y-51634794D01*
X63537716Y-51665640D01*
X65784365Y-53912290D01*
X65815206Y-53949870D01*
X65965192Y-54072960D01*
X66136309Y-54164424D01*
X66321982Y-54220747D01*
X66515076Y-54239765D01*
X66563456Y-54235000D01*
X66631623Y-54235000D01*
X66691175Y-54324125D01*
X66925875Y-54558825D01*
X67015000Y-54618377D01*
X67015000Y-55092000D01*
X62840400Y-59266600D01*
X62695679Y-59206654D01*
X62234902Y-59115000D01*
X61765098Y-59115000D01*
X61304321Y-59206654D01*
X60870279Y-59386440D01*
X60479651Y-59647450D01*
X60147450Y-59979651D01*
X59886440Y-60370279D01*
X59706654Y-60804321D01*
X59615000Y-61265098D01*
X59615000Y-61734902D01*
X59706654Y-62195679D01*
X59886440Y-62629721D01*
X60147450Y-63020349D01*
X60479651Y-63352550D01*
X60870279Y-63613560D01*
X61304321Y-63793346D01*
X61765098Y-63885000D01*
X62234902Y-63885000D01*
X62695679Y-63793346D01*
X63129721Y-63613560D01*
X63520349Y-63352550D01*
X63852550Y-63020349D01*
X64113560Y-62629721D01*
X64293346Y-62195679D01*
X64385000Y-61734902D01*
X64385000Y-61265098D01*
X64293346Y-60804321D01*
X64233400Y-60659600D01*
X68662284Y-56230716D01*
X68699870Y-56199870D01*
X68822960Y-56049884D01*
X68914424Y-55878767D01*
X68970747Y-55693094D01*
X68985000Y-55548380D01*
X68985000Y-55548379D01*
X68989765Y-55500001D01*
X68985000Y-55451621D01*
X68985000Y-54618377D01*
X69074125Y-54558825D01*
X69308825Y-54324125D01*
X69493228Y-54048147D01*
X69620246Y-53741496D01*
X69685000Y-53415958D01*
X69685000Y-53084042D01*
X69620246Y-52758504D01*
X69493228Y-52451853D01*
X69308825Y-52175875D01*
X69074125Y-51941175D01*
X68798147Y-51756772D01*
X68491496Y-51629754D01*
X68165958Y-51565000D01*
X67834042Y-51565000D01*
X67508504Y-51629754D01*
X67201853Y-51756772D01*
X66925875Y-51941175D01*
X66762563Y-52104487D01*
X65185000Y-50526924D01*
X65185000Y-47767703D01*
X65202962Y-47752962D01*
X65313405Y-47618386D01*
X65395472Y-47464850D01*
X65446008Y-47298254D01*
X65463072Y-47125000D01*
X65463072Y-45875000D01*
X65446008Y-45701746D01*
X65395472Y-45535150D01*
X65313405Y-45381614D01*
X65202962Y-45247038D01*
X65068386Y-45136595D01*
X64914850Y-45054528D01*
X64748254Y-45003992D01*
X64575000Y-44986928D01*
X63825000Y-44986928D01*
X63651746Y-45003992D01*
X63485150Y-45054528D01*
X63331614Y-45136595D01*
X63197038Y-45247038D01*
X63086595Y-45381614D01*
X63015298Y-45515000D01*
X62138072Y-45515000D01*
X62138072Y-45250000D01*
X62125812Y-45125518D01*
X62089502Y-45005820D01*
X62030537Y-44895506D01*
X61951185Y-44798815D01*
X61854494Y-44719463D01*
X61744180Y-44660498D01*
X61624482Y-44624188D01*
X61500000Y-44611928D01*
X60004928Y-44611928D01*
X59684999Y-44291999D01*
X59684999Y-40958001D01*
X61993000Y-38650000D01*
X69865128Y-38650000D01*
X69865128Y-41350000D01*
X69896542Y-41668948D01*
X69989575Y-41975638D01*
X70140654Y-42258286D01*
X70343971Y-42506029D01*
X70591714Y-42709346D01*
X70874362Y-42860425D01*
X71181052Y-42953458D01*
X71500000Y-42984872D01*
X75500000Y-42984872D01*
X75818948Y-42953458D01*
X76125638Y-42860425D01*
X76408286Y-42709346D01*
X76656029Y-42506029D01*
X76859346Y-42258286D01*
X77010425Y-41975638D01*
X77103458Y-41668948D01*
X77134872Y-41350000D01*
X77134872Y-38650000D01*
X77103458Y-38331052D01*
X77010425Y-38024362D01*
X76859346Y-37741714D01*
X76656029Y-37493971D01*
X76408286Y-37290654D01*
X76125638Y-37139575D01*
X75818948Y-37046542D01*
X75500000Y-37015128D01*
X71500000Y-37015128D01*
X71181052Y-37046542D01*
X70874362Y-37139575D01*
X70591714Y-37290654D01*
X70343971Y-37493971D01*
X70140654Y-37741714D01*
X69989575Y-38024362D01*
X69896542Y-38331052D01*
X69865128Y-38650000D01*
X61993000Y-38650000D01*
X62836772Y-37806229D01*
X62943094Y-37795757D01*
X63050843Y-37763072D01*
X63600000Y-37763072D01*
X63773254Y-37746008D01*
X63939850Y-37695472D01*
X64093386Y-37613405D01*
X64227962Y-37502962D01*
X64338405Y-37368386D01*
X64420472Y-37214850D01*
X64471008Y-37048254D01*
X64488072Y-36875000D01*
X64488072Y-36377258D01*
X64647179Y-36292214D01*
X64932806Y-36057806D01*
X65167214Y-35772179D01*
X65341395Y-35446309D01*
X65448655Y-35092720D01*
X65484872Y-34725000D01*
X65484872Y-33977000D01*
X69990303Y-33977000D01*
X70140654Y-34258286D01*
X70343971Y-34506029D01*
X70591714Y-34709346D01*
X70874362Y-34860425D01*
X71181052Y-34953458D01*
X71500000Y-34984872D01*
X75500000Y-34984872D01*
X75818948Y-34953458D01*
X76125638Y-34860425D01*
X76408286Y-34709346D01*
X76656029Y-34506029D01*
X76859346Y-34258286D01*
X77010425Y-33975638D01*
X77103458Y-33668948D01*
X77134872Y-33350000D01*
X77134872Y-30650000D01*
X77103458Y-30331052D01*
X77010425Y-30024362D01*
X76859346Y-29741714D01*
X76656029Y-29493971D01*
X76408286Y-29290654D01*
X76125638Y-29139575D01*
X75818948Y-29046542D01*
X75500000Y-29015128D01*
X71500000Y-29015128D01*
X71181052Y-29046542D01*
X70874362Y-29139575D01*
X70591714Y-29290654D01*
X70343971Y-29493971D01*
X70140654Y-29741714D01*
X69990303Y-30023000D01*
X62597116Y-30023000D01*
X62500000Y-30013435D01*
X62402884Y-30023000D01*
X59373884Y-30023000D01*
X59436155Y-29817721D01*
X59472372Y-29450001D01*
X59472372Y-26549999D01*
X59436155Y-26182279D01*
X59328895Y-25828690D01*
X59154714Y-25502821D01*
X58920306Y-25217194D01*
X58634679Y-24982786D01*
X58308810Y-24808605D01*
X57955221Y-24701345D01*
X57587501Y-24665128D01*
X56962499Y-24665128D01*
X56594779Y-24701345D01*
X56241190Y-24808605D01*
X55915321Y-24982786D01*
X55629694Y-25217194D01*
X55395286Y-25502821D01*
X55221105Y-25828690D01*
X55137500Y-26104299D01*
X55053895Y-25828690D01*
X54879714Y-25502821D01*
X54645306Y-25217194D01*
X54359679Y-24982786D01*
X54033810Y-24808605D01*
X53680221Y-24701345D01*
X53312501Y-24665128D01*
X52687499Y-24665128D01*
X52319779Y-24701345D01*
X51966190Y-24808605D01*
X51640321Y-24982786D01*
X51354694Y-25217194D01*
X51120286Y-25502821D01*
X50946105Y-25828690D01*
X50838845Y-26182279D01*
X50802628Y-26549999D01*
X50802628Y-29450001D01*
X50838845Y-29817721D01*
X50881639Y-29958793D01*
X50862162Y-30023000D01*
X45509697Y-30023000D01*
X45359346Y-29741714D01*
X45156029Y-29493971D01*
X44908286Y-29290654D01*
X44625638Y-29139575D01*
X44318948Y-29046542D01*
X44000000Y-29015128D01*
X40000000Y-29015128D01*
X39681052Y-29046542D01*
X39374362Y-29139575D01*
X39091714Y-29290654D01*
X38843971Y-29493971D01*
X38640654Y-29741714D01*
X38489575Y-30024362D01*
X38396542Y-30331052D01*
X38365128Y-30650000D01*
X37660000Y-30650000D01*
X37660000Y-19660000D01*
X78340000Y-19660000D01*
X78340001Y-74340000D01*
G37*
X78340001Y-74340000D02*
X37660000Y-74340000D01*
X37660000Y-52700000D01*
X44311928Y-52700000D01*
X44311928Y-54800000D01*
X44324188Y-54924482D01*
X44360498Y-55044180D01*
X44419463Y-55154494D01*
X44498815Y-55251185D01*
X44595506Y-55330537D01*
X44705820Y-55389502D01*
X44825518Y-55425812D01*
X44950000Y-55438072D01*
X45015001Y-55438072D01*
X45015001Y-55451610D01*
X45010235Y-55500000D01*
X45029253Y-55693094D01*
X45085576Y-55878767D01*
X45177040Y-56049884D01*
X45300130Y-56199870D01*
X45450116Y-56322960D01*
X45621233Y-56414424D01*
X45806906Y-56470747D01*
X45951620Y-56485000D01*
X46000000Y-56489765D01*
X46048380Y-56485000D01*
X46392000Y-56485000D01*
X50566600Y-60659600D01*
X50506654Y-60804321D01*
X50415000Y-61265098D01*
X50415000Y-61734902D01*
X50506654Y-62195679D01*
X50686440Y-62629721D01*
X50947450Y-63020349D01*
X51279651Y-63352550D01*
X51670279Y-63613560D01*
X52104321Y-63793346D01*
X52565098Y-63885000D01*
X53034902Y-63885000D01*
X53495679Y-63793346D01*
X53929721Y-63613560D01*
X54320349Y-63352550D01*
X54652550Y-63020349D01*
X54913560Y-62629721D01*
X55093346Y-62195679D01*
X55185000Y-61734902D01*
X55185000Y-61265098D01*
X55093346Y-60804321D01*
X54913560Y-60370279D01*
X54745840Y-60119268D01*
X55565000Y-60119268D01*
X55565000Y-60480732D01*
X55635518Y-60835250D01*
X55773844Y-61169199D01*
X55974662Y-61469744D01*
X56230256Y-61725338D01*
X56530801Y-61926156D01*
X56864750Y-62064482D01*
X57219268Y-62135000D01*
X57580732Y-62135000D01*
X57935250Y-62064482D01*
X58269199Y-61926156D01*
X58569744Y-61725338D01*
X58825338Y-61469744D01*
X59026156Y-61169199D01*
X59164482Y-60835250D01*
X59235000Y-60480732D01*
X59235000Y-60119268D01*
X59164482Y-59764750D01*
X59026156Y-59430801D01*
X58825338Y-59130256D01*
X58569744Y-58874662D01*
X58269199Y-58673844D01*
X57935250Y-58535518D01*
X57580732Y-58465000D01*
X57219268Y-58465000D01*
X56864750Y-58535518D01*
X56530801Y-58673844D01*
X56230256Y-58874662D01*
X55974662Y-59130256D01*
X55773844Y-59430801D01*
X55635518Y-59764750D01*
X55565000Y-60119268D01*
X54745840Y-60119268D01*
X54652550Y-59979651D01*
X54320349Y-59647450D01*
X53929721Y-59386440D01*
X53785000Y-59326495D01*
X53785000Y-56158000D01*
X55362290Y-54580711D01*
X55399870Y-54549870D01*
X55522960Y-54399884D01*
X55614424Y-54228767D01*
X55661687Y-54072960D01*
X55670747Y-54043094D01*
X55689765Y-53850000D01*
X55685000Y-53801620D01*
X55685000Y-53788072D01*
X55950000Y-53788072D01*
X56074482Y-53775812D01*
X56194180Y-53739502D01*
X56304494Y-53680537D01*
X56401185Y-53601185D01*
X56480537Y-53504494D01*
X56539502Y-53394180D01*
X56575812Y-53274482D01*
X56588072Y-53150000D01*
X56588072Y-50850000D01*
X56575812Y-50725518D01*
X56539502Y-50605820D01*
X56480537Y-50495506D01*
X56401185Y-50398815D01*
X56304494Y-50319463D01*
X56194180Y-50260498D01*
X56074482Y-50224188D01*
X55950000Y-50211928D01*
X53450000Y-50211928D01*
X53325518Y-50224188D01*
X53205820Y-50260498D01*
X53095506Y-50319463D01*
X52998815Y-50398815D01*
X52919463Y-50495506D01*
X52860498Y-50605820D01*
X52824188Y-50725518D01*
X52811928Y-50850000D01*
X52811928Y-53150000D01*
X52824188Y-53274482D01*
X52860498Y-53394180D01*
X52919463Y-53504494D01*
X52998815Y-53601185D01*
X53095506Y-53680537D01*
X53205820Y-53739502D01*
X53325518Y-53775812D01*
X53376196Y-53780803D01*
X52137711Y-55019289D01*
X52100131Y-55050130D01*
X51977041Y-55200116D01*
X51949744Y-55251185D01*
X51885576Y-55371234D01*
X51829253Y-55556907D01*
X51810235Y-55750000D01*
X51815001Y-55798390D01*
X51815000Y-59122000D01*
X47662236Y-54969236D01*
X47675812Y-54924482D01*
X47688072Y-54800000D01*
X47688072Y-52700000D01*
X47675812Y-52575518D01*
X47639502Y-52455820D01*
X47580537Y-52345506D01*
X47501185Y-52248815D01*
X47404494Y-52169463D01*
X47294180Y-52110498D01*
X47174482Y-52074188D01*
X47050000Y-52061928D01*
X44950000Y-52061928D01*
X44825518Y-52074188D01*
X44705820Y-52110498D01*
X44595506Y-52169463D01*
X44498815Y-52248815D01*
X44419463Y-52345506D01*
X44360498Y-52455820D01*
X44324188Y-52575518D01*
X44311928Y-52700000D01*
X37660000Y-52700000D01*
X37660000Y-38650000D01*
X38365128Y-38650000D01*
X38365128Y-41350000D01*
X38396542Y-41668948D01*
X38489575Y-41975638D01*
X38640654Y-42258286D01*
X38843971Y-42506029D01*
X39091714Y-42709346D01*
X39374362Y-42860425D01*
X39681052Y-42953458D01*
X40000000Y-42984872D01*
X44000000Y-42984872D01*
X44318948Y-42953458D01*
X44625638Y-42860425D01*
X44908286Y-42709346D01*
X45156029Y-42506029D01*
X45359346Y-42258286D01*
X45510425Y-41975638D01*
X45603458Y-41668948D01*
X45634872Y-41350000D01*
X45634872Y-38650000D01*
X45603458Y-38331052D01*
X45510425Y-38024362D01*
X45359346Y-37741714D01*
X45156029Y-37493971D01*
X44908286Y-37290654D01*
X44625638Y-37139575D01*
X44318948Y-37046542D01*
X44000000Y-37015128D01*
X40000000Y-37015128D01*
X39681052Y-37046542D01*
X39374362Y-37139575D01*
X39091714Y-37290654D01*
X38843971Y-37493971D01*
X38640654Y-37741714D01*
X38489575Y-38024362D01*
X38396542Y-38331052D01*
X38365128Y-38650000D01*
X37660000Y-38650000D01*
X37660000Y-30650000D01*
X38365128Y-30650000D01*
X38365128Y-33350000D01*
X38396542Y-33668948D01*
X38489575Y-33975638D01*
X38640654Y-34258286D01*
X38843971Y-34506029D01*
X39091714Y-34709346D01*
X39374362Y-34860425D01*
X39681052Y-34953458D01*
X40000000Y-34984872D01*
X44000000Y-34984872D01*
X44318948Y-34953458D01*
X44625638Y-34860425D01*
X44908286Y-34709346D01*
X45156029Y-34506029D01*
X45359346Y-34258286D01*
X45509697Y-33977000D01*
X50862162Y-33977000D01*
X50869139Y-34000000D01*
X50813845Y-34182279D01*
X50777628Y-34549999D01*
X50777628Y-37450001D01*
X50813845Y-37817721D01*
X50921105Y-38171310D01*
X51095286Y-38497179D01*
X51329694Y-38782806D01*
X51615321Y-39017214D01*
X51941190Y-39191395D01*
X52294779Y-39298655D01*
X52662499Y-39334872D01*
X53287501Y-39334872D01*
X53655221Y-39298655D01*
X54008810Y-39191395D01*
X54334679Y-39017214D01*
X54620306Y-38782806D01*
X54854714Y-38497179D01*
X55028895Y-38171310D01*
X55112500Y-37895701D01*
X55196105Y-38171310D01*
X55370286Y-38497179D01*
X55604694Y-38782806D01*
X55890321Y-39017214D01*
X56216190Y-39191395D01*
X56569779Y-39298655D01*
X56937499Y-39334872D01*
X57562501Y-39334872D01*
X57930221Y-39298655D01*
X58283810Y-39191395D01*
X58609679Y-39017214D01*
X58895306Y-38782806D01*
X59129714Y-38497179D01*
X59303895Y-38171310D01*
X59411155Y-37817721D01*
X59447372Y-37450001D01*
X59447372Y-34549999D01*
X59411155Y-34182279D01*
X59355861Y-34000000D01*
X59362838Y-33977000D01*
X60015128Y-33977000D01*
X60015128Y-34725000D01*
X60051345Y-35092720D01*
X60158605Y-35446309D01*
X60332786Y-35772179D01*
X60567194Y-36057806D01*
X60852821Y-36292214D01*
X61011928Y-36377258D01*
X61011928Y-36845071D01*
X58037710Y-39819290D01*
X58000130Y-39850131D01*
X57877040Y-40000117D01*
X57828151Y-40091582D01*
X57785575Y-40171235D01*
X57729252Y-40356908D01*
X57710234Y-40550001D01*
X57715000Y-40598391D01*
X57714999Y-43714999D01*
X52973381Y-43714999D01*
X52925001Y-43710234D01*
X52876621Y-43714999D01*
X52731907Y-43729252D01*
X52546234Y-43785575D01*
X52375117Y-43877039D01*
X52225131Y-44000129D01*
X52194290Y-44037709D01*
X50837711Y-45394289D01*
X50800131Y-45425130D01*
X50677041Y-45575116D01*
X50671450Y-45585576D01*
X50649206Y-45627192D01*
X50631614Y-45636595D01*
X50497038Y-45747038D01*
X50386595Y-45881614D01*
X50304528Y-46035150D01*
X50253992Y-46201746D01*
X50236928Y-46375000D01*
X50236928Y-47625000D01*
X50253992Y-47798254D01*
X50304528Y-47964850D01*
X50386595Y-48118386D01*
X50497038Y-48252962D01*
X50631614Y-48363405D01*
X50785150Y-48445472D01*
X50951746Y-48496008D01*
X51125000Y-48513072D01*
X51875000Y-48513072D01*
X52048254Y-48496008D01*
X52214850Y-48445472D01*
X52368386Y-48363405D01*
X52502962Y-48252962D01*
X52613405Y-48118386D01*
X52695472Y-47964850D01*
X52746008Y-47798254D01*
X52763072Y-47625000D01*
X52763072Y-46375000D01*
X52752306Y-46265694D01*
X53333002Y-45684999D01*
X58291999Y-45684999D01*
X58861928Y-46254928D01*
X58861928Y-47750000D01*
X58874188Y-47874482D01*
X58910498Y-47994180D01*
X58969463Y-48104494D01*
X59048815Y-48201185D01*
X59145506Y-48280537D01*
X59255820Y-48339502D01*
X59375518Y-48375812D01*
X59500000Y-48388072D01*
X61500000Y-48388072D01*
X61624482Y-48375812D01*
X61744180Y-48339502D01*
X61854494Y-48280537D01*
X61951185Y-48201185D01*
X62030537Y-48104494D01*
X62089502Y-47994180D01*
X62125812Y-47874482D01*
X62138072Y-47750000D01*
X62138072Y-47485000D01*
X63015298Y-47485000D01*
X63086595Y-47618386D01*
X63197038Y-47752962D01*
X63215001Y-47767704D01*
X63215000Y-50886544D01*
X63210235Y-50934924D01*
X63219526Y-51029253D01*
X63229253Y-51128017D01*
X63285576Y-51313690D01*
X63377040Y-51484808D01*
X63500130Y-51634794D01*
X63537716Y-51665640D01*
X65784365Y-53912290D01*
X65815206Y-53949870D01*
X65965192Y-54072960D01*
X66136309Y-54164424D01*
X66321982Y-54220747D01*
X66515076Y-54239765D01*
X66563456Y-54235000D01*
X66631623Y-54235000D01*
X66691175Y-54324125D01*
X66925875Y-54558825D01*
X67015000Y-54618377D01*
X67015000Y-55092000D01*
X62840400Y-59266600D01*
X62695679Y-59206654D01*
X62234902Y-59115000D01*
X61765098Y-59115000D01*
X61304321Y-59206654D01*
X60870279Y-59386440D01*
X60479651Y-59647450D01*
X60147450Y-59979651D01*
X59886440Y-60370279D01*
X59706654Y-60804321D01*
X59615000Y-61265098D01*
X59615000Y-61734902D01*
X59706654Y-62195679D01*
X59886440Y-62629721D01*
X60147450Y-63020349D01*
X60479651Y-63352550D01*
X60870279Y-63613560D01*
X61304321Y-63793346D01*
X61765098Y-63885000D01*
X62234902Y-63885000D01*
X62695679Y-63793346D01*
X63129721Y-63613560D01*
X63520349Y-63352550D01*
X63852550Y-63020349D01*
X64113560Y-62629721D01*
X64293346Y-62195679D01*
X64385000Y-61734902D01*
X64385000Y-61265098D01*
X64293346Y-60804321D01*
X64233400Y-60659600D01*
X68662284Y-56230716D01*
X68699870Y-56199870D01*
X68822960Y-56049884D01*
X68914424Y-55878767D01*
X68970747Y-55693094D01*
X68985000Y-55548380D01*
X68985000Y-55548379D01*
X68989765Y-55500001D01*
X68985000Y-55451621D01*
X68985000Y-54618377D01*
X69074125Y-54558825D01*
X69308825Y-54324125D01*
X69493228Y-54048147D01*
X69620246Y-53741496D01*
X69685000Y-53415958D01*
X69685000Y-53084042D01*
X69620246Y-52758504D01*
X69493228Y-52451853D01*
X69308825Y-52175875D01*
X69074125Y-51941175D01*
X68798147Y-51756772D01*
X68491496Y-51629754D01*
X68165958Y-51565000D01*
X67834042Y-51565000D01*
X67508504Y-51629754D01*
X67201853Y-51756772D01*
X66925875Y-51941175D01*
X66762563Y-52104487D01*
X65185000Y-50526924D01*
X65185000Y-47767703D01*
X65202962Y-47752962D01*
X65313405Y-47618386D01*
X65395472Y-47464850D01*
X65446008Y-47298254D01*
X65463072Y-47125000D01*
X65463072Y-45875000D01*
X65446008Y-45701746D01*
X65395472Y-45535150D01*
X65313405Y-45381614D01*
X65202962Y-45247038D01*
X65068386Y-45136595D01*
X64914850Y-45054528D01*
X64748254Y-45003992D01*
X64575000Y-44986928D01*
X63825000Y-44986928D01*
X63651746Y-45003992D01*
X63485150Y-45054528D01*
X63331614Y-45136595D01*
X63197038Y-45247038D01*
X63086595Y-45381614D01*
X63015298Y-45515000D01*
X62138072Y-45515000D01*
X62138072Y-45250000D01*
X62125812Y-45125518D01*
X62089502Y-45005820D01*
X62030537Y-44895506D01*
X61951185Y-44798815D01*
X61854494Y-44719463D01*
X61744180Y-44660498D01*
X61624482Y-44624188D01*
X61500000Y-44611928D01*
X60004928Y-44611928D01*
X59684999Y-44291999D01*
X59684999Y-40958001D01*
X61993000Y-38650000D01*
X69865128Y-38650000D01*
X69865128Y-41350000D01*
X69896542Y-41668948D01*
X69989575Y-41975638D01*
X70140654Y-42258286D01*
X70343971Y-42506029D01*
X70591714Y-42709346D01*
X70874362Y-42860425D01*
X71181052Y-42953458D01*
X71500000Y-42984872D01*
X75500000Y-42984872D01*
X75818948Y-42953458D01*
X76125638Y-42860425D01*
X76408286Y-42709346D01*
X76656029Y-42506029D01*
X76859346Y-42258286D01*
X77010425Y-41975638D01*
X77103458Y-41668948D01*
X77134872Y-41350000D01*
X77134872Y-38650000D01*
X77103458Y-38331052D01*
X77010425Y-38024362D01*
X76859346Y-37741714D01*
X76656029Y-37493971D01*
X76408286Y-37290654D01*
X76125638Y-37139575D01*
X75818948Y-37046542D01*
X75500000Y-37015128D01*
X71500000Y-37015128D01*
X71181052Y-37046542D01*
X70874362Y-37139575D01*
X70591714Y-37290654D01*
X70343971Y-37493971D01*
X70140654Y-37741714D01*
X69989575Y-38024362D01*
X69896542Y-38331052D01*
X69865128Y-38650000D01*
X61993000Y-38650000D01*
X62836772Y-37806229D01*
X62943094Y-37795757D01*
X63050843Y-37763072D01*
X63600000Y-37763072D01*
X63773254Y-37746008D01*
X63939850Y-37695472D01*
X64093386Y-37613405D01*
X64227962Y-37502962D01*
X64338405Y-37368386D01*
X64420472Y-37214850D01*
X64471008Y-37048254D01*
X64488072Y-36875000D01*
X64488072Y-36377258D01*
X64647179Y-36292214D01*
X64932806Y-36057806D01*
X65167214Y-35772179D01*
X65341395Y-35446309D01*
X65448655Y-35092720D01*
X65484872Y-34725000D01*
X65484872Y-33977000D01*
X69990303Y-33977000D01*
X70140654Y-34258286D01*
X70343971Y-34506029D01*
X70591714Y-34709346D01*
X70874362Y-34860425D01*
X71181052Y-34953458D01*
X71500000Y-34984872D01*
X75500000Y-34984872D01*
X75818948Y-34953458D01*
X76125638Y-34860425D01*
X76408286Y-34709346D01*
X76656029Y-34506029D01*
X76859346Y-34258286D01*
X77010425Y-33975638D01*
X77103458Y-33668948D01*
X77134872Y-33350000D01*
X77134872Y-30650000D01*
X77103458Y-30331052D01*
X77010425Y-30024362D01*
X76859346Y-29741714D01*
X76656029Y-29493971D01*
X76408286Y-29290654D01*
X76125638Y-29139575D01*
X75818948Y-29046542D01*
X75500000Y-29015128D01*
X71500000Y-29015128D01*
X71181052Y-29046542D01*
X70874362Y-29139575D01*
X70591714Y-29290654D01*
X70343971Y-29493971D01*
X70140654Y-29741714D01*
X69990303Y-30023000D01*
X62597116Y-30023000D01*
X62500000Y-30013435D01*
X62402884Y-30023000D01*
X59373884Y-30023000D01*
X59436155Y-29817721D01*
X59472372Y-29450001D01*
X59472372Y-26549999D01*
X59436155Y-26182279D01*
X59328895Y-25828690D01*
X59154714Y-25502821D01*
X58920306Y-25217194D01*
X58634679Y-24982786D01*
X58308810Y-24808605D01*
X57955221Y-24701345D01*
X57587501Y-24665128D01*
X56962499Y-24665128D01*
X56594779Y-24701345D01*
X56241190Y-24808605D01*
X55915321Y-24982786D01*
X55629694Y-25217194D01*
X55395286Y-25502821D01*
X55221105Y-25828690D01*
X55137500Y-26104299D01*
X55053895Y-25828690D01*
X54879714Y-25502821D01*
X54645306Y-25217194D01*
X54359679Y-24982786D01*
X54033810Y-24808605D01*
X53680221Y-24701345D01*
X53312501Y-24665128D01*
X52687499Y-24665128D01*
X52319779Y-24701345D01*
X51966190Y-24808605D01*
X51640321Y-24982786D01*
X51354694Y-25217194D01*
X51120286Y-25502821D01*
X50946105Y-25828690D01*
X50838845Y-26182279D01*
X50802628Y-26549999D01*
X50802628Y-29450001D01*
X50838845Y-29817721D01*
X50881639Y-29958793D01*
X50862162Y-30023000D01*
X45509697Y-30023000D01*
X45359346Y-29741714D01*
X45156029Y-29493971D01*
X44908286Y-29290654D01*
X44625638Y-29139575D01*
X44318948Y-29046542D01*
X44000000Y-29015128D01*
X40000000Y-29015128D01*
X39681052Y-29046542D01*
X39374362Y-29139575D01*
X39091714Y-29290654D01*
X38843971Y-29493971D01*
X38640654Y-29741714D01*
X38489575Y-30024362D01*
X38396542Y-30331052D01*
X38365128Y-30650000D01*
X37660000Y-30650000D01*
X37660000Y-19660000D01*
X78340000Y-19660000D01*
X78340001Y-74340000D01*
%TD*%
M02*
