%TF.GenerationSoftware,KiCad,Pcbnew,5.1.6-c6e7f7d~87~ubuntu20.04.1*%
%TF.CreationDate,2020-09-01T11:45:50+02:00*%
%TF.ProjectId,bias-t-injector-smd,62696173-2d74-42d6-996e-6a6563746f72,rev?*%
%TF.SameCoordinates,Original*%
%TF.FileFunction,Legend,Top*%
%TF.FilePolarity,Positive*%
%FSLAX46Y46*%
G04 Gerber Fmt 4.6, Leading zero omitted, Abs format (unit mm)*
G04 Created by KiCad (PCBNEW 5.1.6-c6e7f7d~87~ubuntu20.04.1) date 2020-09-01 11:45:50*
%MOMM*%
%LPD*%
G01*
G04 APERTURE LIST*
%ADD10C,0.150000*%
%ADD11C,0.120000*%
G04 APERTURE END LIST*
D10*
X57014285Y-65904761D02*
X55871428Y-65904761D01*
X56442857Y-65904761D02*
X56442857Y-63904761D01*
X56252380Y-64190476D01*
X56061904Y-64380952D01*
X55871428Y-64476190D01*
X57776190Y-65333333D02*
X58728571Y-65333333D01*
X57585714Y-65904761D02*
X58252380Y-63904761D01*
X58919047Y-65904761D01*
D11*
X57700000Y-52000000D02*
X57400000Y-52000000D01*
X57400000Y-52700000D02*
X56200000Y-52000000D01*
X57400000Y-52700000D02*
X57400000Y-51200000D01*
X56200000Y-52000000D02*
X57400000Y-51200000D01*
X56000000Y-52000000D02*
X56200000Y-52000000D01*
X56200000Y-52000000D02*
X56000000Y-52000000D01*
X56200000Y-51200000D02*
X56200000Y-52800000D01*
D10*
X41392857Y-49928571D02*
X41392857Y-51071428D01*
X41392857Y-53928571D02*
X41392857Y-55071428D01*
X40821428Y-54500000D02*
X41964285Y-54500000D01*
D11*
%TO.C,J2*%
X49610000Y-55610000D02*
X49610000Y-55210000D01*
X48970000Y-55610000D02*
X49610000Y-55610000D01*
X42630000Y-49590000D02*
X49370000Y-49590000D01*
X42630000Y-55370000D02*
X49370000Y-55370000D01*
X49370000Y-55370000D02*
X49370000Y-49590000D01*
X42630000Y-55370000D02*
X42630000Y-49590000D01*
X43750000Y-55370000D02*
X43750000Y-49590000D01*
X48850000Y-55370000D02*
X48850000Y-49590000D01*
%TO.C,LA1*%
X64390000Y-48850000D02*
X64390000Y-49250000D01*
X65030000Y-48850000D02*
X64390000Y-48850000D01*
X71370000Y-54870000D02*
X64630000Y-54870000D01*
X71370000Y-49090000D02*
X64630000Y-49090000D01*
X64630000Y-49090000D02*
X64630000Y-54870000D01*
X71370000Y-49090000D02*
X71370000Y-54870000D01*
X70250000Y-49090000D02*
X70250000Y-54870000D01*
X65150000Y-49090000D02*
X65150000Y-54870000D01*
%TO.C,C1*%
X56498752Y-37710000D02*
X53726248Y-37710000D01*
X56498752Y-34290000D02*
X53726248Y-34290000D01*
%TO.C,C2*%
X50702064Y-46090000D02*
X49497936Y-46090000D01*
X50702064Y-47910000D02*
X49497936Y-47910000D01*
%TO.C,C3*%
X64997936Y-45590000D02*
X66202064Y-45590000D01*
X64997936Y-47410000D02*
X66202064Y-47410000D01*
%TO.C,C4*%
X61750000Y-48000000D02*
X53750000Y-48000000D01*
X53750000Y-48000000D02*
X53750000Y-45000000D01*
X53750000Y-45000000D02*
X61750000Y-45000000D01*
X61750000Y-45000000D02*
X61750000Y-48000000D01*
%TO.C,C5*%
X56498752Y-33710000D02*
X53726248Y-33710000D01*
X56498752Y-30290000D02*
X53726248Y-30290000D01*
%TO.C,C6*%
X56523752Y-26290000D02*
X53751248Y-26290000D01*
X56523752Y-29710000D02*
X53751248Y-29710000D01*
%TO.C,D1*%
X53300000Y-49850000D02*
X53300000Y-54150000D01*
X53300000Y-54150000D02*
X59000000Y-54150000D01*
X53300000Y-49850000D02*
X59000000Y-49850000D01*
%TO.C,F1*%
X67400000Y-63300000D02*
X62810000Y-63300000D01*
X47400000Y-63300000D02*
X47400000Y-57300000D01*
X47400000Y-57300000D02*
X67400000Y-57300000D01*
X67400000Y-57300000D02*
X67400000Y-63300000D01*
X61190000Y-63300000D02*
X53620000Y-63300000D01*
X51980000Y-63300000D02*
X47400000Y-63300000D01*
%TO.C,L2*%
X63860000Y-35163748D02*
X63860000Y-35686252D01*
X61640000Y-35163748D02*
X61640000Y-35686252D01*
%TO.C,J1*%
D10*
X41666666Y-31952380D02*
X41666666Y-32666666D01*
X41619047Y-32809523D01*
X41523809Y-32904761D01*
X41380952Y-32952380D01*
X41285714Y-32952380D01*
X42666666Y-32952380D02*
X42095238Y-32952380D01*
X42380952Y-32952380D02*
X42380952Y-31952380D01*
X42285714Y-32095238D01*
X42190476Y-32190476D01*
X42095238Y-32238095D01*
%TO.C,J2*%
X41082380Y-52813333D02*
X41796666Y-52813333D01*
X41939523Y-52860952D01*
X42034761Y-52956190D01*
X42082380Y-53099047D01*
X42082380Y-53194285D01*
X41177619Y-52384761D02*
X41130000Y-52337142D01*
X41082380Y-52241904D01*
X41082380Y-52003809D01*
X41130000Y-51908571D01*
X41177619Y-51860952D01*
X41272857Y-51813333D01*
X41368095Y-51813333D01*
X41510952Y-51860952D01*
X42082380Y-52432380D01*
X42082380Y-51813333D01*
%TO.C,J3*%
X73166666Y-31952380D02*
X73166666Y-32666666D01*
X73119047Y-32809523D01*
X73023809Y-32904761D01*
X72880952Y-32952380D01*
X72785714Y-32952380D01*
X73547619Y-31952380D02*
X74166666Y-31952380D01*
X73833333Y-32333333D01*
X73976190Y-32333333D01*
X74071428Y-32380952D01*
X74119047Y-32428571D01*
X74166666Y-32523809D01*
X74166666Y-32761904D01*
X74119047Y-32857142D01*
X74071428Y-32904761D01*
X73976190Y-32952380D01*
X73690476Y-32952380D01*
X73595238Y-32904761D01*
X73547619Y-32857142D01*
%TO.C,LA1*%
X72822380Y-52575238D02*
X72822380Y-53051428D01*
X71822380Y-53051428D01*
X72536666Y-52289523D02*
X72536666Y-51813333D01*
X72822380Y-52384761D02*
X71822380Y-52051428D01*
X72822380Y-51718095D01*
X72822380Y-50860952D02*
X72822380Y-51432380D01*
X72822380Y-51146666D02*
X71822380Y-51146666D01*
X71965238Y-51241904D01*
X72060476Y-51337142D01*
X72108095Y-51432380D01*
%TO.C,H1*%
X43738095Y-19202380D02*
X43738095Y-18202380D01*
X43738095Y-18678571D02*
X44309523Y-18678571D01*
X44309523Y-19202380D02*
X44309523Y-18202380D01*
X45309523Y-19202380D02*
X44738095Y-19202380D01*
X45023809Y-19202380D02*
X45023809Y-18202380D01*
X44928571Y-18345238D01*
X44833333Y-18440476D01*
X44738095Y-18488095D01*
%TO.C,H2*%
X70238095Y-66202380D02*
X70238095Y-65202380D01*
X70238095Y-65678571D02*
X70809523Y-65678571D01*
X70809523Y-66202380D02*
X70809523Y-65202380D01*
X71238095Y-65297619D02*
X71285714Y-65250000D01*
X71380952Y-65202380D01*
X71619047Y-65202380D01*
X71714285Y-65250000D01*
X71761904Y-65297619D01*
X71809523Y-65392857D01*
X71809523Y-65488095D01*
X71761904Y-65630952D01*
X71190476Y-66202380D01*
X71809523Y-66202380D01*
%TO.C,H3*%
X43738095Y-66202380D02*
X43738095Y-65202380D01*
X43738095Y-65678571D02*
X44309523Y-65678571D01*
X44309523Y-66202380D02*
X44309523Y-65202380D01*
X44690476Y-65202380D02*
X45309523Y-65202380D01*
X44976190Y-65583333D01*
X45119047Y-65583333D01*
X45214285Y-65630952D01*
X45261904Y-65678571D01*
X45309523Y-65773809D01*
X45309523Y-66011904D01*
X45261904Y-66107142D01*
X45214285Y-66154761D01*
X45119047Y-66202380D01*
X44833333Y-66202380D01*
X44738095Y-66154761D01*
X44690476Y-66107142D01*
%TO.C,H4*%
X70238095Y-19202380D02*
X70238095Y-18202380D01*
X70238095Y-18678571D02*
X70809523Y-18678571D01*
X70809523Y-19202380D02*
X70809523Y-18202380D01*
X71714285Y-18535714D02*
X71714285Y-19202380D01*
X71476190Y-18154761D02*
X71238095Y-18869047D01*
X71857142Y-18869047D01*
%TO.C,C1*%
X54945833Y-36357142D02*
X54898214Y-36404761D01*
X54755357Y-36452380D01*
X54660119Y-36452380D01*
X54517261Y-36404761D01*
X54422023Y-36309523D01*
X54374404Y-36214285D01*
X54326785Y-36023809D01*
X54326785Y-35880952D01*
X54374404Y-35690476D01*
X54422023Y-35595238D01*
X54517261Y-35500000D01*
X54660119Y-35452380D01*
X54755357Y-35452380D01*
X54898214Y-35500000D01*
X54945833Y-35547619D01*
X55898214Y-36452380D02*
X55326785Y-36452380D01*
X55612500Y-36452380D02*
X55612500Y-35452380D01*
X55517261Y-35595238D01*
X55422023Y-35690476D01*
X55326785Y-35738095D01*
%TO.C,C2*%
X49733333Y-45557142D02*
X49685714Y-45604761D01*
X49542857Y-45652380D01*
X49447619Y-45652380D01*
X49304761Y-45604761D01*
X49209523Y-45509523D01*
X49161904Y-45414285D01*
X49114285Y-45223809D01*
X49114285Y-45080952D01*
X49161904Y-44890476D01*
X49209523Y-44795238D01*
X49304761Y-44700000D01*
X49447619Y-44652380D01*
X49542857Y-44652380D01*
X49685714Y-44700000D01*
X49733333Y-44747619D01*
X50114285Y-44747619D02*
X50161904Y-44700000D01*
X50257142Y-44652380D01*
X50495238Y-44652380D01*
X50590476Y-44700000D01*
X50638095Y-44747619D01*
X50685714Y-44842857D01*
X50685714Y-44938095D01*
X50638095Y-45080952D01*
X50066666Y-45652380D01*
X50685714Y-45652380D01*
%TO.C,C3*%
X65533333Y-45057142D02*
X65485714Y-45104761D01*
X65342857Y-45152380D01*
X65247619Y-45152380D01*
X65104761Y-45104761D01*
X65009523Y-45009523D01*
X64961904Y-44914285D01*
X64914285Y-44723809D01*
X64914285Y-44580952D01*
X64961904Y-44390476D01*
X65009523Y-44295238D01*
X65104761Y-44200000D01*
X65247619Y-44152380D01*
X65342857Y-44152380D01*
X65485714Y-44200000D01*
X65533333Y-44247619D01*
X65866666Y-44152380D02*
X66485714Y-44152380D01*
X66152380Y-44533333D01*
X66295238Y-44533333D01*
X66390476Y-44580952D01*
X66438095Y-44628571D01*
X66485714Y-44723809D01*
X66485714Y-44961904D01*
X66438095Y-45057142D01*
X66390476Y-45104761D01*
X66295238Y-45152380D01*
X66009523Y-45152380D01*
X65914285Y-45104761D01*
X65866666Y-45057142D01*
%TO.C,C4*%
X57433333Y-46757142D02*
X57385714Y-46804761D01*
X57242857Y-46852380D01*
X57147619Y-46852380D01*
X57004761Y-46804761D01*
X56909523Y-46709523D01*
X56861904Y-46614285D01*
X56814285Y-46423809D01*
X56814285Y-46280952D01*
X56861904Y-46090476D01*
X56909523Y-45995238D01*
X57004761Y-45900000D01*
X57147619Y-45852380D01*
X57242857Y-45852380D01*
X57385714Y-45900000D01*
X57433333Y-45947619D01*
X58290476Y-46185714D02*
X58290476Y-46852380D01*
X58052380Y-45804761D02*
X57814285Y-46519047D01*
X58433333Y-46519047D01*
%TO.C,C5*%
X54945833Y-32357142D02*
X54898214Y-32404761D01*
X54755357Y-32452380D01*
X54660119Y-32452380D01*
X54517261Y-32404761D01*
X54422023Y-32309523D01*
X54374404Y-32214285D01*
X54326785Y-32023809D01*
X54326785Y-31880952D01*
X54374404Y-31690476D01*
X54422023Y-31595238D01*
X54517261Y-31500000D01*
X54660119Y-31452380D01*
X54755357Y-31452380D01*
X54898214Y-31500000D01*
X54945833Y-31547619D01*
X55850595Y-31452380D02*
X55374404Y-31452380D01*
X55326785Y-31928571D01*
X55374404Y-31880952D01*
X55469642Y-31833333D01*
X55707738Y-31833333D01*
X55802976Y-31880952D01*
X55850595Y-31928571D01*
X55898214Y-32023809D01*
X55898214Y-32261904D01*
X55850595Y-32357142D01*
X55802976Y-32404761D01*
X55707738Y-32452380D01*
X55469642Y-32452380D01*
X55374404Y-32404761D01*
X55326785Y-32357142D01*
%TO.C,C6*%
X55033333Y-28357142D02*
X54985714Y-28404761D01*
X54842857Y-28452380D01*
X54747619Y-28452380D01*
X54604761Y-28404761D01*
X54509523Y-28309523D01*
X54461904Y-28214285D01*
X54414285Y-28023809D01*
X54414285Y-27880952D01*
X54461904Y-27690476D01*
X54509523Y-27595238D01*
X54604761Y-27500000D01*
X54747619Y-27452380D01*
X54842857Y-27452380D01*
X54985714Y-27500000D01*
X55033333Y-27547619D01*
X55890476Y-27452380D02*
X55700000Y-27452380D01*
X55604761Y-27500000D01*
X55557142Y-27547619D01*
X55461904Y-27690476D01*
X55414285Y-27880952D01*
X55414285Y-28261904D01*
X55461904Y-28357142D01*
X55509523Y-28404761D01*
X55604761Y-28452380D01*
X55795238Y-28452380D01*
X55890476Y-28404761D01*
X55938095Y-28357142D01*
X55985714Y-28261904D01*
X55985714Y-28023809D01*
X55938095Y-27928571D01*
X55890476Y-27880952D01*
X55795238Y-27833333D01*
X55604761Y-27833333D01*
X55509523Y-27880952D01*
X55461904Y-27928571D01*
X55414285Y-28023809D01*
%TO.C,D1*%
X56111904Y-49452380D02*
X56111904Y-48452380D01*
X56350000Y-48452380D01*
X56492857Y-48500000D01*
X56588095Y-48595238D01*
X56635714Y-48690476D01*
X56683333Y-48880952D01*
X56683333Y-49023809D01*
X56635714Y-49214285D01*
X56588095Y-49309523D01*
X56492857Y-49404761D01*
X56350000Y-49452380D01*
X56111904Y-49452380D01*
X57635714Y-49452380D02*
X57064285Y-49452380D01*
X57350000Y-49452380D02*
X57350000Y-48452380D01*
X57254761Y-48595238D01*
X57159523Y-48690476D01*
X57064285Y-48738095D01*
%TO.C,F1*%
X57166666Y-57928571D02*
X56833333Y-57928571D01*
X56833333Y-58452380D02*
X56833333Y-57452380D01*
X57309523Y-57452380D01*
X58214285Y-58452380D02*
X57642857Y-58452380D01*
X57928571Y-58452380D02*
X57928571Y-57452380D01*
X57833333Y-57595238D01*
X57738095Y-57690476D01*
X57642857Y-57738095D01*
%TO.C,L2*%
X65252380Y-35591666D02*
X65252380Y-36067857D01*
X64252380Y-36067857D01*
X64347619Y-35305952D02*
X64300000Y-35258333D01*
X64252380Y-35163095D01*
X64252380Y-34925000D01*
X64300000Y-34829761D01*
X64347619Y-34782142D01*
X64442857Y-34734523D01*
X64538095Y-34734523D01*
X64680952Y-34782142D01*
X65252380Y-35353571D01*
X65252380Y-34734523D01*
%TD*%
M02*
