%TF.GenerationSoftware,KiCad,Pcbnew,5.1.6-c6e7f7d~87~ubuntu20.04.1*%
%TF.CreationDate,2020-09-21T11:46:00+02:00*%
%TF.ProjectId,bias-t-injector-smd,62696173-2d74-42d6-996e-6a6563746f72,rev?*%
%TF.SameCoordinates,Original*%
%TF.FileFunction,Copper,L1,Top*%
%TF.FilePolarity,Positive*%
%FSLAX46Y46*%
G04 Gerber Fmt 4.6, Leading zero omitted, Abs format (unit mm)*
G04 Created by KiCad (PCBNEW 5.1.6-c6e7f7d~87~ubuntu20.04.1) date 2020-09-21 11:46:00*
%MOMM*%
%LPD*%
G01*
G04 APERTURE LIST*
%TA.AperFunction,ComponentPad*%
%ADD10R,4.000000X2.700000*%
%TD*%
%TA.AperFunction,ComponentPad*%
%ADD11C,2.100000*%
%TD*%
%TA.AperFunction,ComponentPad*%
%ADD12R,2.100000X2.100000*%
%TD*%
%TA.AperFunction,ComponentPad*%
%ADD13C,7.500000*%
%TD*%
%TA.AperFunction,SMDPad,CuDef*%
%ADD14R,2.000000X2.500000*%
%TD*%
%TA.AperFunction,SMDPad,CuDef*%
%ADD15R,2.500000X2.300000*%
%TD*%
%TA.AperFunction,ComponentPad*%
%ADD16C,3.500000*%
%TD*%
%TA.AperFunction,SMDPad,CuDef*%
%ADD17R,3.200000X2.000000*%
%TD*%
%TA.AperFunction,ConnectorPad*%
%ADD18R,2.000000X3.200000*%
%TD*%
%TA.AperFunction,SMDPad,CuDef*%
%ADD19R,2.000000X3.200000*%
%TD*%
%TA.AperFunction,ViaPad*%
%ADD20C,0.800000*%
%TD*%
%TA.AperFunction,Conductor*%
%ADD21C,0.700000*%
%TD*%
%TA.AperFunction,Conductor*%
%ADD22C,2.500000*%
%TD*%
%TA.AperFunction,Conductor*%
%ADD23C,0.254000*%
%TD*%
G04 APERTURE END LIST*
D10*
%TO.P,J1,2*%
%TO.N,/RF-GND*%
X42000000Y-40000000D03*
%TO.P,J1,1*%
%TO.N,/RF*%
X42000000Y-32000000D03*
%TD*%
D11*
%TO.P,J2,2*%
%TO.N,/GND*%
X46000000Y-54460000D03*
D12*
%TO.P,J2,1*%
%TO.N,Net-(D1-Pad1)*%
X46000000Y-57000000D03*
%TD*%
D10*
%TO.P,J3,2*%
%TO.N,/RF-GND*%
X73500000Y-40000000D03*
%TO.P,J3,1*%
%TO.N,/RF+DC*%
X73500000Y-32000000D03*
%TD*%
D11*
%TO.P,LA1,2*%
%TO.N,Net-(C2-Pad1)*%
X68000000Y-57000000D03*
D12*
%TO.P,LA1,1*%
%TO.N,/GND*%
X68000000Y-54460000D03*
%TD*%
D13*
%TO.P,H1,1*%
%TO.N,/GND*%
X44500000Y-23500000D03*
%TD*%
%TO.P,H2,1*%
%TO.N,/GND*%
X71000000Y-70500000D03*
%TD*%
%TO.P,H3,1*%
%TO.N,/GND*%
X44500000Y-70500000D03*
%TD*%
%TO.P,H4,1*%
%TO.N,/GND*%
X71000000Y-23500000D03*
%TD*%
%TO.P,C1,1*%
%TO.N,/RF+DC*%
%TA.AperFunction,SMDPad,CuDef*%
G36*
G01*
X57812500Y-34549999D02*
X57812500Y-37450001D01*
G75*
G02*
X57562501Y-37700000I-249999J0D01*
G01*
X56937499Y-37700000D01*
G75*
G02*
X56687500Y-37450001I0J249999D01*
G01*
X56687500Y-34549999D01*
G75*
G02*
X56937499Y-34300000I249999J0D01*
G01*
X57562501Y-34300000D01*
G75*
G02*
X57812500Y-34549999I0J-249999D01*
G01*
G37*
%TD.AperFunction*%
%TO.P,C1,2*%
%TO.N,/RF*%
%TA.AperFunction,SMDPad,CuDef*%
G36*
G01*
X53537500Y-34549999D02*
X53537500Y-37450001D01*
G75*
G02*
X53287501Y-37700000I-249999J0D01*
G01*
X52662499Y-37700000D01*
G75*
G02*
X52412500Y-37450001I0J249999D01*
G01*
X52412500Y-34549999D01*
G75*
G02*
X52662499Y-34300000I249999J0D01*
G01*
X53287501Y-34300000D01*
G75*
G02*
X53537500Y-34549999I0J-249999D01*
G01*
G37*
%TD.AperFunction*%
%TD*%
%TO.P,C2,2*%
%TO.N,/GND*%
%TA.AperFunction,SMDPad,CuDef*%
G36*
G01*
X47725000Y-50375000D02*
X47725000Y-51625000D01*
G75*
G02*
X47475000Y-51875000I-250000J0D01*
G01*
X46725000Y-51875000D01*
G75*
G02*
X46475000Y-51625000I0J250000D01*
G01*
X46475000Y-50375000D01*
G75*
G02*
X46725000Y-50125000I250000J0D01*
G01*
X47475000Y-50125000D01*
G75*
G02*
X47725000Y-50375000I0J-250000D01*
G01*
G37*
%TD.AperFunction*%
%TO.P,C2,1*%
%TO.N,Net-(C2-Pad1)*%
%TA.AperFunction,SMDPad,CuDef*%
G36*
G01*
X50525000Y-50375000D02*
X50525000Y-51625000D01*
G75*
G02*
X50275000Y-51875000I-250000J0D01*
G01*
X49525000Y-51875000D01*
G75*
G02*
X49275000Y-51625000I0J250000D01*
G01*
X49275000Y-50375000D01*
G75*
G02*
X49525000Y-50125000I250000J0D01*
G01*
X50275000Y-50125000D01*
G75*
G02*
X50525000Y-50375000I0J-250000D01*
G01*
G37*
%TD.AperFunction*%
%TD*%
%TO.P,C3,1*%
%TO.N,Net-(C2-Pad1)*%
%TA.AperFunction,SMDPad,CuDef*%
G36*
G01*
X63575000Y-51625000D02*
X63575000Y-50375000D01*
G75*
G02*
X63825000Y-50125000I250000J0D01*
G01*
X64575000Y-50125000D01*
G75*
G02*
X64825000Y-50375000I0J-250000D01*
G01*
X64825000Y-51625000D01*
G75*
G02*
X64575000Y-51875000I-250000J0D01*
G01*
X63825000Y-51875000D01*
G75*
G02*
X63575000Y-51625000I0J250000D01*
G01*
G37*
%TD.AperFunction*%
%TO.P,C3,2*%
%TO.N,/GND*%
%TA.AperFunction,SMDPad,CuDef*%
G36*
G01*
X66375000Y-51625000D02*
X66375000Y-50375000D01*
G75*
G02*
X66625000Y-50125000I250000J0D01*
G01*
X67375000Y-50125000D01*
G75*
G02*
X67625000Y-50375000I0J-250000D01*
G01*
X67625000Y-51625000D01*
G75*
G02*
X67375000Y-51875000I-250000J0D01*
G01*
X66625000Y-51875000D01*
G75*
G02*
X66375000Y-51625000I0J250000D01*
G01*
G37*
%TD.AperFunction*%
%TD*%
D14*
%TO.P,C4,1*%
%TO.N,Net-(C2-Pad1)*%
X59250000Y-51000000D03*
%TO.P,C4,2*%
%TO.N,/GND*%
X53750000Y-51000000D03*
%TD*%
%TO.P,C5,1*%
%TO.N,/RF+DC*%
%TA.AperFunction,SMDPad,CuDef*%
G36*
G01*
X57812500Y-30549999D02*
X57812500Y-33450001D01*
G75*
G02*
X57562501Y-33700000I-249999J0D01*
G01*
X56937499Y-33700000D01*
G75*
G02*
X56687500Y-33450001I0J249999D01*
G01*
X56687500Y-30549999D01*
G75*
G02*
X56937499Y-30300000I249999J0D01*
G01*
X57562501Y-30300000D01*
G75*
G02*
X57812500Y-30549999I0J-249999D01*
G01*
G37*
%TD.AperFunction*%
%TO.P,C5,2*%
%TO.N,/RF*%
%TA.AperFunction,SMDPad,CuDef*%
G36*
G01*
X53537500Y-30549999D02*
X53537500Y-33450001D01*
G75*
G02*
X53287501Y-33700000I-249999J0D01*
G01*
X52662499Y-33700000D01*
G75*
G02*
X52412500Y-33450001I0J249999D01*
G01*
X52412500Y-30549999D01*
G75*
G02*
X52662499Y-30300000I249999J0D01*
G01*
X53287501Y-30300000D01*
G75*
G02*
X53537500Y-30549999I0J-249999D01*
G01*
G37*
%TD.AperFunction*%
%TD*%
%TO.P,C6,2*%
%TO.N,/RF*%
%TA.AperFunction,SMDPad,CuDef*%
G36*
G01*
X53562500Y-26549999D02*
X53562500Y-29450001D01*
G75*
G02*
X53312501Y-29700000I-249999J0D01*
G01*
X52687499Y-29700000D01*
G75*
G02*
X52437500Y-29450001I0J249999D01*
G01*
X52437500Y-26549999D01*
G75*
G02*
X52687499Y-26300000I249999J0D01*
G01*
X53312501Y-26300000D01*
G75*
G02*
X53562500Y-26549999I0J-249999D01*
G01*
G37*
%TD.AperFunction*%
%TO.P,C6,1*%
%TO.N,/RF+DC*%
%TA.AperFunction,SMDPad,CuDef*%
G36*
G01*
X57837500Y-26549999D02*
X57837500Y-29450001D01*
G75*
G02*
X57587501Y-29700000I-249999J0D01*
G01*
X56962499Y-29700000D01*
G75*
G02*
X56712500Y-29450001I0J249999D01*
G01*
X56712500Y-26549999D01*
G75*
G02*
X56962499Y-26300000I249999J0D01*
G01*
X57587501Y-26300000D01*
G75*
G02*
X57837500Y-26549999I0J-249999D01*
G01*
G37*
%TD.AperFunction*%
%TD*%
D15*
%TO.P,D1,1*%
%TO.N,Net-(D1-Pad1)*%
X54700000Y-56000000D03*
%TO.P,D1,2*%
%TO.N,/GND*%
X59000000Y-56000000D03*
%TD*%
D16*
%TO.P,F1,1*%
%TO.N,Net-(C2-Pad1)*%
X62500000Y-65000000D03*
%TO.P,F1,2*%
%TO.N,Net-(D1-Pad1)*%
X53300000Y-65000000D03*
%TD*%
D17*
%TO.P,L2,1*%
%TO.N,/RF+DC*%
X65000000Y-32200000D03*
%TO.P,L2,2*%
%TO.N,Net-(C2-Pad1)*%
X65000000Y-40000000D03*
D18*
%TO.P,L2,3*%
%TO.N,N/C*%
X61100000Y-36100000D03*
D19*
%TO.P,L2,4*%
X68900000Y-36100000D03*
%TD*%
D20*
%TO.N,Net-(C2-Pad1)*%
X63000000Y-56500000D03*
X63000000Y-53000000D03*
X54500000Y-53500000D03*
X58500000Y-53500000D03*
%TD*%
D21*
%TO.N,/RF+DC*%
X64800000Y-32000000D02*
X65000000Y-32200000D01*
X73300000Y-32200000D02*
X73500000Y-32000000D01*
D22*
X65450001Y-31749999D02*
X65000000Y-32200000D01*
X73249999Y-31749999D02*
X65450001Y-31749999D01*
X73500000Y-32000000D02*
X73249999Y-31749999D01*
X57812500Y-31437500D02*
X57250000Y-32000000D01*
X64237500Y-31437500D02*
X57812500Y-31437500D01*
X65000000Y-32200000D02*
X64237500Y-31437500D01*
X57250000Y-36000000D02*
X57250000Y-32000000D01*
X57250000Y-28025000D02*
X57275000Y-28000000D01*
X57250000Y-32000000D02*
X57250000Y-28025000D01*
%TO.N,/RF*%
X52975000Y-32000000D02*
X42000000Y-32000000D01*
X52975000Y-36000000D02*
X52975000Y-32000000D01*
X52975000Y-28025000D02*
X53000000Y-28000000D01*
X52975000Y-32000000D02*
X52975000Y-28025000D01*
D21*
%TO.N,Net-(D1-Pad1)*%
X47000000Y-56000000D02*
X46000000Y-57000000D01*
X54700000Y-56000000D02*
X47000000Y-56000000D01*
X54700000Y-63600000D02*
X53300000Y-65000000D01*
X54700000Y-56000000D02*
X54700000Y-63600000D01*
%TO.N,/GND*%
X60540000Y-54460000D02*
X59000000Y-56000000D01*
X68000000Y-54460000D02*
X60540000Y-54460000D01*
X67000000Y-53460000D02*
X68000000Y-54460000D01*
X67000000Y-51000000D02*
X67000000Y-53460000D01*
X55000000Y-52000000D02*
X59000000Y-56000000D01*
X55000000Y-51000000D02*
X55000000Y-52000000D01*
X55000000Y-51000000D02*
X53750000Y-51000000D01*
X46000000Y-52100000D02*
X47100000Y-51000000D01*
X46000000Y-54460000D02*
X46000000Y-52100000D01*
%TO.N,Net-(C2-Pad1)*%
X65000000Y-50200000D02*
X64200000Y-51000000D01*
X65000000Y-40000000D02*
X65000000Y-50200000D01*
X64200000Y-51000000D02*
X60500000Y-51000000D01*
X60500000Y-51000000D02*
X59250000Y-51000000D01*
X62500000Y-62500000D02*
X68000000Y-57000000D01*
X62500000Y-65000000D02*
X62500000Y-62500000D01*
X68000000Y-57000000D02*
X63500000Y-57000000D01*
X63500000Y-57000000D02*
X63000000Y-56500000D01*
X64200000Y-51800000D02*
X63000000Y-53000000D01*
X64200000Y-51000000D02*
X64200000Y-51800000D01*
X49900000Y-51000000D02*
X52400000Y-53500000D01*
X53009998Y-53500000D02*
X54500000Y-53500000D01*
X52400000Y-53500000D02*
X52199999Y-53299999D01*
X59250000Y-52750000D02*
X58500000Y-53500000D01*
X59250000Y-51000000D02*
X59250000Y-52750000D01*
X53009998Y-53500000D02*
X52400000Y-53500000D01*
%TD*%
D23*
%TO.N,/GND*%
G36*
X78340001Y-74340000D02*
G01*
X37660000Y-74340000D01*
X37660000Y-55950000D01*
X44311928Y-55950000D01*
X44311928Y-58050000D01*
X44324188Y-58174482D01*
X44360498Y-58294180D01*
X44419463Y-58404494D01*
X44498815Y-58501185D01*
X44595506Y-58580537D01*
X44705820Y-58639502D01*
X44825518Y-58675812D01*
X44950000Y-58688072D01*
X47050000Y-58688072D01*
X47174482Y-58675812D01*
X47294180Y-58639502D01*
X47404494Y-58580537D01*
X47501185Y-58501185D01*
X47580537Y-58404494D01*
X47639502Y-58294180D01*
X47675812Y-58174482D01*
X47688072Y-58050000D01*
X47688072Y-56985000D01*
X52811928Y-56985000D01*
X52811928Y-57150000D01*
X52824188Y-57274482D01*
X52860498Y-57394180D01*
X52919463Y-57504494D01*
X52998815Y-57601185D01*
X53095506Y-57680537D01*
X53205820Y-57739502D01*
X53325518Y-57775812D01*
X53450000Y-57788072D01*
X53715000Y-57788072D01*
X53715001Y-62650824D01*
X53534902Y-62615000D01*
X53065098Y-62615000D01*
X52604321Y-62706654D01*
X52170279Y-62886440D01*
X51779651Y-63147450D01*
X51447450Y-63479651D01*
X51186440Y-63870279D01*
X51006654Y-64304321D01*
X50915000Y-64765098D01*
X50915000Y-65234902D01*
X51006654Y-65695679D01*
X51186440Y-66129721D01*
X51447450Y-66520349D01*
X51779651Y-66852550D01*
X52170279Y-67113560D01*
X52604321Y-67293346D01*
X53065098Y-67385000D01*
X53534902Y-67385000D01*
X53995679Y-67293346D01*
X54429721Y-67113560D01*
X54820349Y-66852550D01*
X55152550Y-66520349D01*
X55413560Y-66129721D01*
X55593346Y-65695679D01*
X55685000Y-65234902D01*
X55685000Y-64765098D01*
X55593346Y-64304321D01*
X55526575Y-64143121D01*
X55614424Y-63978767D01*
X55670747Y-63793094D01*
X55685000Y-63648380D01*
X55687867Y-63619268D01*
X56065000Y-63619268D01*
X56065000Y-63980732D01*
X56135518Y-64335250D01*
X56273844Y-64669199D01*
X56474662Y-64969744D01*
X56730256Y-65225338D01*
X57030801Y-65426156D01*
X57364750Y-65564482D01*
X57719268Y-65635000D01*
X58080732Y-65635000D01*
X58435250Y-65564482D01*
X58769199Y-65426156D01*
X59069744Y-65225338D01*
X59325338Y-64969744D01*
X59462078Y-64765098D01*
X60115000Y-64765098D01*
X60115000Y-65234902D01*
X60206654Y-65695679D01*
X60386440Y-66129721D01*
X60647450Y-66520349D01*
X60979651Y-66852550D01*
X61370279Y-67113560D01*
X61804321Y-67293346D01*
X62265098Y-67385000D01*
X62734902Y-67385000D01*
X63195679Y-67293346D01*
X63629721Y-67113560D01*
X64020349Y-66852550D01*
X64352550Y-66520349D01*
X64613560Y-66129721D01*
X64793346Y-65695679D01*
X64885000Y-65234902D01*
X64885000Y-64765098D01*
X64793346Y-64304321D01*
X64613560Y-63870279D01*
X64352550Y-63479651D01*
X64020349Y-63147450D01*
X63629721Y-62886440D01*
X63542633Y-62850367D01*
X67728913Y-58664088D01*
X67834042Y-58685000D01*
X68165958Y-58685000D01*
X68491496Y-58620246D01*
X68798147Y-58493228D01*
X69074125Y-58308825D01*
X69308825Y-58074125D01*
X69493228Y-57798147D01*
X69620246Y-57491496D01*
X69685000Y-57165958D01*
X69685000Y-56834042D01*
X69620246Y-56508504D01*
X69493228Y-56201853D01*
X69308825Y-55925875D01*
X69074125Y-55691175D01*
X68798147Y-55506772D01*
X68491496Y-55379754D01*
X68165958Y-55315000D01*
X67834042Y-55315000D01*
X67508504Y-55379754D01*
X67201853Y-55506772D01*
X66925875Y-55691175D01*
X66691175Y-55925875D01*
X66631623Y-56015000D01*
X63919382Y-56015000D01*
X63917205Y-56009744D01*
X63803937Y-55840226D01*
X63659774Y-55696063D01*
X63490256Y-55582795D01*
X63301898Y-55504774D01*
X63101939Y-55465000D01*
X62898061Y-55465000D01*
X62698102Y-55504774D01*
X62509744Y-55582795D01*
X62340226Y-55696063D01*
X62196063Y-55840226D01*
X62082795Y-56009744D01*
X62004774Y-56198102D01*
X61965000Y-56398061D01*
X61965000Y-56601939D01*
X62004774Y-56801898D01*
X62082795Y-56990256D01*
X62196063Y-57159774D01*
X62340226Y-57303937D01*
X62509744Y-57417205D01*
X62534431Y-57427431D01*
X62769284Y-57662284D01*
X62800130Y-57699870D01*
X62950116Y-57822960D01*
X63121233Y-57914424D01*
X63306906Y-57970747D01*
X63500000Y-57989765D01*
X63548380Y-57985000D01*
X65621999Y-57985000D01*
X61837711Y-61769289D01*
X61800131Y-61800130D01*
X61677041Y-61950116D01*
X61631393Y-62035518D01*
X61585576Y-62121234D01*
X61529253Y-62306907D01*
X61510235Y-62500000D01*
X61515001Y-62548390D01*
X61515001Y-62826494D01*
X61370279Y-62886440D01*
X60979651Y-63147450D01*
X60647450Y-63479651D01*
X60386440Y-63870279D01*
X60206654Y-64304321D01*
X60115000Y-64765098D01*
X59462078Y-64765098D01*
X59526156Y-64669199D01*
X59664482Y-64335250D01*
X59735000Y-63980732D01*
X59735000Y-63619268D01*
X59664482Y-63264750D01*
X59526156Y-62930801D01*
X59325338Y-62630256D01*
X59069744Y-62374662D01*
X58769199Y-62173844D01*
X58435250Y-62035518D01*
X58080732Y-61965000D01*
X57719268Y-61965000D01*
X57364750Y-62035518D01*
X57030801Y-62173844D01*
X56730256Y-62374662D01*
X56474662Y-62630256D01*
X56273844Y-62930801D01*
X56135518Y-63264750D01*
X56065000Y-63619268D01*
X55687867Y-63619268D01*
X55689765Y-63600000D01*
X55685000Y-63551620D01*
X55685000Y-57788072D01*
X55950000Y-57788072D01*
X56074482Y-57775812D01*
X56194180Y-57739502D01*
X56304494Y-57680537D01*
X56401185Y-57601185D01*
X56480537Y-57504494D01*
X56539502Y-57394180D01*
X56575812Y-57274482D01*
X56588072Y-57150000D01*
X56588072Y-54850000D01*
X56575812Y-54725518D01*
X56539502Y-54605820D01*
X56480537Y-54495506D01*
X56401185Y-54398815D01*
X56304494Y-54319463D01*
X56194180Y-54260498D01*
X56074482Y-54224188D01*
X55950000Y-54211928D01*
X55251783Y-54211928D01*
X55303937Y-54159774D01*
X55417205Y-53990256D01*
X55495226Y-53801898D01*
X55535000Y-53601939D01*
X55535000Y-53398061D01*
X57465000Y-53398061D01*
X57465000Y-53601939D01*
X57504774Y-53801898D01*
X57582795Y-53990256D01*
X57696063Y-54159774D01*
X57840226Y-54303937D01*
X58009744Y-54417205D01*
X58198102Y-54495226D01*
X58398061Y-54535000D01*
X58601939Y-54535000D01*
X58801898Y-54495226D01*
X58990256Y-54417205D01*
X59159774Y-54303937D01*
X59303937Y-54159774D01*
X59417205Y-53990256D01*
X59427431Y-53965569D01*
X59912284Y-53480716D01*
X59949870Y-53449870D01*
X60072960Y-53299884D01*
X60164424Y-53128767D01*
X60220747Y-52943094D01*
X60226166Y-52888072D01*
X60250000Y-52888072D01*
X60374482Y-52875812D01*
X60494180Y-52839502D01*
X60604494Y-52780537D01*
X60701185Y-52701185D01*
X60780537Y-52604494D01*
X60839502Y-52494180D01*
X60875812Y-52374482D01*
X60888072Y-52250000D01*
X60888072Y-51985000D01*
X62622000Y-51985000D01*
X62534431Y-52072569D01*
X62509744Y-52082795D01*
X62340226Y-52196063D01*
X62196063Y-52340226D01*
X62082795Y-52509744D01*
X62004774Y-52698102D01*
X61965000Y-52898061D01*
X61965000Y-53101939D01*
X62004774Y-53301898D01*
X62082795Y-53490256D01*
X62196063Y-53659774D01*
X62340226Y-53803937D01*
X62509744Y-53917205D01*
X62698102Y-53995226D01*
X62898061Y-54035000D01*
X63101939Y-54035000D01*
X63301898Y-53995226D01*
X63490256Y-53917205D01*
X63659774Y-53803937D01*
X63803937Y-53659774D01*
X63917205Y-53490256D01*
X63927431Y-53465569D01*
X64862284Y-52530716D01*
X64899870Y-52499870D01*
X64967694Y-52417226D01*
X65068386Y-52363405D01*
X65202962Y-52252962D01*
X65313405Y-52118386D01*
X65395472Y-51964850D01*
X65446008Y-51798254D01*
X65463072Y-51625000D01*
X65463072Y-51129929D01*
X65662289Y-50930712D01*
X65699870Y-50899870D01*
X65822960Y-50749884D01*
X65914424Y-50578767D01*
X65970747Y-50393094D01*
X65985000Y-50248380D01*
X65989765Y-50200000D01*
X65985000Y-50151620D01*
X65985000Y-41638072D01*
X66600000Y-41638072D01*
X66724482Y-41625812D01*
X66844180Y-41589502D01*
X66954494Y-41530537D01*
X67051185Y-41451185D01*
X67130537Y-41354494D01*
X67189502Y-41244180D01*
X67225812Y-41124482D01*
X67238072Y-41000000D01*
X67238072Y-39000000D01*
X67225812Y-38875518D01*
X67189502Y-38755820D01*
X67130537Y-38645506D01*
X67051185Y-38548815D01*
X66954494Y-38469463D01*
X66844180Y-38410498D01*
X66724482Y-38374188D01*
X66600000Y-38361928D01*
X63400000Y-38361928D01*
X63275518Y-38374188D01*
X63155820Y-38410498D01*
X63045506Y-38469463D01*
X62948815Y-38548815D01*
X62869463Y-38645506D01*
X62810498Y-38755820D01*
X62774188Y-38875518D01*
X62761928Y-39000000D01*
X62761928Y-41000000D01*
X62774188Y-41124482D01*
X62810498Y-41244180D01*
X62869463Y-41354494D01*
X62948815Y-41451185D01*
X63045506Y-41530537D01*
X63155820Y-41589502D01*
X63275518Y-41625812D01*
X63400000Y-41638072D01*
X64015000Y-41638072D01*
X64015001Y-49486928D01*
X63825000Y-49486928D01*
X63651746Y-49503992D01*
X63485150Y-49554528D01*
X63331614Y-49636595D01*
X63197038Y-49747038D01*
X63086595Y-49881614D01*
X63015298Y-50015000D01*
X60888072Y-50015000D01*
X60888072Y-49750000D01*
X60875812Y-49625518D01*
X60839502Y-49505820D01*
X60780537Y-49395506D01*
X60701185Y-49298815D01*
X60604494Y-49219463D01*
X60494180Y-49160498D01*
X60374482Y-49124188D01*
X60250000Y-49111928D01*
X58250000Y-49111928D01*
X58125518Y-49124188D01*
X58005820Y-49160498D01*
X57895506Y-49219463D01*
X57798815Y-49298815D01*
X57719463Y-49395506D01*
X57660498Y-49505820D01*
X57624188Y-49625518D01*
X57611928Y-49750000D01*
X57611928Y-52250000D01*
X57624188Y-52374482D01*
X57660498Y-52494180D01*
X57719463Y-52604494D01*
X57798815Y-52701185D01*
X57818747Y-52717542D01*
X57696063Y-52840226D01*
X57582795Y-53009744D01*
X57504774Y-53198102D01*
X57465000Y-53398061D01*
X55535000Y-53398061D01*
X55495226Y-53198102D01*
X55417205Y-53009744D01*
X55303937Y-52840226D01*
X55159774Y-52696063D01*
X54990256Y-52582795D01*
X54801898Y-52504774D01*
X54601939Y-52465000D01*
X54398061Y-52465000D01*
X54198102Y-52504774D01*
X54173414Y-52515000D01*
X52808001Y-52515000D01*
X51163072Y-50870072D01*
X51163072Y-50375000D01*
X51146008Y-50201746D01*
X51095472Y-50035150D01*
X51013405Y-49881614D01*
X50902962Y-49747038D01*
X50768386Y-49636595D01*
X50614850Y-49554528D01*
X50448254Y-49503992D01*
X50275000Y-49486928D01*
X49525000Y-49486928D01*
X49351746Y-49503992D01*
X49185150Y-49554528D01*
X49031614Y-49636595D01*
X48897038Y-49747038D01*
X48786595Y-49881614D01*
X48704528Y-50035150D01*
X48653992Y-50201746D01*
X48636928Y-50375000D01*
X48636928Y-51625000D01*
X48653992Y-51798254D01*
X48704528Y-51964850D01*
X48786595Y-52118386D01*
X48897038Y-52252962D01*
X49031614Y-52363405D01*
X49185150Y-52445472D01*
X49351746Y-52496008D01*
X49525000Y-52513072D01*
X50020072Y-52513072D01*
X51669289Y-54162290D01*
X51700130Y-54199870D01*
X51850116Y-54322960D01*
X51992031Y-54398815D01*
X52021233Y-54414424D01*
X52206906Y-54470747D01*
X52399999Y-54489765D01*
X52400000Y-54489765D01*
X52448380Y-54485000D01*
X52928085Y-54485000D01*
X52919463Y-54495506D01*
X52860498Y-54605820D01*
X52824188Y-54725518D01*
X52811928Y-54850000D01*
X52811928Y-55015000D01*
X47048380Y-55015000D01*
X47000000Y-55010235D01*
X46951620Y-55015000D01*
X46806906Y-55029253D01*
X46621233Y-55085576D01*
X46450116Y-55177040D01*
X46300130Y-55300130D01*
X46290448Y-55311928D01*
X44950000Y-55311928D01*
X44825518Y-55324188D01*
X44705820Y-55360498D01*
X44595506Y-55419463D01*
X44498815Y-55498815D01*
X44419463Y-55595506D01*
X44360498Y-55705820D01*
X44324188Y-55825518D01*
X44311928Y-55950000D01*
X37660000Y-55950000D01*
X37660000Y-38650000D01*
X38365128Y-38650000D01*
X38365128Y-41350000D01*
X38396542Y-41668948D01*
X38489575Y-41975638D01*
X38640654Y-42258286D01*
X38843971Y-42506029D01*
X39091714Y-42709346D01*
X39374362Y-42860425D01*
X39681052Y-42953458D01*
X40000000Y-42984872D01*
X44000000Y-42984872D01*
X44318948Y-42953458D01*
X44625638Y-42860425D01*
X44908286Y-42709346D01*
X45156029Y-42506029D01*
X45359346Y-42258286D01*
X45510425Y-41975638D01*
X45603458Y-41668948D01*
X45634872Y-41350000D01*
X45634872Y-38650000D01*
X45603458Y-38331052D01*
X45510425Y-38024362D01*
X45359346Y-37741714D01*
X45156029Y-37493971D01*
X44908286Y-37290654D01*
X44625638Y-37139575D01*
X44318948Y-37046542D01*
X44000000Y-37015128D01*
X40000000Y-37015128D01*
X39681052Y-37046542D01*
X39374362Y-37139575D01*
X39091714Y-37290654D01*
X38843971Y-37493971D01*
X38640654Y-37741714D01*
X38489575Y-38024362D01*
X38396542Y-38331052D01*
X38365128Y-38650000D01*
X37660000Y-38650000D01*
X37660000Y-30650000D01*
X38365128Y-30650000D01*
X38365128Y-33350000D01*
X38396542Y-33668948D01*
X38489575Y-33975638D01*
X38640654Y-34258286D01*
X38843971Y-34506029D01*
X39091714Y-34709346D01*
X39374362Y-34860425D01*
X39681052Y-34953458D01*
X40000000Y-34984872D01*
X44000000Y-34984872D01*
X44318948Y-34953458D01*
X44570997Y-34877000D01*
X50098000Y-34877000D01*
X50098000Y-36141332D01*
X50139628Y-36563990D01*
X50304138Y-37106306D01*
X50571288Y-37606108D01*
X50854240Y-37950886D01*
X50921105Y-38171310D01*
X51095286Y-38497179D01*
X51329694Y-38782806D01*
X51615321Y-39017214D01*
X51941190Y-39191395D01*
X52294779Y-39298655D01*
X52662499Y-39334872D01*
X53287501Y-39334872D01*
X53655221Y-39298655D01*
X54008810Y-39191395D01*
X54334679Y-39017214D01*
X54620306Y-38782806D01*
X54854714Y-38497179D01*
X55028895Y-38171310D01*
X55095760Y-37950886D01*
X55112500Y-37930488D01*
X55129240Y-37950886D01*
X55196105Y-38171310D01*
X55370286Y-38497179D01*
X55604694Y-38782806D01*
X55890321Y-39017214D01*
X56216190Y-39191395D01*
X56569779Y-39298655D01*
X56937499Y-39334872D01*
X57562501Y-39334872D01*
X57930221Y-39298655D01*
X58283810Y-39191395D01*
X58609679Y-39017214D01*
X58895306Y-38782806D01*
X59129714Y-38497179D01*
X59303895Y-38171310D01*
X59370760Y-37950886D01*
X59474271Y-37824757D01*
X59510498Y-37944180D01*
X59569463Y-38054494D01*
X59648815Y-38151185D01*
X59745506Y-38230537D01*
X59855820Y-38289502D01*
X59975518Y-38325812D01*
X60100000Y-38338072D01*
X62100000Y-38338072D01*
X62224482Y-38325812D01*
X62344180Y-38289502D01*
X62454494Y-38230537D01*
X62551185Y-38151185D01*
X62630537Y-38054494D01*
X62689502Y-37944180D01*
X62725812Y-37824482D01*
X62738072Y-37700000D01*
X62738072Y-34691028D01*
X62774362Y-34710425D01*
X63081052Y-34803458D01*
X63400000Y-34834872D01*
X63826362Y-34834872D01*
X63893693Y-34870861D01*
X64436009Y-35035371D01*
X65000000Y-35090919D01*
X65563990Y-35035371D01*
X66106307Y-34870861D01*
X66173638Y-34834872D01*
X66600000Y-34834872D01*
X66918948Y-34803458D01*
X67225638Y-34710425D01*
X67261928Y-34691028D01*
X67261928Y-37700000D01*
X67274188Y-37824482D01*
X67310498Y-37944180D01*
X67369463Y-38054494D01*
X67448815Y-38151185D01*
X67545506Y-38230537D01*
X67655820Y-38289502D01*
X67775518Y-38325812D01*
X67900000Y-38338072D01*
X69895851Y-38338072D01*
X69865128Y-38650000D01*
X69865128Y-41350000D01*
X69896542Y-41668948D01*
X69989575Y-41975638D01*
X70140654Y-42258286D01*
X70343971Y-42506029D01*
X70591714Y-42709346D01*
X70874362Y-42860425D01*
X71181052Y-42953458D01*
X71500000Y-42984872D01*
X75500000Y-42984872D01*
X75818948Y-42953458D01*
X76125638Y-42860425D01*
X76408286Y-42709346D01*
X76656029Y-42506029D01*
X76859346Y-42258286D01*
X77010425Y-41975638D01*
X77103458Y-41668948D01*
X77134872Y-41350000D01*
X77134872Y-38650000D01*
X77103458Y-38331052D01*
X77010425Y-38024362D01*
X76859346Y-37741714D01*
X76656029Y-37493971D01*
X76408286Y-37290654D01*
X76125638Y-37139575D01*
X75818948Y-37046542D01*
X75500000Y-37015128D01*
X71500000Y-37015128D01*
X71181052Y-37046542D01*
X70874362Y-37139575D01*
X70591714Y-37290654D01*
X70538072Y-37334677D01*
X70538072Y-34665323D01*
X70591714Y-34709346D01*
X70874362Y-34860425D01*
X71181052Y-34953458D01*
X71500000Y-34984872D01*
X75500000Y-34984872D01*
X75818948Y-34953458D01*
X76125638Y-34860425D01*
X76408286Y-34709346D01*
X76656029Y-34506029D01*
X76859346Y-34258286D01*
X77010425Y-33975638D01*
X77103458Y-33668948D01*
X77134872Y-33350000D01*
X77134872Y-30650000D01*
X77103458Y-30331052D01*
X77010425Y-30024362D01*
X76859346Y-29741714D01*
X76656029Y-29493971D01*
X76408286Y-29290654D01*
X76125638Y-29139575D01*
X75818948Y-29046542D01*
X75500000Y-29015128D01*
X74145297Y-29015128D01*
X73813990Y-28914627D01*
X73391332Y-28872999D01*
X73391321Y-28872999D01*
X73249999Y-28859080D01*
X73108677Y-28872999D01*
X65591331Y-28872999D01*
X65531830Y-28867139D01*
X65343807Y-28766638D01*
X64801491Y-28602128D01*
X64378833Y-28560500D01*
X64378822Y-28560500D01*
X64237500Y-28546581D01*
X64096178Y-28560500D01*
X60127000Y-28560500D01*
X60127000Y-28395153D01*
X60165919Y-28000001D01*
X60110371Y-27436010D01*
X59945861Y-26893693D01*
X59678712Y-26393892D01*
X59395760Y-26049115D01*
X59328895Y-25828690D01*
X59154714Y-25502821D01*
X58920306Y-25217194D01*
X58634679Y-24982786D01*
X58308810Y-24808605D01*
X57955221Y-24701345D01*
X57587501Y-24665128D01*
X56962499Y-24665128D01*
X56594779Y-24701345D01*
X56241190Y-24808605D01*
X55915321Y-24982786D01*
X55629694Y-25217194D01*
X55395286Y-25502821D01*
X55221105Y-25828690D01*
X55156869Y-26040448D01*
X55135258Y-26066781D01*
X55120760Y-26049115D01*
X55053895Y-25828690D01*
X54879714Y-25502821D01*
X54645306Y-25217194D01*
X54359679Y-24982786D01*
X54033810Y-24808605D01*
X53680221Y-24701345D01*
X53312501Y-24665128D01*
X52687499Y-24665128D01*
X52319779Y-24701345D01*
X51966190Y-24808605D01*
X51640321Y-24982786D01*
X51354694Y-25217194D01*
X51120286Y-25502821D01*
X50946105Y-25828690D01*
X50881869Y-26040448D01*
X50571289Y-26418891D01*
X50304139Y-26918693D01*
X50147213Y-27436010D01*
X50139629Y-27461010D01*
X50084081Y-28025000D01*
X50098001Y-28166332D01*
X50098001Y-29123000D01*
X44570997Y-29123000D01*
X44318948Y-29046542D01*
X44000000Y-29015128D01*
X40000000Y-29015128D01*
X39681052Y-29046542D01*
X39374362Y-29139575D01*
X39091714Y-29290654D01*
X38843971Y-29493971D01*
X38640654Y-29741714D01*
X38489575Y-30024362D01*
X38396542Y-30331052D01*
X38365128Y-30650000D01*
X37660000Y-30650000D01*
X37660000Y-19660000D01*
X78340000Y-19660000D01*
X78340001Y-74340000D01*
G37*
X78340001Y-74340000D02*
X37660000Y-74340000D01*
X37660000Y-55950000D01*
X44311928Y-55950000D01*
X44311928Y-58050000D01*
X44324188Y-58174482D01*
X44360498Y-58294180D01*
X44419463Y-58404494D01*
X44498815Y-58501185D01*
X44595506Y-58580537D01*
X44705820Y-58639502D01*
X44825518Y-58675812D01*
X44950000Y-58688072D01*
X47050000Y-58688072D01*
X47174482Y-58675812D01*
X47294180Y-58639502D01*
X47404494Y-58580537D01*
X47501185Y-58501185D01*
X47580537Y-58404494D01*
X47639502Y-58294180D01*
X47675812Y-58174482D01*
X47688072Y-58050000D01*
X47688072Y-56985000D01*
X52811928Y-56985000D01*
X52811928Y-57150000D01*
X52824188Y-57274482D01*
X52860498Y-57394180D01*
X52919463Y-57504494D01*
X52998815Y-57601185D01*
X53095506Y-57680537D01*
X53205820Y-57739502D01*
X53325518Y-57775812D01*
X53450000Y-57788072D01*
X53715000Y-57788072D01*
X53715001Y-62650824D01*
X53534902Y-62615000D01*
X53065098Y-62615000D01*
X52604321Y-62706654D01*
X52170279Y-62886440D01*
X51779651Y-63147450D01*
X51447450Y-63479651D01*
X51186440Y-63870279D01*
X51006654Y-64304321D01*
X50915000Y-64765098D01*
X50915000Y-65234902D01*
X51006654Y-65695679D01*
X51186440Y-66129721D01*
X51447450Y-66520349D01*
X51779651Y-66852550D01*
X52170279Y-67113560D01*
X52604321Y-67293346D01*
X53065098Y-67385000D01*
X53534902Y-67385000D01*
X53995679Y-67293346D01*
X54429721Y-67113560D01*
X54820349Y-66852550D01*
X55152550Y-66520349D01*
X55413560Y-66129721D01*
X55593346Y-65695679D01*
X55685000Y-65234902D01*
X55685000Y-64765098D01*
X55593346Y-64304321D01*
X55526575Y-64143121D01*
X55614424Y-63978767D01*
X55670747Y-63793094D01*
X55685000Y-63648380D01*
X55687867Y-63619268D01*
X56065000Y-63619268D01*
X56065000Y-63980732D01*
X56135518Y-64335250D01*
X56273844Y-64669199D01*
X56474662Y-64969744D01*
X56730256Y-65225338D01*
X57030801Y-65426156D01*
X57364750Y-65564482D01*
X57719268Y-65635000D01*
X58080732Y-65635000D01*
X58435250Y-65564482D01*
X58769199Y-65426156D01*
X59069744Y-65225338D01*
X59325338Y-64969744D01*
X59462078Y-64765098D01*
X60115000Y-64765098D01*
X60115000Y-65234902D01*
X60206654Y-65695679D01*
X60386440Y-66129721D01*
X60647450Y-66520349D01*
X60979651Y-66852550D01*
X61370279Y-67113560D01*
X61804321Y-67293346D01*
X62265098Y-67385000D01*
X62734902Y-67385000D01*
X63195679Y-67293346D01*
X63629721Y-67113560D01*
X64020349Y-66852550D01*
X64352550Y-66520349D01*
X64613560Y-66129721D01*
X64793346Y-65695679D01*
X64885000Y-65234902D01*
X64885000Y-64765098D01*
X64793346Y-64304321D01*
X64613560Y-63870279D01*
X64352550Y-63479651D01*
X64020349Y-63147450D01*
X63629721Y-62886440D01*
X63542633Y-62850367D01*
X67728913Y-58664088D01*
X67834042Y-58685000D01*
X68165958Y-58685000D01*
X68491496Y-58620246D01*
X68798147Y-58493228D01*
X69074125Y-58308825D01*
X69308825Y-58074125D01*
X69493228Y-57798147D01*
X69620246Y-57491496D01*
X69685000Y-57165958D01*
X69685000Y-56834042D01*
X69620246Y-56508504D01*
X69493228Y-56201853D01*
X69308825Y-55925875D01*
X69074125Y-55691175D01*
X68798147Y-55506772D01*
X68491496Y-55379754D01*
X68165958Y-55315000D01*
X67834042Y-55315000D01*
X67508504Y-55379754D01*
X67201853Y-55506772D01*
X66925875Y-55691175D01*
X66691175Y-55925875D01*
X66631623Y-56015000D01*
X63919382Y-56015000D01*
X63917205Y-56009744D01*
X63803937Y-55840226D01*
X63659774Y-55696063D01*
X63490256Y-55582795D01*
X63301898Y-55504774D01*
X63101939Y-55465000D01*
X62898061Y-55465000D01*
X62698102Y-55504774D01*
X62509744Y-55582795D01*
X62340226Y-55696063D01*
X62196063Y-55840226D01*
X62082795Y-56009744D01*
X62004774Y-56198102D01*
X61965000Y-56398061D01*
X61965000Y-56601939D01*
X62004774Y-56801898D01*
X62082795Y-56990256D01*
X62196063Y-57159774D01*
X62340226Y-57303937D01*
X62509744Y-57417205D01*
X62534431Y-57427431D01*
X62769284Y-57662284D01*
X62800130Y-57699870D01*
X62950116Y-57822960D01*
X63121233Y-57914424D01*
X63306906Y-57970747D01*
X63500000Y-57989765D01*
X63548380Y-57985000D01*
X65621999Y-57985000D01*
X61837711Y-61769289D01*
X61800131Y-61800130D01*
X61677041Y-61950116D01*
X61631393Y-62035518D01*
X61585576Y-62121234D01*
X61529253Y-62306907D01*
X61510235Y-62500000D01*
X61515001Y-62548390D01*
X61515001Y-62826494D01*
X61370279Y-62886440D01*
X60979651Y-63147450D01*
X60647450Y-63479651D01*
X60386440Y-63870279D01*
X60206654Y-64304321D01*
X60115000Y-64765098D01*
X59462078Y-64765098D01*
X59526156Y-64669199D01*
X59664482Y-64335250D01*
X59735000Y-63980732D01*
X59735000Y-63619268D01*
X59664482Y-63264750D01*
X59526156Y-62930801D01*
X59325338Y-62630256D01*
X59069744Y-62374662D01*
X58769199Y-62173844D01*
X58435250Y-62035518D01*
X58080732Y-61965000D01*
X57719268Y-61965000D01*
X57364750Y-62035518D01*
X57030801Y-62173844D01*
X56730256Y-62374662D01*
X56474662Y-62630256D01*
X56273844Y-62930801D01*
X56135518Y-63264750D01*
X56065000Y-63619268D01*
X55687867Y-63619268D01*
X55689765Y-63600000D01*
X55685000Y-63551620D01*
X55685000Y-57788072D01*
X55950000Y-57788072D01*
X56074482Y-57775812D01*
X56194180Y-57739502D01*
X56304494Y-57680537D01*
X56401185Y-57601185D01*
X56480537Y-57504494D01*
X56539502Y-57394180D01*
X56575812Y-57274482D01*
X56588072Y-57150000D01*
X56588072Y-54850000D01*
X56575812Y-54725518D01*
X56539502Y-54605820D01*
X56480537Y-54495506D01*
X56401185Y-54398815D01*
X56304494Y-54319463D01*
X56194180Y-54260498D01*
X56074482Y-54224188D01*
X55950000Y-54211928D01*
X55251783Y-54211928D01*
X55303937Y-54159774D01*
X55417205Y-53990256D01*
X55495226Y-53801898D01*
X55535000Y-53601939D01*
X55535000Y-53398061D01*
X57465000Y-53398061D01*
X57465000Y-53601939D01*
X57504774Y-53801898D01*
X57582795Y-53990256D01*
X57696063Y-54159774D01*
X57840226Y-54303937D01*
X58009744Y-54417205D01*
X58198102Y-54495226D01*
X58398061Y-54535000D01*
X58601939Y-54535000D01*
X58801898Y-54495226D01*
X58990256Y-54417205D01*
X59159774Y-54303937D01*
X59303937Y-54159774D01*
X59417205Y-53990256D01*
X59427431Y-53965569D01*
X59912284Y-53480716D01*
X59949870Y-53449870D01*
X60072960Y-53299884D01*
X60164424Y-53128767D01*
X60220747Y-52943094D01*
X60226166Y-52888072D01*
X60250000Y-52888072D01*
X60374482Y-52875812D01*
X60494180Y-52839502D01*
X60604494Y-52780537D01*
X60701185Y-52701185D01*
X60780537Y-52604494D01*
X60839502Y-52494180D01*
X60875812Y-52374482D01*
X60888072Y-52250000D01*
X60888072Y-51985000D01*
X62622000Y-51985000D01*
X62534431Y-52072569D01*
X62509744Y-52082795D01*
X62340226Y-52196063D01*
X62196063Y-52340226D01*
X62082795Y-52509744D01*
X62004774Y-52698102D01*
X61965000Y-52898061D01*
X61965000Y-53101939D01*
X62004774Y-53301898D01*
X62082795Y-53490256D01*
X62196063Y-53659774D01*
X62340226Y-53803937D01*
X62509744Y-53917205D01*
X62698102Y-53995226D01*
X62898061Y-54035000D01*
X63101939Y-54035000D01*
X63301898Y-53995226D01*
X63490256Y-53917205D01*
X63659774Y-53803937D01*
X63803937Y-53659774D01*
X63917205Y-53490256D01*
X63927431Y-53465569D01*
X64862284Y-52530716D01*
X64899870Y-52499870D01*
X64967694Y-52417226D01*
X65068386Y-52363405D01*
X65202962Y-52252962D01*
X65313405Y-52118386D01*
X65395472Y-51964850D01*
X65446008Y-51798254D01*
X65463072Y-51625000D01*
X65463072Y-51129929D01*
X65662289Y-50930712D01*
X65699870Y-50899870D01*
X65822960Y-50749884D01*
X65914424Y-50578767D01*
X65970747Y-50393094D01*
X65985000Y-50248380D01*
X65989765Y-50200000D01*
X65985000Y-50151620D01*
X65985000Y-41638072D01*
X66600000Y-41638072D01*
X66724482Y-41625812D01*
X66844180Y-41589502D01*
X66954494Y-41530537D01*
X67051185Y-41451185D01*
X67130537Y-41354494D01*
X67189502Y-41244180D01*
X67225812Y-41124482D01*
X67238072Y-41000000D01*
X67238072Y-39000000D01*
X67225812Y-38875518D01*
X67189502Y-38755820D01*
X67130537Y-38645506D01*
X67051185Y-38548815D01*
X66954494Y-38469463D01*
X66844180Y-38410498D01*
X66724482Y-38374188D01*
X66600000Y-38361928D01*
X63400000Y-38361928D01*
X63275518Y-38374188D01*
X63155820Y-38410498D01*
X63045506Y-38469463D01*
X62948815Y-38548815D01*
X62869463Y-38645506D01*
X62810498Y-38755820D01*
X62774188Y-38875518D01*
X62761928Y-39000000D01*
X62761928Y-41000000D01*
X62774188Y-41124482D01*
X62810498Y-41244180D01*
X62869463Y-41354494D01*
X62948815Y-41451185D01*
X63045506Y-41530537D01*
X63155820Y-41589502D01*
X63275518Y-41625812D01*
X63400000Y-41638072D01*
X64015000Y-41638072D01*
X64015001Y-49486928D01*
X63825000Y-49486928D01*
X63651746Y-49503992D01*
X63485150Y-49554528D01*
X63331614Y-49636595D01*
X63197038Y-49747038D01*
X63086595Y-49881614D01*
X63015298Y-50015000D01*
X60888072Y-50015000D01*
X60888072Y-49750000D01*
X60875812Y-49625518D01*
X60839502Y-49505820D01*
X60780537Y-49395506D01*
X60701185Y-49298815D01*
X60604494Y-49219463D01*
X60494180Y-49160498D01*
X60374482Y-49124188D01*
X60250000Y-49111928D01*
X58250000Y-49111928D01*
X58125518Y-49124188D01*
X58005820Y-49160498D01*
X57895506Y-49219463D01*
X57798815Y-49298815D01*
X57719463Y-49395506D01*
X57660498Y-49505820D01*
X57624188Y-49625518D01*
X57611928Y-49750000D01*
X57611928Y-52250000D01*
X57624188Y-52374482D01*
X57660498Y-52494180D01*
X57719463Y-52604494D01*
X57798815Y-52701185D01*
X57818747Y-52717542D01*
X57696063Y-52840226D01*
X57582795Y-53009744D01*
X57504774Y-53198102D01*
X57465000Y-53398061D01*
X55535000Y-53398061D01*
X55495226Y-53198102D01*
X55417205Y-53009744D01*
X55303937Y-52840226D01*
X55159774Y-52696063D01*
X54990256Y-52582795D01*
X54801898Y-52504774D01*
X54601939Y-52465000D01*
X54398061Y-52465000D01*
X54198102Y-52504774D01*
X54173414Y-52515000D01*
X52808001Y-52515000D01*
X51163072Y-50870072D01*
X51163072Y-50375000D01*
X51146008Y-50201746D01*
X51095472Y-50035150D01*
X51013405Y-49881614D01*
X50902962Y-49747038D01*
X50768386Y-49636595D01*
X50614850Y-49554528D01*
X50448254Y-49503992D01*
X50275000Y-49486928D01*
X49525000Y-49486928D01*
X49351746Y-49503992D01*
X49185150Y-49554528D01*
X49031614Y-49636595D01*
X48897038Y-49747038D01*
X48786595Y-49881614D01*
X48704528Y-50035150D01*
X48653992Y-50201746D01*
X48636928Y-50375000D01*
X48636928Y-51625000D01*
X48653992Y-51798254D01*
X48704528Y-51964850D01*
X48786595Y-52118386D01*
X48897038Y-52252962D01*
X49031614Y-52363405D01*
X49185150Y-52445472D01*
X49351746Y-52496008D01*
X49525000Y-52513072D01*
X50020072Y-52513072D01*
X51669289Y-54162290D01*
X51700130Y-54199870D01*
X51850116Y-54322960D01*
X51992031Y-54398815D01*
X52021233Y-54414424D01*
X52206906Y-54470747D01*
X52399999Y-54489765D01*
X52400000Y-54489765D01*
X52448380Y-54485000D01*
X52928085Y-54485000D01*
X52919463Y-54495506D01*
X52860498Y-54605820D01*
X52824188Y-54725518D01*
X52811928Y-54850000D01*
X52811928Y-55015000D01*
X47048380Y-55015000D01*
X47000000Y-55010235D01*
X46951620Y-55015000D01*
X46806906Y-55029253D01*
X46621233Y-55085576D01*
X46450116Y-55177040D01*
X46300130Y-55300130D01*
X46290448Y-55311928D01*
X44950000Y-55311928D01*
X44825518Y-55324188D01*
X44705820Y-55360498D01*
X44595506Y-55419463D01*
X44498815Y-55498815D01*
X44419463Y-55595506D01*
X44360498Y-55705820D01*
X44324188Y-55825518D01*
X44311928Y-55950000D01*
X37660000Y-55950000D01*
X37660000Y-38650000D01*
X38365128Y-38650000D01*
X38365128Y-41350000D01*
X38396542Y-41668948D01*
X38489575Y-41975638D01*
X38640654Y-42258286D01*
X38843971Y-42506029D01*
X39091714Y-42709346D01*
X39374362Y-42860425D01*
X39681052Y-42953458D01*
X40000000Y-42984872D01*
X44000000Y-42984872D01*
X44318948Y-42953458D01*
X44625638Y-42860425D01*
X44908286Y-42709346D01*
X45156029Y-42506029D01*
X45359346Y-42258286D01*
X45510425Y-41975638D01*
X45603458Y-41668948D01*
X45634872Y-41350000D01*
X45634872Y-38650000D01*
X45603458Y-38331052D01*
X45510425Y-38024362D01*
X45359346Y-37741714D01*
X45156029Y-37493971D01*
X44908286Y-37290654D01*
X44625638Y-37139575D01*
X44318948Y-37046542D01*
X44000000Y-37015128D01*
X40000000Y-37015128D01*
X39681052Y-37046542D01*
X39374362Y-37139575D01*
X39091714Y-37290654D01*
X38843971Y-37493971D01*
X38640654Y-37741714D01*
X38489575Y-38024362D01*
X38396542Y-38331052D01*
X38365128Y-38650000D01*
X37660000Y-38650000D01*
X37660000Y-30650000D01*
X38365128Y-30650000D01*
X38365128Y-33350000D01*
X38396542Y-33668948D01*
X38489575Y-33975638D01*
X38640654Y-34258286D01*
X38843971Y-34506029D01*
X39091714Y-34709346D01*
X39374362Y-34860425D01*
X39681052Y-34953458D01*
X40000000Y-34984872D01*
X44000000Y-34984872D01*
X44318948Y-34953458D01*
X44570997Y-34877000D01*
X50098000Y-34877000D01*
X50098000Y-36141332D01*
X50139628Y-36563990D01*
X50304138Y-37106306D01*
X50571288Y-37606108D01*
X50854240Y-37950886D01*
X50921105Y-38171310D01*
X51095286Y-38497179D01*
X51329694Y-38782806D01*
X51615321Y-39017214D01*
X51941190Y-39191395D01*
X52294779Y-39298655D01*
X52662499Y-39334872D01*
X53287501Y-39334872D01*
X53655221Y-39298655D01*
X54008810Y-39191395D01*
X54334679Y-39017214D01*
X54620306Y-38782806D01*
X54854714Y-38497179D01*
X55028895Y-38171310D01*
X55095760Y-37950886D01*
X55112500Y-37930488D01*
X55129240Y-37950886D01*
X55196105Y-38171310D01*
X55370286Y-38497179D01*
X55604694Y-38782806D01*
X55890321Y-39017214D01*
X56216190Y-39191395D01*
X56569779Y-39298655D01*
X56937499Y-39334872D01*
X57562501Y-39334872D01*
X57930221Y-39298655D01*
X58283810Y-39191395D01*
X58609679Y-39017214D01*
X58895306Y-38782806D01*
X59129714Y-38497179D01*
X59303895Y-38171310D01*
X59370760Y-37950886D01*
X59474271Y-37824757D01*
X59510498Y-37944180D01*
X59569463Y-38054494D01*
X59648815Y-38151185D01*
X59745506Y-38230537D01*
X59855820Y-38289502D01*
X59975518Y-38325812D01*
X60100000Y-38338072D01*
X62100000Y-38338072D01*
X62224482Y-38325812D01*
X62344180Y-38289502D01*
X62454494Y-38230537D01*
X62551185Y-38151185D01*
X62630537Y-38054494D01*
X62689502Y-37944180D01*
X62725812Y-37824482D01*
X62738072Y-37700000D01*
X62738072Y-34691028D01*
X62774362Y-34710425D01*
X63081052Y-34803458D01*
X63400000Y-34834872D01*
X63826362Y-34834872D01*
X63893693Y-34870861D01*
X64436009Y-35035371D01*
X65000000Y-35090919D01*
X65563990Y-35035371D01*
X66106307Y-34870861D01*
X66173638Y-34834872D01*
X66600000Y-34834872D01*
X66918948Y-34803458D01*
X67225638Y-34710425D01*
X67261928Y-34691028D01*
X67261928Y-37700000D01*
X67274188Y-37824482D01*
X67310498Y-37944180D01*
X67369463Y-38054494D01*
X67448815Y-38151185D01*
X67545506Y-38230537D01*
X67655820Y-38289502D01*
X67775518Y-38325812D01*
X67900000Y-38338072D01*
X69895851Y-38338072D01*
X69865128Y-38650000D01*
X69865128Y-41350000D01*
X69896542Y-41668948D01*
X69989575Y-41975638D01*
X70140654Y-42258286D01*
X70343971Y-42506029D01*
X70591714Y-42709346D01*
X70874362Y-42860425D01*
X71181052Y-42953458D01*
X71500000Y-42984872D01*
X75500000Y-42984872D01*
X75818948Y-42953458D01*
X76125638Y-42860425D01*
X76408286Y-42709346D01*
X76656029Y-42506029D01*
X76859346Y-42258286D01*
X77010425Y-41975638D01*
X77103458Y-41668948D01*
X77134872Y-41350000D01*
X77134872Y-38650000D01*
X77103458Y-38331052D01*
X77010425Y-38024362D01*
X76859346Y-37741714D01*
X76656029Y-37493971D01*
X76408286Y-37290654D01*
X76125638Y-37139575D01*
X75818948Y-37046542D01*
X75500000Y-37015128D01*
X71500000Y-37015128D01*
X71181052Y-37046542D01*
X70874362Y-37139575D01*
X70591714Y-37290654D01*
X70538072Y-37334677D01*
X70538072Y-34665323D01*
X70591714Y-34709346D01*
X70874362Y-34860425D01*
X71181052Y-34953458D01*
X71500000Y-34984872D01*
X75500000Y-34984872D01*
X75818948Y-34953458D01*
X76125638Y-34860425D01*
X76408286Y-34709346D01*
X76656029Y-34506029D01*
X76859346Y-34258286D01*
X77010425Y-33975638D01*
X77103458Y-33668948D01*
X77134872Y-33350000D01*
X77134872Y-30650000D01*
X77103458Y-30331052D01*
X77010425Y-30024362D01*
X76859346Y-29741714D01*
X76656029Y-29493971D01*
X76408286Y-29290654D01*
X76125638Y-29139575D01*
X75818948Y-29046542D01*
X75500000Y-29015128D01*
X74145297Y-29015128D01*
X73813990Y-28914627D01*
X73391332Y-28872999D01*
X73391321Y-28872999D01*
X73249999Y-28859080D01*
X73108677Y-28872999D01*
X65591331Y-28872999D01*
X65531830Y-28867139D01*
X65343807Y-28766638D01*
X64801491Y-28602128D01*
X64378833Y-28560500D01*
X64378822Y-28560500D01*
X64237500Y-28546581D01*
X64096178Y-28560500D01*
X60127000Y-28560500D01*
X60127000Y-28395153D01*
X60165919Y-28000001D01*
X60110371Y-27436010D01*
X59945861Y-26893693D01*
X59678712Y-26393892D01*
X59395760Y-26049115D01*
X59328895Y-25828690D01*
X59154714Y-25502821D01*
X58920306Y-25217194D01*
X58634679Y-24982786D01*
X58308810Y-24808605D01*
X57955221Y-24701345D01*
X57587501Y-24665128D01*
X56962499Y-24665128D01*
X56594779Y-24701345D01*
X56241190Y-24808605D01*
X55915321Y-24982786D01*
X55629694Y-25217194D01*
X55395286Y-25502821D01*
X55221105Y-25828690D01*
X55156869Y-26040448D01*
X55135258Y-26066781D01*
X55120760Y-26049115D01*
X55053895Y-25828690D01*
X54879714Y-25502821D01*
X54645306Y-25217194D01*
X54359679Y-24982786D01*
X54033810Y-24808605D01*
X53680221Y-24701345D01*
X53312501Y-24665128D01*
X52687499Y-24665128D01*
X52319779Y-24701345D01*
X51966190Y-24808605D01*
X51640321Y-24982786D01*
X51354694Y-25217194D01*
X51120286Y-25502821D01*
X50946105Y-25828690D01*
X50881869Y-26040448D01*
X50571289Y-26418891D01*
X50304139Y-26918693D01*
X50147213Y-27436010D01*
X50139629Y-27461010D01*
X50084081Y-28025000D01*
X50098001Y-28166332D01*
X50098001Y-29123000D01*
X44570997Y-29123000D01*
X44318948Y-29046542D01*
X44000000Y-29015128D01*
X40000000Y-29015128D01*
X39681052Y-29046542D01*
X39374362Y-29139575D01*
X39091714Y-29290654D01*
X38843971Y-29493971D01*
X38640654Y-29741714D01*
X38489575Y-30024362D01*
X38396542Y-30331052D01*
X38365128Y-30650000D01*
X37660000Y-30650000D01*
X37660000Y-19660000D01*
X78340000Y-19660000D01*
X78340001Y-74340000D01*
%TD*%
M02*
