%TF.GenerationSoftware,KiCad,Pcbnew,5.1.6-c6e7f7d~87~ubuntu20.04.1*%
%TF.CreationDate,2020-09-21T11:46:00+02:00*%
%TF.ProjectId,bias-t-injector-smd,62696173-2d74-42d6-996e-6a6563746f72,rev?*%
%TF.SameCoordinates,Original*%
%TF.FileFunction,Paste,Top*%
%TF.FilePolarity,Positive*%
%FSLAX46Y46*%
G04 Gerber Fmt 4.6, Leading zero omitted, Abs format (unit mm)*
G04 Created by KiCad (PCBNEW 5.1.6-c6e7f7d~87~ubuntu20.04.1) date 2020-09-21 11:46:00*
%MOMM*%
%LPD*%
G01*
G04 APERTURE LIST*
%ADD10R,2.000000X2.500000*%
%ADD11R,2.500000X2.300000*%
%ADD12R,3.200000X2.000000*%
%ADD13R,2.000000X3.200000*%
G04 APERTURE END LIST*
%TO.C,C1*%
G36*
G01*
X57812500Y-34549999D02*
X57812500Y-37450001D01*
G75*
G02*
X57562501Y-37700000I-249999J0D01*
G01*
X56937499Y-37700000D01*
G75*
G02*
X56687500Y-37450001I0J249999D01*
G01*
X56687500Y-34549999D01*
G75*
G02*
X56937499Y-34300000I249999J0D01*
G01*
X57562501Y-34300000D01*
G75*
G02*
X57812500Y-34549999I0J-249999D01*
G01*
G37*
G36*
G01*
X53537500Y-34549999D02*
X53537500Y-37450001D01*
G75*
G02*
X53287501Y-37700000I-249999J0D01*
G01*
X52662499Y-37700000D01*
G75*
G02*
X52412500Y-37450001I0J249999D01*
G01*
X52412500Y-34549999D01*
G75*
G02*
X52662499Y-34300000I249999J0D01*
G01*
X53287501Y-34300000D01*
G75*
G02*
X53537500Y-34549999I0J-249999D01*
G01*
G37*
%TD*%
%TO.C,C2*%
G36*
G01*
X47725000Y-50375000D02*
X47725000Y-51625000D01*
G75*
G02*
X47475000Y-51875000I-250000J0D01*
G01*
X46725000Y-51875000D01*
G75*
G02*
X46475000Y-51625000I0J250000D01*
G01*
X46475000Y-50375000D01*
G75*
G02*
X46725000Y-50125000I250000J0D01*
G01*
X47475000Y-50125000D01*
G75*
G02*
X47725000Y-50375000I0J-250000D01*
G01*
G37*
G36*
G01*
X50525000Y-50375000D02*
X50525000Y-51625000D01*
G75*
G02*
X50275000Y-51875000I-250000J0D01*
G01*
X49525000Y-51875000D01*
G75*
G02*
X49275000Y-51625000I0J250000D01*
G01*
X49275000Y-50375000D01*
G75*
G02*
X49525000Y-50125000I250000J0D01*
G01*
X50275000Y-50125000D01*
G75*
G02*
X50525000Y-50375000I0J-250000D01*
G01*
G37*
%TD*%
%TO.C,C3*%
G36*
G01*
X63575000Y-51625000D02*
X63575000Y-50375000D01*
G75*
G02*
X63825000Y-50125000I250000J0D01*
G01*
X64575000Y-50125000D01*
G75*
G02*
X64825000Y-50375000I0J-250000D01*
G01*
X64825000Y-51625000D01*
G75*
G02*
X64575000Y-51875000I-250000J0D01*
G01*
X63825000Y-51875000D01*
G75*
G02*
X63575000Y-51625000I0J250000D01*
G01*
G37*
G36*
G01*
X66375000Y-51625000D02*
X66375000Y-50375000D01*
G75*
G02*
X66625000Y-50125000I250000J0D01*
G01*
X67375000Y-50125000D01*
G75*
G02*
X67625000Y-50375000I0J-250000D01*
G01*
X67625000Y-51625000D01*
G75*
G02*
X67375000Y-51875000I-250000J0D01*
G01*
X66625000Y-51875000D01*
G75*
G02*
X66375000Y-51625000I0J250000D01*
G01*
G37*
%TD*%
D10*
%TO.C,C4*%
X59250000Y-51000000D03*
X53750000Y-51000000D03*
%TD*%
%TO.C,C5*%
G36*
G01*
X57812500Y-30549999D02*
X57812500Y-33450001D01*
G75*
G02*
X57562501Y-33700000I-249999J0D01*
G01*
X56937499Y-33700000D01*
G75*
G02*
X56687500Y-33450001I0J249999D01*
G01*
X56687500Y-30549999D01*
G75*
G02*
X56937499Y-30300000I249999J0D01*
G01*
X57562501Y-30300000D01*
G75*
G02*
X57812500Y-30549999I0J-249999D01*
G01*
G37*
G36*
G01*
X53537500Y-30549999D02*
X53537500Y-33450001D01*
G75*
G02*
X53287501Y-33700000I-249999J0D01*
G01*
X52662499Y-33700000D01*
G75*
G02*
X52412500Y-33450001I0J249999D01*
G01*
X52412500Y-30549999D01*
G75*
G02*
X52662499Y-30300000I249999J0D01*
G01*
X53287501Y-30300000D01*
G75*
G02*
X53537500Y-30549999I0J-249999D01*
G01*
G37*
%TD*%
%TO.C,C6*%
G36*
G01*
X53562500Y-26549999D02*
X53562500Y-29450001D01*
G75*
G02*
X53312501Y-29700000I-249999J0D01*
G01*
X52687499Y-29700000D01*
G75*
G02*
X52437500Y-29450001I0J249999D01*
G01*
X52437500Y-26549999D01*
G75*
G02*
X52687499Y-26300000I249999J0D01*
G01*
X53312501Y-26300000D01*
G75*
G02*
X53562500Y-26549999I0J-249999D01*
G01*
G37*
G36*
G01*
X57837500Y-26549999D02*
X57837500Y-29450001D01*
G75*
G02*
X57587501Y-29700000I-249999J0D01*
G01*
X56962499Y-29700000D01*
G75*
G02*
X56712500Y-29450001I0J249999D01*
G01*
X56712500Y-26549999D01*
G75*
G02*
X56962499Y-26300000I249999J0D01*
G01*
X57587501Y-26300000D01*
G75*
G02*
X57837500Y-26549999I0J-249999D01*
G01*
G37*
%TD*%
D11*
%TO.C,D1*%
X54700000Y-56000000D03*
X59000000Y-56000000D03*
%TD*%
D12*
%TO.C,L2*%
X65000000Y-32200000D03*
X65000000Y-40000000D03*
D13*
X68900000Y-36100000D03*
%TD*%
M02*
