%TF.GenerationSoftware,KiCad,Pcbnew,5.1.6-c6e7f7d~87~ubuntu20.04.1*%
%TF.CreationDate,2020-09-01T11:43:32+02:00*%
%TF.ProjectId,bias-t-extractor-smd,62696173-2d74-42d6-9578-74726163746f,rev?*%
%TF.SameCoordinates,Original*%
%TF.FileFunction,Copper,L2,Bot*%
%TF.FilePolarity,Positive*%
%FSLAX46Y46*%
G04 Gerber Fmt 4.6, Leading zero omitted, Abs format (unit mm)*
G04 Created by KiCad (PCBNEW 5.1.6-c6e7f7d~87~ubuntu20.04.1) date 2020-09-01 11:43:32*
%MOMM*%
%LPD*%
G01*
G04 APERTURE LIST*
%TA.AperFunction,ComponentPad*%
%ADD10R,4.000000X2.700000*%
%TD*%
%TA.AperFunction,ComponentPad*%
%ADD11C,2.100000*%
%TD*%
%TA.AperFunction,ComponentPad*%
%ADD12R,2.100000X2.100000*%
%TD*%
%TA.AperFunction,ComponentPad*%
%ADD13C,7.500000*%
%TD*%
%TA.AperFunction,Conductor*%
%ADD14C,0.700000*%
%TD*%
%TA.AperFunction,Conductor*%
%ADD15C,0.254000*%
%TD*%
G04 APERTURE END LIST*
D10*
%TO.P,J1,2*%
%TO.N,/RF-GND*%
X42000000Y-40000000D03*
%TO.P,J1,1*%
%TO.N,/RF*%
X42000000Y-32000000D03*
%TD*%
D11*
%TO.P,J2,2*%
%TO.N,/DC-GND*%
X46000000Y-51210000D03*
D12*
%TO.P,J2,1*%
%TO.N,/DC+*%
X46000000Y-53750000D03*
%TD*%
D10*
%TO.P,J3,2*%
%TO.N,/RF-GND*%
X73500000Y-40000000D03*
%TO.P,J3,1*%
%TO.N,/RF+DC*%
X73500000Y-32000000D03*
%TD*%
D11*
%TO.P,LA1,2*%
%TO.N,/DC+*%
X68000000Y-53250000D03*
D12*
%TO.P,LA1,1*%
%TO.N,/DC-GND*%
X68000000Y-50710000D03*
%TD*%
D13*
%TO.P,H1,1*%
%TO.N,/DC-GND*%
X44500000Y-23500000D03*
%TD*%
%TO.P,H2,1*%
%TO.N,/DC-GND*%
X71000000Y-70500000D03*
%TD*%
%TO.P,H3,1*%
%TO.N,/DC-GND*%
X44500000Y-70500000D03*
%TD*%
%TO.P,H4,1*%
%TO.N,/DC-GND*%
X71000000Y-23500000D03*
%TD*%
%TO.P,L1,1*%
%TO.N,/RF-GND*%
%TA.AperFunction,SMDPad,CuDef*%
G36*
G01*
X49150000Y-40800000D02*
X50850000Y-40800000D01*
G75*
G02*
X51100000Y-41050000I0J-250000D01*
G01*
X51100000Y-41800000D01*
G75*
G02*
X50850000Y-42050000I-250000J0D01*
G01*
X49150000Y-42050000D01*
G75*
G02*
X48900000Y-41800000I0J250000D01*
G01*
X48900000Y-41050000D01*
G75*
G02*
X49150000Y-40800000I250000J0D01*
G01*
G37*
%TD.AperFunction*%
%TO.P,L1,2*%
%TO.N,/DC-GND*%
%TA.AperFunction,SMDPad,CuDef*%
G36*
G01*
X49150000Y-42950000D02*
X50850000Y-42950000D01*
G75*
G02*
X51100000Y-43200000I0J-250000D01*
G01*
X51100000Y-43950000D01*
G75*
G02*
X50850000Y-44200000I-250000J0D01*
G01*
X49150000Y-44200000D01*
G75*
G02*
X48900000Y-43950000I0J250000D01*
G01*
X48900000Y-43200000D01*
G75*
G02*
X49150000Y-42950000I250000J0D01*
G01*
G37*
%TD.AperFunction*%
%TD*%
D14*
%TO.N,/RF-GND*%
X73500000Y-40000000D02*
X48500000Y-40000000D01*
X48500000Y-40000000D02*
X42000000Y-40000000D01*
X49674990Y-41099990D02*
X50000000Y-41099990D01*
X48575000Y-40000000D02*
X49674990Y-41099990D01*
X48500000Y-40000000D02*
X48575000Y-40000000D01*
%TO.N,/DC-GND*%
X68000000Y-50710000D02*
X46500000Y-50710000D01*
X46500000Y-50710000D02*
X46000000Y-51210000D01*
X49674990Y-43900010D02*
X50000000Y-43900010D01*
X49575000Y-44000000D02*
X49674990Y-43900010D01*
X49000000Y-44000000D02*
X49575000Y-44000000D01*
%TD*%
D15*
%TO.N,/DC-GND*%
G36*
X78340001Y-74340000D02*
G01*
X37660000Y-74340000D01*
X37660000Y-52700000D01*
X44311928Y-52700000D01*
X44311928Y-54800000D01*
X44324188Y-54924482D01*
X44360498Y-55044180D01*
X44419463Y-55154494D01*
X44498815Y-55251185D01*
X44595506Y-55330537D01*
X44705820Y-55389502D01*
X44825518Y-55425812D01*
X44950000Y-55438072D01*
X47050000Y-55438072D01*
X47174482Y-55425812D01*
X47294180Y-55389502D01*
X47404494Y-55330537D01*
X47501185Y-55251185D01*
X47580537Y-55154494D01*
X47639502Y-55044180D01*
X47675812Y-54924482D01*
X47688072Y-54800000D01*
X47688072Y-53084042D01*
X66315000Y-53084042D01*
X66315000Y-53415958D01*
X66379754Y-53741496D01*
X66506772Y-54048147D01*
X66691175Y-54324125D01*
X66925875Y-54558825D01*
X67201853Y-54743228D01*
X67508504Y-54870246D01*
X67834042Y-54935000D01*
X68165958Y-54935000D01*
X68491496Y-54870246D01*
X68798147Y-54743228D01*
X69074125Y-54558825D01*
X69308825Y-54324125D01*
X69493228Y-54048147D01*
X69620246Y-53741496D01*
X69685000Y-53415958D01*
X69685000Y-53084042D01*
X69620246Y-52758504D01*
X69493228Y-52451853D01*
X69308825Y-52175875D01*
X69074125Y-51941175D01*
X68798147Y-51756772D01*
X68491496Y-51629754D01*
X68165958Y-51565000D01*
X67834042Y-51565000D01*
X67508504Y-51629754D01*
X67201853Y-51756772D01*
X66925875Y-51941175D01*
X66691175Y-52175875D01*
X66506772Y-52451853D01*
X66379754Y-52758504D01*
X66315000Y-53084042D01*
X47688072Y-53084042D01*
X47688072Y-52700000D01*
X47675812Y-52575518D01*
X47639502Y-52455820D01*
X47580537Y-52345506D01*
X47501185Y-52248815D01*
X47404494Y-52169463D01*
X47294180Y-52110498D01*
X47174482Y-52074188D01*
X47050000Y-52061928D01*
X44950000Y-52061928D01*
X44825518Y-52074188D01*
X44705820Y-52110498D01*
X44595506Y-52169463D01*
X44498815Y-52248815D01*
X44419463Y-52345506D01*
X44360498Y-52455820D01*
X44324188Y-52575518D01*
X44311928Y-52700000D01*
X37660000Y-52700000D01*
X37660000Y-38650000D01*
X38365128Y-38650000D01*
X38365128Y-41350000D01*
X38396542Y-41668948D01*
X38489575Y-41975638D01*
X38640654Y-42258286D01*
X38843971Y-42506029D01*
X39091714Y-42709346D01*
X39374362Y-42860425D01*
X39681052Y-42953458D01*
X40000000Y-42984872D01*
X44000000Y-42984872D01*
X44318948Y-42953458D01*
X44625638Y-42860425D01*
X44908286Y-42709346D01*
X45156029Y-42506029D01*
X45359346Y-42258286D01*
X45509697Y-41977000D01*
X47282561Y-41977000D01*
X47301345Y-42167720D01*
X47408605Y-42521309D01*
X47582786Y-42847179D01*
X47817194Y-43132806D01*
X48102821Y-43367214D01*
X48428691Y-43541395D01*
X48782280Y-43648655D01*
X49150000Y-43684872D01*
X50850000Y-43684872D01*
X51217720Y-43648655D01*
X51571309Y-43541395D01*
X51897179Y-43367214D01*
X52182806Y-43132806D01*
X52417214Y-42847179D01*
X52591395Y-42521309D01*
X52698655Y-42167720D01*
X52717439Y-41977000D01*
X69990303Y-41977000D01*
X70140654Y-42258286D01*
X70343971Y-42506029D01*
X70591714Y-42709346D01*
X70874362Y-42860425D01*
X71181052Y-42953458D01*
X71500000Y-42984872D01*
X75500000Y-42984872D01*
X75818948Y-42953458D01*
X76125638Y-42860425D01*
X76408286Y-42709346D01*
X76656029Y-42506029D01*
X76859346Y-42258286D01*
X77010425Y-41975638D01*
X77103458Y-41668948D01*
X77134872Y-41350000D01*
X77134872Y-38650000D01*
X77103458Y-38331052D01*
X77010425Y-38024362D01*
X76859346Y-37741714D01*
X76656029Y-37493971D01*
X76408286Y-37290654D01*
X76125638Y-37139575D01*
X75818948Y-37046542D01*
X75500000Y-37015128D01*
X71500000Y-37015128D01*
X71181052Y-37046542D01*
X70874362Y-37139575D01*
X70591714Y-37290654D01*
X70343971Y-37493971D01*
X70140654Y-37741714D01*
X69990303Y-38023000D01*
X48672113Y-38023000D01*
X48575000Y-38013435D01*
X48477887Y-38023000D01*
X45509697Y-38023000D01*
X45359346Y-37741714D01*
X45156029Y-37493971D01*
X44908286Y-37290654D01*
X44625638Y-37139575D01*
X44318948Y-37046542D01*
X44000000Y-37015128D01*
X40000000Y-37015128D01*
X39681052Y-37046542D01*
X39374362Y-37139575D01*
X39091714Y-37290654D01*
X38843971Y-37493971D01*
X38640654Y-37741714D01*
X38489575Y-38024362D01*
X38396542Y-38331052D01*
X38365128Y-38650000D01*
X37660000Y-38650000D01*
X37660000Y-30650000D01*
X38365128Y-30650000D01*
X38365128Y-33350000D01*
X38396542Y-33668948D01*
X38489575Y-33975638D01*
X38640654Y-34258286D01*
X38843971Y-34506029D01*
X39091714Y-34709346D01*
X39374362Y-34860425D01*
X39681052Y-34953458D01*
X40000000Y-34984872D01*
X44000000Y-34984872D01*
X44318948Y-34953458D01*
X44625638Y-34860425D01*
X44908286Y-34709346D01*
X45156029Y-34506029D01*
X45359346Y-34258286D01*
X45510425Y-33975638D01*
X45603458Y-33668948D01*
X45634872Y-33350000D01*
X45634872Y-30650000D01*
X69865128Y-30650000D01*
X69865128Y-33350000D01*
X69896542Y-33668948D01*
X69989575Y-33975638D01*
X70140654Y-34258286D01*
X70343971Y-34506029D01*
X70591714Y-34709346D01*
X70874362Y-34860425D01*
X71181052Y-34953458D01*
X71500000Y-34984872D01*
X75500000Y-34984872D01*
X75818948Y-34953458D01*
X76125638Y-34860425D01*
X76408286Y-34709346D01*
X76656029Y-34506029D01*
X76859346Y-34258286D01*
X77010425Y-33975638D01*
X77103458Y-33668948D01*
X77134872Y-33350000D01*
X77134872Y-30650000D01*
X77103458Y-30331052D01*
X77010425Y-30024362D01*
X76859346Y-29741714D01*
X76656029Y-29493971D01*
X76408286Y-29290654D01*
X76125638Y-29139575D01*
X75818948Y-29046542D01*
X75500000Y-29015128D01*
X71500000Y-29015128D01*
X71181052Y-29046542D01*
X70874362Y-29139575D01*
X70591714Y-29290654D01*
X70343971Y-29493971D01*
X70140654Y-29741714D01*
X69989575Y-30024362D01*
X69896542Y-30331052D01*
X69865128Y-30650000D01*
X45634872Y-30650000D01*
X45603458Y-30331052D01*
X45510425Y-30024362D01*
X45359346Y-29741714D01*
X45156029Y-29493971D01*
X44908286Y-29290654D01*
X44625638Y-29139575D01*
X44318948Y-29046542D01*
X44000000Y-29015128D01*
X40000000Y-29015128D01*
X39681052Y-29046542D01*
X39374362Y-29139575D01*
X39091714Y-29290654D01*
X38843971Y-29493971D01*
X38640654Y-29741714D01*
X38489575Y-30024362D01*
X38396542Y-30331052D01*
X38365128Y-30650000D01*
X37660000Y-30650000D01*
X37660000Y-19660000D01*
X78340000Y-19660000D01*
X78340001Y-74340000D01*
G37*
X78340001Y-74340000D02*
X37660000Y-74340000D01*
X37660000Y-52700000D01*
X44311928Y-52700000D01*
X44311928Y-54800000D01*
X44324188Y-54924482D01*
X44360498Y-55044180D01*
X44419463Y-55154494D01*
X44498815Y-55251185D01*
X44595506Y-55330537D01*
X44705820Y-55389502D01*
X44825518Y-55425812D01*
X44950000Y-55438072D01*
X47050000Y-55438072D01*
X47174482Y-55425812D01*
X47294180Y-55389502D01*
X47404494Y-55330537D01*
X47501185Y-55251185D01*
X47580537Y-55154494D01*
X47639502Y-55044180D01*
X47675812Y-54924482D01*
X47688072Y-54800000D01*
X47688072Y-53084042D01*
X66315000Y-53084042D01*
X66315000Y-53415958D01*
X66379754Y-53741496D01*
X66506772Y-54048147D01*
X66691175Y-54324125D01*
X66925875Y-54558825D01*
X67201853Y-54743228D01*
X67508504Y-54870246D01*
X67834042Y-54935000D01*
X68165958Y-54935000D01*
X68491496Y-54870246D01*
X68798147Y-54743228D01*
X69074125Y-54558825D01*
X69308825Y-54324125D01*
X69493228Y-54048147D01*
X69620246Y-53741496D01*
X69685000Y-53415958D01*
X69685000Y-53084042D01*
X69620246Y-52758504D01*
X69493228Y-52451853D01*
X69308825Y-52175875D01*
X69074125Y-51941175D01*
X68798147Y-51756772D01*
X68491496Y-51629754D01*
X68165958Y-51565000D01*
X67834042Y-51565000D01*
X67508504Y-51629754D01*
X67201853Y-51756772D01*
X66925875Y-51941175D01*
X66691175Y-52175875D01*
X66506772Y-52451853D01*
X66379754Y-52758504D01*
X66315000Y-53084042D01*
X47688072Y-53084042D01*
X47688072Y-52700000D01*
X47675812Y-52575518D01*
X47639502Y-52455820D01*
X47580537Y-52345506D01*
X47501185Y-52248815D01*
X47404494Y-52169463D01*
X47294180Y-52110498D01*
X47174482Y-52074188D01*
X47050000Y-52061928D01*
X44950000Y-52061928D01*
X44825518Y-52074188D01*
X44705820Y-52110498D01*
X44595506Y-52169463D01*
X44498815Y-52248815D01*
X44419463Y-52345506D01*
X44360498Y-52455820D01*
X44324188Y-52575518D01*
X44311928Y-52700000D01*
X37660000Y-52700000D01*
X37660000Y-38650000D01*
X38365128Y-38650000D01*
X38365128Y-41350000D01*
X38396542Y-41668948D01*
X38489575Y-41975638D01*
X38640654Y-42258286D01*
X38843971Y-42506029D01*
X39091714Y-42709346D01*
X39374362Y-42860425D01*
X39681052Y-42953458D01*
X40000000Y-42984872D01*
X44000000Y-42984872D01*
X44318948Y-42953458D01*
X44625638Y-42860425D01*
X44908286Y-42709346D01*
X45156029Y-42506029D01*
X45359346Y-42258286D01*
X45509697Y-41977000D01*
X47282561Y-41977000D01*
X47301345Y-42167720D01*
X47408605Y-42521309D01*
X47582786Y-42847179D01*
X47817194Y-43132806D01*
X48102821Y-43367214D01*
X48428691Y-43541395D01*
X48782280Y-43648655D01*
X49150000Y-43684872D01*
X50850000Y-43684872D01*
X51217720Y-43648655D01*
X51571309Y-43541395D01*
X51897179Y-43367214D01*
X52182806Y-43132806D01*
X52417214Y-42847179D01*
X52591395Y-42521309D01*
X52698655Y-42167720D01*
X52717439Y-41977000D01*
X69990303Y-41977000D01*
X70140654Y-42258286D01*
X70343971Y-42506029D01*
X70591714Y-42709346D01*
X70874362Y-42860425D01*
X71181052Y-42953458D01*
X71500000Y-42984872D01*
X75500000Y-42984872D01*
X75818948Y-42953458D01*
X76125638Y-42860425D01*
X76408286Y-42709346D01*
X76656029Y-42506029D01*
X76859346Y-42258286D01*
X77010425Y-41975638D01*
X77103458Y-41668948D01*
X77134872Y-41350000D01*
X77134872Y-38650000D01*
X77103458Y-38331052D01*
X77010425Y-38024362D01*
X76859346Y-37741714D01*
X76656029Y-37493971D01*
X76408286Y-37290654D01*
X76125638Y-37139575D01*
X75818948Y-37046542D01*
X75500000Y-37015128D01*
X71500000Y-37015128D01*
X71181052Y-37046542D01*
X70874362Y-37139575D01*
X70591714Y-37290654D01*
X70343971Y-37493971D01*
X70140654Y-37741714D01*
X69990303Y-38023000D01*
X48672113Y-38023000D01*
X48575000Y-38013435D01*
X48477887Y-38023000D01*
X45509697Y-38023000D01*
X45359346Y-37741714D01*
X45156029Y-37493971D01*
X44908286Y-37290654D01*
X44625638Y-37139575D01*
X44318948Y-37046542D01*
X44000000Y-37015128D01*
X40000000Y-37015128D01*
X39681052Y-37046542D01*
X39374362Y-37139575D01*
X39091714Y-37290654D01*
X38843971Y-37493971D01*
X38640654Y-37741714D01*
X38489575Y-38024362D01*
X38396542Y-38331052D01*
X38365128Y-38650000D01*
X37660000Y-38650000D01*
X37660000Y-30650000D01*
X38365128Y-30650000D01*
X38365128Y-33350000D01*
X38396542Y-33668948D01*
X38489575Y-33975638D01*
X38640654Y-34258286D01*
X38843971Y-34506029D01*
X39091714Y-34709346D01*
X39374362Y-34860425D01*
X39681052Y-34953458D01*
X40000000Y-34984872D01*
X44000000Y-34984872D01*
X44318948Y-34953458D01*
X44625638Y-34860425D01*
X44908286Y-34709346D01*
X45156029Y-34506029D01*
X45359346Y-34258286D01*
X45510425Y-33975638D01*
X45603458Y-33668948D01*
X45634872Y-33350000D01*
X45634872Y-30650000D01*
X69865128Y-30650000D01*
X69865128Y-33350000D01*
X69896542Y-33668948D01*
X69989575Y-33975638D01*
X70140654Y-34258286D01*
X70343971Y-34506029D01*
X70591714Y-34709346D01*
X70874362Y-34860425D01*
X71181052Y-34953458D01*
X71500000Y-34984872D01*
X75500000Y-34984872D01*
X75818948Y-34953458D01*
X76125638Y-34860425D01*
X76408286Y-34709346D01*
X76656029Y-34506029D01*
X76859346Y-34258286D01*
X77010425Y-33975638D01*
X77103458Y-33668948D01*
X77134872Y-33350000D01*
X77134872Y-30650000D01*
X77103458Y-30331052D01*
X77010425Y-30024362D01*
X76859346Y-29741714D01*
X76656029Y-29493971D01*
X76408286Y-29290654D01*
X76125638Y-29139575D01*
X75818948Y-29046542D01*
X75500000Y-29015128D01*
X71500000Y-29015128D01*
X71181052Y-29046542D01*
X70874362Y-29139575D01*
X70591714Y-29290654D01*
X70343971Y-29493971D01*
X70140654Y-29741714D01*
X69989575Y-30024362D01*
X69896542Y-30331052D01*
X69865128Y-30650000D01*
X45634872Y-30650000D01*
X45603458Y-30331052D01*
X45510425Y-30024362D01*
X45359346Y-29741714D01*
X45156029Y-29493971D01*
X44908286Y-29290654D01*
X44625638Y-29139575D01*
X44318948Y-29046542D01*
X44000000Y-29015128D01*
X40000000Y-29015128D01*
X39681052Y-29046542D01*
X39374362Y-29139575D01*
X39091714Y-29290654D01*
X38843971Y-29493971D01*
X38640654Y-29741714D01*
X38489575Y-30024362D01*
X38396542Y-30331052D01*
X38365128Y-30650000D01*
X37660000Y-30650000D01*
X37660000Y-19660000D01*
X78340000Y-19660000D01*
X78340001Y-74340000D01*
%TD*%
M02*
