%TF.GenerationSoftware,KiCad,Pcbnew,5.1.6-c6e7f7d~87~ubuntu20.04.1*%
%TF.CreationDate,2020-09-02T03:29:44+02:00*%
%TF.ProjectId,bias-t-extractor-smd,62696173-2d74-42d6-9578-74726163746f,rev?*%
%TF.SameCoordinates,Original*%
%TF.FileFunction,Soldermask,Top*%
%TF.FilePolarity,Negative*%
%FSLAX46Y46*%
G04 Gerber Fmt 4.6, Leading zero omitted, Abs format (unit mm)*
G04 Created by KiCad (PCBNEW 5.1.6-c6e7f7d~87~ubuntu20.04.1) date 2020-09-02 03:29:44*
%MOMM*%
%LPD*%
G01*
G04 APERTURE LIST*
%ADD10R,4.100000X2.800000*%
%ADD11C,2.200000*%
%ADD12R,2.200000X2.200000*%
%ADD13C,7.600000*%
%ADD14R,2.100000X2.600000*%
%ADD15R,2.600000X2.400000*%
%ADD16R,2.100000X3.300000*%
%ADD17R,3.300000X2.100000*%
G04 APERTURE END LIST*
D10*
%TO.C,J1*%
X42000000Y-40000000D03*
X42000000Y-32000000D03*
%TD*%
D11*
%TO.C,J2*%
X47500000Y-57710000D03*
D12*
X47500000Y-60250000D03*
%TD*%
D10*
%TO.C,J3*%
X73500000Y-40000000D03*
X73500000Y-32000000D03*
%TD*%
D11*
%TO.C,LA1*%
X69500000Y-59750000D03*
D12*
X69500000Y-57210000D03*
%TD*%
D13*
%TO.C,H1*%
X44500000Y-23500000D03*
%TD*%
%TO.C,H2*%
X71000000Y-70500000D03*
%TD*%
%TO.C,H3*%
X44500000Y-70500000D03*
%TD*%
%TO.C,H4*%
X71000000Y-23500000D03*
%TD*%
%TO.C,C1*%
G36*
G01*
X57862500Y-34522221D02*
X57862500Y-37477779D01*
G75*
G02*
X57590279Y-37750000I-272221J0D01*
G01*
X56909721Y-37750000D01*
G75*
G02*
X56637500Y-37477779I0J272221D01*
G01*
X56637500Y-34522221D01*
G75*
G02*
X56909721Y-34250000I272221J0D01*
G01*
X57590279Y-34250000D01*
G75*
G02*
X57862500Y-34522221I0J-272221D01*
G01*
G37*
G36*
G01*
X53587500Y-34522221D02*
X53587500Y-37477779D01*
G75*
G02*
X53315279Y-37750000I-272221J0D01*
G01*
X52634721Y-37750000D01*
G75*
G02*
X52362500Y-37477779I0J272221D01*
G01*
X52362500Y-34522221D01*
G75*
G02*
X52634721Y-34250000I272221J0D01*
G01*
X53315279Y-34250000D01*
G75*
G02*
X53587500Y-34522221I0J-272221D01*
G01*
G37*
%TD*%
%TO.C,C2*%
G36*
G01*
X49375000Y-50845000D02*
X49375000Y-52155000D01*
G75*
G02*
X49105000Y-52425000I-270000J0D01*
G01*
X48295000Y-52425000D01*
G75*
G02*
X48025000Y-52155000I0J270000D01*
G01*
X48025000Y-50845000D01*
G75*
G02*
X48295000Y-50575000I270000J0D01*
G01*
X49105000Y-50575000D01*
G75*
G02*
X49375000Y-50845000I0J-270000D01*
G01*
G37*
G36*
G01*
X52175000Y-50845000D02*
X52175000Y-52155000D01*
G75*
G02*
X51905000Y-52425000I-270000J0D01*
G01*
X51095000Y-52425000D01*
G75*
G02*
X50825000Y-52155000I0J270000D01*
G01*
X50825000Y-50845000D01*
G75*
G02*
X51095000Y-50575000I270000J0D01*
G01*
X51905000Y-50575000D01*
G75*
G02*
X52175000Y-50845000I0J-270000D01*
G01*
G37*
%TD*%
%TO.C,C3*%
G36*
G01*
X63525000Y-51655000D02*
X63525000Y-50345000D01*
G75*
G02*
X63795000Y-50075000I270000J0D01*
G01*
X64605000Y-50075000D01*
G75*
G02*
X64875000Y-50345000I0J-270000D01*
G01*
X64875000Y-51655000D01*
G75*
G02*
X64605000Y-51925000I-270000J0D01*
G01*
X63795000Y-51925000D01*
G75*
G02*
X63525000Y-51655000I0J270000D01*
G01*
G37*
G36*
G01*
X66325000Y-51655000D02*
X66325000Y-50345000D01*
G75*
G02*
X66595000Y-50075000I270000J0D01*
G01*
X67405000Y-50075000D01*
G75*
G02*
X67675000Y-50345000I0J-270000D01*
G01*
X67675000Y-51655000D01*
G75*
G02*
X67405000Y-51925000I-270000J0D01*
G01*
X66595000Y-51925000D01*
G75*
G02*
X66325000Y-51655000I0J270000D01*
G01*
G37*
%TD*%
D14*
%TO.C,C4*%
X60500000Y-51000000D03*
X55000000Y-51000000D03*
%TD*%
%TO.C,C5*%
G36*
G01*
X57862500Y-30522221D02*
X57862500Y-33477779D01*
G75*
G02*
X57590279Y-33750000I-272221J0D01*
G01*
X56909721Y-33750000D01*
G75*
G02*
X56637500Y-33477779I0J272221D01*
G01*
X56637500Y-30522221D01*
G75*
G02*
X56909721Y-30250000I272221J0D01*
G01*
X57590279Y-30250000D01*
G75*
G02*
X57862500Y-30522221I0J-272221D01*
G01*
G37*
G36*
G01*
X53587500Y-30522221D02*
X53587500Y-33477779D01*
G75*
G02*
X53315279Y-33750000I-272221J0D01*
G01*
X52634721Y-33750000D01*
G75*
G02*
X52362500Y-33477779I0J272221D01*
G01*
X52362500Y-30522221D01*
G75*
G02*
X52634721Y-30250000I272221J0D01*
G01*
X53315279Y-30250000D01*
G75*
G02*
X53587500Y-30522221I0J-272221D01*
G01*
G37*
%TD*%
%TO.C,C6*%
G36*
G01*
X53612500Y-26522221D02*
X53612500Y-29477779D01*
G75*
G02*
X53340279Y-29750000I-272221J0D01*
G01*
X52659721Y-29750000D01*
G75*
G02*
X52387500Y-29477779I0J272221D01*
G01*
X52387500Y-26522221D01*
G75*
G02*
X52659721Y-26250000I272221J0D01*
G01*
X53340279Y-26250000D01*
G75*
G02*
X53612500Y-26522221I0J-272221D01*
G01*
G37*
G36*
G01*
X57887500Y-26522221D02*
X57887500Y-29477779D01*
G75*
G02*
X57615279Y-29750000I-272221J0D01*
G01*
X56934721Y-29750000D01*
G75*
G02*
X56662500Y-29477779I0J272221D01*
G01*
X56662500Y-26522221D01*
G75*
G02*
X56934721Y-26250000I272221J0D01*
G01*
X57615279Y-26250000D01*
G75*
G02*
X57887500Y-26522221I0J-272221D01*
G01*
G37*
%TD*%
D15*
%TO.C,D1*%
X56200000Y-58500000D03*
X60500000Y-58500000D03*
%TD*%
D16*
%TO.C,L2*%
X68900000Y-36100000D03*
X61100000Y-36100000D03*
D17*
X65000000Y-40000000D03*
X65000000Y-32200000D03*
%TD*%
M02*
