%TF.GenerationSoftware,KiCad,Pcbnew,5.1.6-c6e7f7d~87~ubuntu20.04.1*%
%TF.CreationDate,2020-09-02T03:29:44+02:00*%
%TF.ProjectId,bias-t-extractor-smd,62696173-2d74-42d6-9578-74726163746f,rev?*%
%TF.SameCoordinates,Original*%
%TF.FileFunction,Copper,L2,Bot*%
%TF.FilePolarity,Positive*%
%FSLAX46Y46*%
G04 Gerber Fmt 4.6, Leading zero omitted, Abs format (unit mm)*
G04 Created by KiCad (PCBNEW 5.1.6-c6e7f7d~87~ubuntu20.04.1) date 2020-09-02 03:29:44*
%MOMM*%
%LPD*%
G01*
G04 APERTURE LIST*
%TA.AperFunction,ComponentPad*%
%ADD10R,4.000000X2.700000*%
%TD*%
%TA.AperFunction,ComponentPad*%
%ADD11C,2.100000*%
%TD*%
%TA.AperFunction,ComponentPad*%
%ADD12R,2.100000X2.100000*%
%TD*%
%TA.AperFunction,ComponentPad*%
%ADD13C,7.500000*%
%TD*%
%TA.AperFunction,SMDPad,CuDef*%
%ADD14R,3.200000X2.000000*%
%TD*%
%TA.AperFunction,ConnectorPad*%
%ADD15R,2.000000X3.200000*%
%TD*%
%TA.AperFunction,SMDPad,CuDef*%
%ADD16R,2.000000X3.200000*%
%TD*%
%TA.AperFunction,Conductor*%
%ADD17C,0.700000*%
%TD*%
%TA.AperFunction,Conductor*%
%ADD18C,0.254000*%
%TD*%
G04 APERTURE END LIST*
D10*
%TO.P,J1,2*%
%TO.N,/RF-GND*%
X42000000Y-40000000D03*
%TO.P,J1,1*%
%TO.N,/RF*%
X42000000Y-32000000D03*
%TD*%
D11*
%TO.P,J2,2*%
%TO.N,/GND*%
X47500000Y-57710000D03*
D12*
%TO.P,J2,1*%
%TO.N,Net-(C2-Pad1)*%
X47500000Y-60250000D03*
%TD*%
D10*
%TO.P,J3,2*%
%TO.N,/RF-GND*%
X73500000Y-40000000D03*
%TO.P,J3,1*%
%TO.N,/RF+DC*%
X73500000Y-32000000D03*
%TD*%
D11*
%TO.P,LA1,2*%
%TO.N,Net-(C2-Pad1)*%
X69500000Y-59750000D03*
D12*
%TO.P,LA1,1*%
%TO.N,/GND*%
X69500000Y-57210000D03*
%TD*%
D13*
%TO.P,H1,1*%
%TO.N,/GND*%
X44500000Y-23500000D03*
%TD*%
%TO.P,H2,1*%
%TO.N,/GND*%
X71000000Y-70500000D03*
%TD*%
%TO.P,H3,1*%
%TO.N,/GND*%
X44500000Y-70500000D03*
%TD*%
%TO.P,H4,1*%
%TO.N,/GND*%
X71000000Y-23500000D03*
%TD*%
D14*
%TO.P,L1,1*%
%TO.N,/RF-GND*%
X51100000Y-40100000D03*
%TO.P,L1,2*%
%TO.N,/GND*%
X51100000Y-47900000D03*
D15*
%TO.P,L1,3*%
%TO.N,N/C*%
X55000000Y-44000000D03*
D16*
%TO.P,L1,4*%
X47200000Y-44000000D03*
%TD*%
D17*
%TO.N,/RF-GND*%
X51200000Y-40000000D02*
X51100000Y-40100000D01*
X73500000Y-40000000D02*
X51200000Y-40000000D01*
X42100000Y-40100000D02*
X42000000Y-40000000D01*
X51100000Y-40100000D02*
X42100000Y-40100000D01*
%TD*%
D18*
%TO.N,/GND*%
G36*
X78340001Y-74340000D02*
G01*
X37660000Y-74340000D01*
X37660000Y-59200000D01*
X45811928Y-59200000D01*
X45811928Y-61300000D01*
X45824188Y-61424482D01*
X45860498Y-61544180D01*
X45919463Y-61654494D01*
X45998815Y-61751185D01*
X46095506Y-61830537D01*
X46205820Y-61889502D01*
X46325518Y-61925812D01*
X46450000Y-61938072D01*
X48550000Y-61938072D01*
X48674482Y-61925812D01*
X48794180Y-61889502D01*
X48904494Y-61830537D01*
X49001185Y-61751185D01*
X49080537Y-61654494D01*
X49139502Y-61544180D01*
X49175812Y-61424482D01*
X49188072Y-61300000D01*
X49188072Y-59584042D01*
X67815000Y-59584042D01*
X67815000Y-59915958D01*
X67879754Y-60241496D01*
X68006772Y-60548147D01*
X68191175Y-60824125D01*
X68425875Y-61058825D01*
X68701853Y-61243228D01*
X69008504Y-61370246D01*
X69334042Y-61435000D01*
X69665958Y-61435000D01*
X69991496Y-61370246D01*
X70298147Y-61243228D01*
X70574125Y-61058825D01*
X70808825Y-60824125D01*
X70993228Y-60548147D01*
X71120246Y-60241496D01*
X71185000Y-59915958D01*
X71185000Y-59584042D01*
X71120246Y-59258504D01*
X70993228Y-58951853D01*
X70808825Y-58675875D01*
X70574125Y-58441175D01*
X70298147Y-58256772D01*
X69991496Y-58129754D01*
X69665958Y-58065000D01*
X69334042Y-58065000D01*
X69008504Y-58129754D01*
X68701853Y-58256772D01*
X68425875Y-58441175D01*
X68191175Y-58675875D01*
X68006772Y-58951853D01*
X67879754Y-59258504D01*
X67815000Y-59584042D01*
X49188072Y-59584042D01*
X49188072Y-59200000D01*
X49175812Y-59075518D01*
X49139502Y-58955820D01*
X49080537Y-58845506D01*
X49001185Y-58748815D01*
X48904494Y-58669463D01*
X48794180Y-58610498D01*
X48674482Y-58574188D01*
X48550000Y-58561928D01*
X46450000Y-58561928D01*
X46325518Y-58574188D01*
X46205820Y-58610498D01*
X46095506Y-58669463D01*
X45998815Y-58748815D01*
X45919463Y-58845506D01*
X45860498Y-58955820D01*
X45824188Y-59075518D01*
X45811928Y-59200000D01*
X37660000Y-59200000D01*
X37660000Y-38650000D01*
X38365128Y-38650000D01*
X38365128Y-41350000D01*
X38396542Y-41668948D01*
X38489575Y-41975638D01*
X38640654Y-42258286D01*
X38843971Y-42506029D01*
X39091714Y-42709346D01*
X39374362Y-42860425D01*
X39681052Y-42953458D01*
X40000000Y-42984872D01*
X44000000Y-42984872D01*
X44318948Y-42953458D01*
X44625638Y-42860425D01*
X44908286Y-42709346D01*
X45156029Y-42506029D01*
X45359346Y-42258286D01*
X45456246Y-42077000D01*
X45652629Y-42077000D01*
X45610498Y-42155820D01*
X45574188Y-42275518D01*
X45561928Y-42400000D01*
X45561928Y-45600000D01*
X45574188Y-45724482D01*
X45610498Y-45844180D01*
X45669463Y-45954494D01*
X45748815Y-46051185D01*
X45845506Y-46130537D01*
X45955820Y-46189502D01*
X46075518Y-46225812D01*
X46200000Y-46238072D01*
X48200000Y-46238072D01*
X48324482Y-46225812D01*
X48444180Y-46189502D01*
X48554494Y-46130537D01*
X48651185Y-46051185D01*
X48730537Y-45954494D01*
X48789502Y-45844180D01*
X48825812Y-45724482D01*
X48838072Y-45600000D01*
X48838072Y-42591028D01*
X48874362Y-42610425D01*
X49181052Y-42703458D01*
X49500000Y-42734872D01*
X52700000Y-42734872D01*
X53018948Y-42703458D01*
X53325638Y-42610425D01*
X53361928Y-42591028D01*
X53361928Y-45600000D01*
X53374188Y-45724482D01*
X53410498Y-45844180D01*
X53469463Y-45954494D01*
X53548815Y-46051185D01*
X53645506Y-46130537D01*
X53755820Y-46189502D01*
X53875518Y-46225812D01*
X54000000Y-46238072D01*
X56000000Y-46238072D01*
X56124482Y-46225812D01*
X56244180Y-46189502D01*
X56354494Y-46130537D01*
X56451185Y-46051185D01*
X56530537Y-45954494D01*
X56589502Y-45844180D01*
X56625812Y-45724482D01*
X56638072Y-45600000D01*
X56638072Y-42400000D01*
X56625812Y-42275518D01*
X56589502Y-42155820D01*
X56530537Y-42045506D01*
X56474316Y-41977000D01*
X69990303Y-41977000D01*
X70140654Y-42258286D01*
X70343971Y-42506029D01*
X70591714Y-42709346D01*
X70874362Y-42860425D01*
X71181052Y-42953458D01*
X71500000Y-42984872D01*
X75500000Y-42984872D01*
X75818948Y-42953458D01*
X76125638Y-42860425D01*
X76408286Y-42709346D01*
X76656029Y-42506029D01*
X76859346Y-42258286D01*
X77010425Y-41975638D01*
X77103458Y-41668948D01*
X77134872Y-41350000D01*
X77134872Y-38650000D01*
X77103458Y-38331052D01*
X77010425Y-38024362D01*
X76859346Y-37741714D01*
X76656029Y-37493971D01*
X76408286Y-37290654D01*
X76125638Y-37139575D01*
X75818948Y-37046542D01*
X75500000Y-37015128D01*
X71500000Y-37015128D01*
X71181052Y-37046542D01*
X70874362Y-37139575D01*
X70591714Y-37290654D01*
X70343971Y-37493971D01*
X70140654Y-37741714D01*
X69990303Y-38023000D01*
X53920886Y-38023000D01*
X53856029Y-37943971D01*
X53608286Y-37740654D01*
X53325638Y-37589575D01*
X53018948Y-37496542D01*
X52700000Y-37465128D01*
X49500000Y-37465128D01*
X49181052Y-37496542D01*
X48874362Y-37589575D01*
X48591714Y-37740654D01*
X48343971Y-37943971D01*
X48197046Y-38123000D01*
X45540346Y-38123000D01*
X45510425Y-38024362D01*
X45359346Y-37741714D01*
X45156029Y-37493971D01*
X44908286Y-37290654D01*
X44625638Y-37139575D01*
X44318948Y-37046542D01*
X44000000Y-37015128D01*
X40000000Y-37015128D01*
X39681052Y-37046542D01*
X39374362Y-37139575D01*
X39091714Y-37290654D01*
X38843971Y-37493971D01*
X38640654Y-37741714D01*
X38489575Y-38024362D01*
X38396542Y-38331052D01*
X38365128Y-38650000D01*
X37660000Y-38650000D01*
X37660000Y-30650000D01*
X38365128Y-30650000D01*
X38365128Y-33350000D01*
X38396542Y-33668948D01*
X38489575Y-33975638D01*
X38640654Y-34258286D01*
X38843971Y-34506029D01*
X39091714Y-34709346D01*
X39374362Y-34860425D01*
X39681052Y-34953458D01*
X40000000Y-34984872D01*
X44000000Y-34984872D01*
X44318948Y-34953458D01*
X44625638Y-34860425D01*
X44908286Y-34709346D01*
X45156029Y-34506029D01*
X45359346Y-34258286D01*
X45510425Y-33975638D01*
X45603458Y-33668948D01*
X45634872Y-33350000D01*
X45634872Y-30650000D01*
X69865128Y-30650000D01*
X69865128Y-33350000D01*
X69896542Y-33668948D01*
X69989575Y-33975638D01*
X70140654Y-34258286D01*
X70343971Y-34506029D01*
X70591714Y-34709346D01*
X70874362Y-34860425D01*
X71181052Y-34953458D01*
X71500000Y-34984872D01*
X75500000Y-34984872D01*
X75818948Y-34953458D01*
X76125638Y-34860425D01*
X76408286Y-34709346D01*
X76656029Y-34506029D01*
X76859346Y-34258286D01*
X77010425Y-33975638D01*
X77103458Y-33668948D01*
X77134872Y-33350000D01*
X77134872Y-30650000D01*
X77103458Y-30331052D01*
X77010425Y-30024362D01*
X76859346Y-29741714D01*
X76656029Y-29493971D01*
X76408286Y-29290654D01*
X76125638Y-29139575D01*
X75818948Y-29046542D01*
X75500000Y-29015128D01*
X71500000Y-29015128D01*
X71181052Y-29046542D01*
X70874362Y-29139575D01*
X70591714Y-29290654D01*
X70343971Y-29493971D01*
X70140654Y-29741714D01*
X69989575Y-30024362D01*
X69896542Y-30331052D01*
X69865128Y-30650000D01*
X45634872Y-30650000D01*
X45603458Y-30331052D01*
X45510425Y-30024362D01*
X45359346Y-29741714D01*
X45156029Y-29493971D01*
X44908286Y-29290654D01*
X44625638Y-29139575D01*
X44318948Y-29046542D01*
X44000000Y-29015128D01*
X40000000Y-29015128D01*
X39681052Y-29046542D01*
X39374362Y-29139575D01*
X39091714Y-29290654D01*
X38843971Y-29493971D01*
X38640654Y-29741714D01*
X38489575Y-30024362D01*
X38396542Y-30331052D01*
X38365128Y-30650000D01*
X37660000Y-30650000D01*
X37660000Y-19660000D01*
X78340000Y-19660000D01*
X78340001Y-74340000D01*
G37*
X78340001Y-74340000D02*
X37660000Y-74340000D01*
X37660000Y-59200000D01*
X45811928Y-59200000D01*
X45811928Y-61300000D01*
X45824188Y-61424482D01*
X45860498Y-61544180D01*
X45919463Y-61654494D01*
X45998815Y-61751185D01*
X46095506Y-61830537D01*
X46205820Y-61889502D01*
X46325518Y-61925812D01*
X46450000Y-61938072D01*
X48550000Y-61938072D01*
X48674482Y-61925812D01*
X48794180Y-61889502D01*
X48904494Y-61830537D01*
X49001185Y-61751185D01*
X49080537Y-61654494D01*
X49139502Y-61544180D01*
X49175812Y-61424482D01*
X49188072Y-61300000D01*
X49188072Y-59584042D01*
X67815000Y-59584042D01*
X67815000Y-59915958D01*
X67879754Y-60241496D01*
X68006772Y-60548147D01*
X68191175Y-60824125D01*
X68425875Y-61058825D01*
X68701853Y-61243228D01*
X69008504Y-61370246D01*
X69334042Y-61435000D01*
X69665958Y-61435000D01*
X69991496Y-61370246D01*
X70298147Y-61243228D01*
X70574125Y-61058825D01*
X70808825Y-60824125D01*
X70993228Y-60548147D01*
X71120246Y-60241496D01*
X71185000Y-59915958D01*
X71185000Y-59584042D01*
X71120246Y-59258504D01*
X70993228Y-58951853D01*
X70808825Y-58675875D01*
X70574125Y-58441175D01*
X70298147Y-58256772D01*
X69991496Y-58129754D01*
X69665958Y-58065000D01*
X69334042Y-58065000D01*
X69008504Y-58129754D01*
X68701853Y-58256772D01*
X68425875Y-58441175D01*
X68191175Y-58675875D01*
X68006772Y-58951853D01*
X67879754Y-59258504D01*
X67815000Y-59584042D01*
X49188072Y-59584042D01*
X49188072Y-59200000D01*
X49175812Y-59075518D01*
X49139502Y-58955820D01*
X49080537Y-58845506D01*
X49001185Y-58748815D01*
X48904494Y-58669463D01*
X48794180Y-58610498D01*
X48674482Y-58574188D01*
X48550000Y-58561928D01*
X46450000Y-58561928D01*
X46325518Y-58574188D01*
X46205820Y-58610498D01*
X46095506Y-58669463D01*
X45998815Y-58748815D01*
X45919463Y-58845506D01*
X45860498Y-58955820D01*
X45824188Y-59075518D01*
X45811928Y-59200000D01*
X37660000Y-59200000D01*
X37660000Y-38650000D01*
X38365128Y-38650000D01*
X38365128Y-41350000D01*
X38396542Y-41668948D01*
X38489575Y-41975638D01*
X38640654Y-42258286D01*
X38843971Y-42506029D01*
X39091714Y-42709346D01*
X39374362Y-42860425D01*
X39681052Y-42953458D01*
X40000000Y-42984872D01*
X44000000Y-42984872D01*
X44318948Y-42953458D01*
X44625638Y-42860425D01*
X44908286Y-42709346D01*
X45156029Y-42506029D01*
X45359346Y-42258286D01*
X45456246Y-42077000D01*
X45652629Y-42077000D01*
X45610498Y-42155820D01*
X45574188Y-42275518D01*
X45561928Y-42400000D01*
X45561928Y-45600000D01*
X45574188Y-45724482D01*
X45610498Y-45844180D01*
X45669463Y-45954494D01*
X45748815Y-46051185D01*
X45845506Y-46130537D01*
X45955820Y-46189502D01*
X46075518Y-46225812D01*
X46200000Y-46238072D01*
X48200000Y-46238072D01*
X48324482Y-46225812D01*
X48444180Y-46189502D01*
X48554494Y-46130537D01*
X48651185Y-46051185D01*
X48730537Y-45954494D01*
X48789502Y-45844180D01*
X48825812Y-45724482D01*
X48838072Y-45600000D01*
X48838072Y-42591028D01*
X48874362Y-42610425D01*
X49181052Y-42703458D01*
X49500000Y-42734872D01*
X52700000Y-42734872D01*
X53018948Y-42703458D01*
X53325638Y-42610425D01*
X53361928Y-42591028D01*
X53361928Y-45600000D01*
X53374188Y-45724482D01*
X53410498Y-45844180D01*
X53469463Y-45954494D01*
X53548815Y-46051185D01*
X53645506Y-46130537D01*
X53755820Y-46189502D01*
X53875518Y-46225812D01*
X54000000Y-46238072D01*
X56000000Y-46238072D01*
X56124482Y-46225812D01*
X56244180Y-46189502D01*
X56354494Y-46130537D01*
X56451185Y-46051185D01*
X56530537Y-45954494D01*
X56589502Y-45844180D01*
X56625812Y-45724482D01*
X56638072Y-45600000D01*
X56638072Y-42400000D01*
X56625812Y-42275518D01*
X56589502Y-42155820D01*
X56530537Y-42045506D01*
X56474316Y-41977000D01*
X69990303Y-41977000D01*
X70140654Y-42258286D01*
X70343971Y-42506029D01*
X70591714Y-42709346D01*
X70874362Y-42860425D01*
X71181052Y-42953458D01*
X71500000Y-42984872D01*
X75500000Y-42984872D01*
X75818948Y-42953458D01*
X76125638Y-42860425D01*
X76408286Y-42709346D01*
X76656029Y-42506029D01*
X76859346Y-42258286D01*
X77010425Y-41975638D01*
X77103458Y-41668948D01*
X77134872Y-41350000D01*
X77134872Y-38650000D01*
X77103458Y-38331052D01*
X77010425Y-38024362D01*
X76859346Y-37741714D01*
X76656029Y-37493971D01*
X76408286Y-37290654D01*
X76125638Y-37139575D01*
X75818948Y-37046542D01*
X75500000Y-37015128D01*
X71500000Y-37015128D01*
X71181052Y-37046542D01*
X70874362Y-37139575D01*
X70591714Y-37290654D01*
X70343971Y-37493971D01*
X70140654Y-37741714D01*
X69990303Y-38023000D01*
X53920886Y-38023000D01*
X53856029Y-37943971D01*
X53608286Y-37740654D01*
X53325638Y-37589575D01*
X53018948Y-37496542D01*
X52700000Y-37465128D01*
X49500000Y-37465128D01*
X49181052Y-37496542D01*
X48874362Y-37589575D01*
X48591714Y-37740654D01*
X48343971Y-37943971D01*
X48197046Y-38123000D01*
X45540346Y-38123000D01*
X45510425Y-38024362D01*
X45359346Y-37741714D01*
X45156029Y-37493971D01*
X44908286Y-37290654D01*
X44625638Y-37139575D01*
X44318948Y-37046542D01*
X44000000Y-37015128D01*
X40000000Y-37015128D01*
X39681052Y-37046542D01*
X39374362Y-37139575D01*
X39091714Y-37290654D01*
X38843971Y-37493971D01*
X38640654Y-37741714D01*
X38489575Y-38024362D01*
X38396542Y-38331052D01*
X38365128Y-38650000D01*
X37660000Y-38650000D01*
X37660000Y-30650000D01*
X38365128Y-30650000D01*
X38365128Y-33350000D01*
X38396542Y-33668948D01*
X38489575Y-33975638D01*
X38640654Y-34258286D01*
X38843971Y-34506029D01*
X39091714Y-34709346D01*
X39374362Y-34860425D01*
X39681052Y-34953458D01*
X40000000Y-34984872D01*
X44000000Y-34984872D01*
X44318948Y-34953458D01*
X44625638Y-34860425D01*
X44908286Y-34709346D01*
X45156029Y-34506029D01*
X45359346Y-34258286D01*
X45510425Y-33975638D01*
X45603458Y-33668948D01*
X45634872Y-33350000D01*
X45634872Y-30650000D01*
X69865128Y-30650000D01*
X69865128Y-33350000D01*
X69896542Y-33668948D01*
X69989575Y-33975638D01*
X70140654Y-34258286D01*
X70343971Y-34506029D01*
X70591714Y-34709346D01*
X70874362Y-34860425D01*
X71181052Y-34953458D01*
X71500000Y-34984872D01*
X75500000Y-34984872D01*
X75818948Y-34953458D01*
X76125638Y-34860425D01*
X76408286Y-34709346D01*
X76656029Y-34506029D01*
X76859346Y-34258286D01*
X77010425Y-33975638D01*
X77103458Y-33668948D01*
X77134872Y-33350000D01*
X77134872Y-30650000D01*
X77103458Y-30331052D01*
X77010425Y-30024362D01*
X76859346Y-29741714D01*
X76656029Y-29493971D01*
X76408286Y-29290654D01*
X76125638Y-29139575D01*
X75818948Y-29046542D01*
X75500000Y-29015128D01*
X71500000Y-29015128D01*
X71181052Y-29046542D01*
X70874362Y-29139575D01*
X70591714Y-29290654D01*
X70343971Y-29493971D01*
X70140654Y-29741714D01*
X69989575Y-30024362D01*
X69896542Y-30331052D01*
X69865128Y-30650000D01*
X45634872Y-30650000D01*
X45603458Y-30331052D01*
X45510425Y-30024362D01*
X45359346Y-29741714D01*
X45156029Y-29493971D01*
X44908286Y-29290654D01*
X44625638Y-29139575D01*
X44318948Y-29046542D01*
X44000000Y-29015128D01*
X40000000Y-29015128D01*
X39681052Y-29046542D01*
X39374362Y-29139575D01*
X39091714Y-29290654D01*
X38843971Y-29493971D01*
X38640654Y-29741714D01*
X38489575Y-30024362D01*
X38396542Y-30331052D01*
X38365128Y-30650000D01*
X37660000Y-30650000D01*
X37660000Y-19660000D01*
X78340000Y-19660000D01*
X78340001Y-74340000D01*
%TD*%
M02*
